STARTFONT 2.1
FONT -FontForge-Bungee Shade-Book-R-Normal--14-140-72-72-P-120-ISO10646-1
SIZE 14 72 72
FONTBOUNDINGBOX 35 38 -8 -14
COMMENT "Generated by fontforge, http://fontforge.sourceforge.net"
COMMENT "Copyright 2008 The Bungee Project Authors (david@djr.com)"
STARTPROPERTIES 39
FOUNDRY "FontForge"
FAMILY_NAME "Bungee Shade"
WEIGHT_NAME "Book"
SLANT "R"
SETWIDTH_NAME "Normal"
ADD_STYLE_NAME ""
PIXEL_SIZE 14
POINT_SIZE 140
RESOLUTION_X 72
RESOLUTION_Y 72
SPACING "P"
AVERAGE_WIDTH 120
CHARSET_REGISTRY "ISO10646"
CHARSET_ENCODING "1"
FONTNAME_REGISTRY ""
CHARSET_COLLECTIONS "ISO8859-2 ISO8859-9 ISO8859-4 ISO10646-1"
FONT_NAME "BungeeShade-Regular"
FACE_NAME "Bungee Shade"
COPYRIGHT "Copyright 2008 The Bungee Project Authors (david@djr.com)"
FONT_VERSION "1.000;PS 1.0;hotconv 1.0.72;makeotf.lib2.5.5900"
FONT_ASCENT 12
FONT_DESCENT 2
UNDERLINE_POSITION 0
UNDERLINE_THICKNESS 0
X_HEIGHT 10
CAP_HEIGHT 10
RAW_ASCENT 860
RAW_DESCENT 140
NORM_SPACE 5
RELATIVE_WEIGHT 40
RELATIVE_SETWIDTH 50
SUPERSCRIPT_X 0
SUPERSCRIPT_Y 4
SUPERSCRIPT_SIZE 8
SUBSCRIPT_X 0
SUBSCRIPT_Y 1
SUBSCRIPT_SIZE 8
AVG_LOWERCASE_WIDTH 115
AVG_UPPERCASE_WIDTH 118
ENDPROPERTIES
CHARS 1065
STARTCHAR space
ENCODING 32
SWIDTH 325 0
DWIDTH 5 0
BBX 1 1 0 0
BITMAP
00
ENDCHAR
STARTCHAR exclam
ENCODING 33
SWIDTH 524 0
DWIDTH 7 0
BBX 6 13 1 -2
BITMAP
7C
44
D4
D4
D4
D4
C4
C4
F8
D4
C4
F8
F0
ENDCHAR
STARTCHAR quotedbl
ENCODING 34
SWIDTH 746 0
DWIDTH 10 0
BBX 10 8 0 3
BITMAP
3FC0
52C0
D2C0
D2C0
C240
C240
FF80
7700
ENDCHAR
STARTCHAR numbersign
ENCODING 35
SWIDTH 850 0
DWIDTH 12 0
BBX 12 13 0 -2
BITMAP
0EE0
1120
3550
6FD0
6850
7BA0
7BA0
5FD0
C890
EAA0
E640
7F80
7700
ENDCHAR
STARTCHAR dollar
ENCODING 36
SWIDTH 750 0
DWIDTH 11 0
BBX 10 15 0 -3
BITMAP
0F00
12C0
2240
4F40
5380
D040
EC40
F3C0
7EC0
20C0
4F40
C2C0
F900
FE00
1C00
ENDCHAR
STARTCHAR percent
ENCODING 37
SWIDTH 1131 0
DWIDTH 16 0
BBX 16 13 0 -2
BITMAP
3EF0
4D90
5360
DB60
DB7E
CD6D
E1B3
FEB7
7EF7
06F3
066D
07FE
0678
ENDCHAR
STARTCHAR ampersand
ENCODING 38
SWIDTH 866 0
DWIDTH 12 0
BBX 12 13 0 -2
BITMAP
0FC0
1040
2740
6B80
6900
7DF0
5130
5750
D050
CF90
E020
7FC0
7F80
ENDCHAR
STARTCHAR quotesingle
ENCODING 39
SWIDTH 456 0
DWIDTH 6 0
BBX 6 8 0 3
BITMAP
3C
4C
CC
CC
44
64
78
70
ENDCHAR
STARTCHAR parenleft
ENCODING 40
SWIDTH 529 0
DWIDTH 7 0
BBX 7 15 0 -2
BITMAP
1E
22
4E
52
D4
D4
D4
D4
D4
D4
D2
D2
EE
7E
3C
ENDCHAR
STARTCHAR parenright
ENCODING 41
SWIDTH 529 0
DWIDTH 7 0
BBX 7 15 0 -2
BITMAP
3C
42
DA
C6
F6
36
36
36
36
36
36
46
DA
FC
F0
ENDCHAR
STARTCHAR asterisk
ENCODING 42
SWIDTH 818 0
DWIDTH 11 0
BBX 10 11 1 0
BITMAP
0F00
3200
4DC0
D540
8E40
F780
ED80
4480
F700
7E00
2400
ENDCHAR
STARTCHAR plus
ENCODING 43
SWIDTH 834 0
DWIDTH 12 0
BBX 10 11 1 -1
BITMAP
0E00
1100
3500
35C0
5FC0
C440
F5C0
F500
3100
3E00
3C00
ENDCHAR
STARTCHAR comma
ENCODING 44
SWIDTH 484 0
DWIDTH 7 0
BBX 6 8 0 -3
BITMAP
3C
44
DC
C4
F4
FC
78
70
ENDCHAR
STARTCHAR hyphen
ENCODING 45
SWIDTH 520 0
DWIDTH 7 0
BBX 7 5 0 2
BITMAP
3E
5E
C2
FE
FC
ENDCHAR
STARTCHAR period
ENCODING 46
SWIDTH 484 0
DWIDTH 7 0
BBX 6 6 0 -2
BITMAP
3C
44
CC
C4
FC
F8
ENDCHAR
STARTCHAR slash
ENCODING 47
SWIDTH 487 0
DWIDTH 7 0
BBX 7 16 0 -3
BITMAP
0E
12
26
2A
6A
6A
6A
6C
6C
6C
54
54
D4
C4
F8
E0
ENDCHAR
STARTCHAR zero
ENCODING 48
SWIDTH 827 0
DWIDTH 12 0
BBX 11 13 0 -2
BITMAP
1FC0
27A0
4860
4B60
CB60
CB60
CB60
CB60
C860
E7A0
6060
7F80
3F00
ENDCHAR
STARTCHAR one
ENCODING 49
SWIDTH 701 0
DWIDTH 10 0
BBX 10 13 0 -2
BITMAP
3F00
6100
6D00
6500
7500
3500
3500
3500
3480
4F40
C040
FF80
FF00
ENDCHAR
STARTCHAR two
ENCODING 50
SWIDTH 739 0
DWIDTH 10 0
BBX 10 13 0 -2
BITMAP
3F80
6040
6F40
7EC0
78C0
2340
2C80
5300
D7C0
CFC0
C040
FFC0
FF00
ENDCHAR
STARTCHAR three
ENCODING 51
SWIDTH 737 0
DWIDTH 10 0
BBX 10 13 0 -2
BITMAP
3F80
4080
CE40
FD40
E180
2740
60C0
7EC0
40C0
4F40
C040
FF80
FE00
ENDCHAR
STARTCHAR four
ENCODING 52
SWIDTH 809 0
DWIDTH 11 0
BBX 10 13 1 -2
BITMAP
7BC0
8440
9540
9540
9540
9540
9140
CF40
C140
FD40
7C40
0F80
0F00
ENDCHAR
STARTCHAR five
ENCODING 53
SWIDTH 747 0
DWIDTH 10 0
BBX 10 13 0 -2
BITMAP
3FC0
6040
6F40
6B80
6840
6F40
60C0
7EC0
40C0
4F40
C040
FF80
FE00
ENDCHAR
STARTCHAR six
ENCODING 54
SWIDTH 793 0
DWIDTH 11 0
BBX 11 13 0 -2
BITMAP
1FC0
2740
4840
4B80
C840
CFA0
C860
CA60
CA60
E7A0
6040
7F80
3F00
ENDCHAR
STARTCHAR seven
ENCODING 55
SWIDTH 727 0
DWIDTH 10 0
BBX 10 13 0 -2
BITMAP
7FC0
4040
DF40
FCC0
FCC0
10C0
1340
2C80
6B00
6A00
6200
7C00
7800
ENDCHAR
STARTCHAR eight
ENCODING 56
SWIDTH 811 0
DWIDTH 11 0
BBX 11 13 0 -2
BITMAP
1FC0
2720
28A0
6AA0
6AA0
7FE0
5060
5760
D760
CFA0
E020
7FC0
3F00
ENDCHAR
STARTCHAR nine
ENCODING 57
SWIDTH 793 0
DWIDTH 11 0
BBX 11 13 0 -2
BITMAP
1FC0
2F20
50A0
D6A0
D6A0
D0A0
EFA0
7EA0
20A0
2720
6040
7F80
7F00
ENDCHAR
STARTCHAR colon
ENCODING 58
SWIDTH 484 0
DWIDTH 7 0
BBX 6 12 0 -2
BITMAP
3C
44
4C
C4
C4
FC
FC
44
CC
C4
FC
F8
ENDCHAR
STARTCHAR semicolon
ENCODING 59
SWIDTH 484 0
DWIDTH 7 0
BBX 6 13 0 -3
BITMAP
3C
44
CC
C4
FC
FC
44
5C
C4
F4
FC
78
70
ENDCHAR
STARTCHAR less
ENCODING 60
SWIDTH 814 0
DWIDTH 11 0
BBX 9 11 1 -1
BITMAP
0380
1C80
2780
5880
D700
D300
CC80
E380
FE80
3F80
0300
ENDCHAR
STARTCHAR equal
ENCODING 61
SWIDTH 834 0
DWIDTH 12 0
BBX 10 9 1 0
BITMAP
3FC0
DFC0
C040
FF80
FFC0
5FC0
C040
FFC0
FF00
ENDCHAR
STARTCHAR greater
ENCODING 62
SWIDTH 814 0
DWIDTH 11 0
BBX 10 11 1 -1
BITMAP
7000
DF00
CE80
C140
FEC0
18C0
6F40
D180
CE00
F000
8000
ENDCHAR
STARTCHAR question
ENCODING 63
SWIDTH 756 0
DWIDTH 11 0
BBX 10 13 0 -2
BITMAP
3FC0
4040
DF40
FEC0
F0C0
27C0
7040
3F80
2200
2600
6200
7E00
7800
ENDCHAR
STARTCHAR at
ENCODING 64
SWIDTH 967 0
DWIDTH 14 0
BBX 13 16 0 -3
BITMAP
0FE0
1010
2FE8
7FF8
57D8
5C58
DD58
DD58
DD58
DC68
DBF8
6FF0
73E0
7FE0
3FC0
0F80
ENDCHAR
STARTCHAR A
ENCODING 65
SWIDTH 830 0
DWIDTH 12 0
BBX 11 13 0 -2
BITMAP
0FC0
1040
1720
2AA0
2AA0
6B60
5060
4FE0
D060
D760
C720
FBE0
F3C0
ENDCHAR
STARTCHAR B
ENCODING 66
SWIDTH 825 0
DWIDTH 12 0
BBX 10 13 1 -2
BITMAP
7F80
C040
DE40
D540
D5C0
DF40
D0C0
D6C0
D6C0
DF40
C040
FF80
FF00
ENDCHAR
STARTCHAR C
ENCODING 67
SWIDTH 728 0
DWIDTH 10 0
BBX 10 13 0 -2
BITMAP
1FC0
2040
47C0
4B80
CB00
CC00
CC00
CC00
CBC0
E7C0
6040
7FC0
3F00
ENDCHAR
STARTCHAR D
ENCODING 68
SWIDTH 846 0
DWIDTH 12 0
BBX 10 13 1 -2
BITMAP
7F80
C040
DF40
D0C0
D6C0
D6C0
D6C0
D6C0
D6C0
DF40
C040
FF80
FE00
ENDCHAR
STARTCHAR E
ENCODING 69
SWIDTH 754 0
DWIDTH 11 0
BBX 9 13 1 -2
BITMAP
7F80
C080
DF80
D700
D100
DE80
D080
D700
D780
DF80
C080
FF80
FF00
ENDCHAR
STARTCHAR F
ENCODING 70
SWIDTH 718 0
DWIDTH 10 0
BBX 9 13 1 -2
BITMAP
7F80
C080
DF80
D780
D700
D100
DD00
D100
D600
D400
C800
F000
E000
ENDCHAR
STARTCHAR G
ENCODING 71
SWIDTH 808 0
DWIDTH 11 0
BBX 11 13 0 -2
BITMAP
1FC0
2040
47C0
4B80
CB00
CCE0
CB20
CB60
C860
E7A0
6020
7FC0
3F80
ENDCHAR
STARTCHAR H
ENCODING 72
SWIDTH 859 0
DWIDTH 12 0
BBX 10 13 1 -2
BITMAP
7BC0
CA40
D6C0
D6C0
D6C0
DFC0
D0C0
D6C0
D6C0
D6C0
C640
FFC0
E780
ENDCHAR
STARTCHAR I
ENCODING 73
SWIDTH 705 0
DWIDTH 10 0
BBX 9 13 0 -2
BITMAP
3F80
4080
CF80
E480
F500
3500
3500
3500
3580
4F80
C080
FF80
FF00
ENDCHAR
STARTCHAR J
ENCODING 74
SWIDTH 788 0
DWIDTH 11 0
BBX 10 13 0 -2
BITMAP
03C0
0240
06C0
06C0
06C0
3EC0
46C0
D6C0
D0C0
CF40
E040
7F80
3E00
ENDCHAR
STARTCHAR K
ENCODING 75
SWIDTH 846 0
DWIDTH 12 0
BBX 10 13 1 -2
BITMAP
7BC0
CA40
D540
D580
D240
DF40
D0C0
D6C0
D6C0
D6C0
C640
FFC0
E780
ENDCHAR
STARTCHAR L
ENCODING 76
SWIDTH 795 0
DWIDTH 11 0
BBX 10 13 1 -2
BITMAP
7800
C800
D800
D800
D800
D9C0
DA40
D6C0
D0C0
DF40
C040
FF80
FF00
ENDCHAR
STARTCHAR M
ENCODING 77
SWIDTH 949 0
DWIDTH 13 0
BBX 12 13 1 -2
BITMAP
78F0
C510
D250
DAD0
D550
DAD0
D8D0
D550
D750
DB50
CB10
F3E0
E3C0
ENDCHAR
STARTCHAR N
ENCODING 78
SWIDTH 853 0
DWIDTH 12 0
BBX 10 13 1 -2
BITMAP
7BC0
C640
D2C0
DAC0
D4C0
D2C0
D9C0
D5C0
D6C0
D6C0
C640
FFC0
E780
ENDCHAR
STARTCHAR O
ENCODING 79
SWIDTH 837 0
DWIDTH 12 0
BBX 11 13 0 -2
BITMAP
1FC0
27A0
4860
4B60
CB60
CB60
CB60
CB60
C860
E7A0
6020
7FC0
3F00
ENDCHAR
STARTCHAR P
ENCODING 80
SWIDTH 782 0
DWIDTH 11 0
BBX 10 13 1 -2
BITMAP
7F80
C040
DF40
D0C0
D6C0
D6C0
DF40
D080
D700
D600
C800
F000
E000
ENDCHAR
STARTCHAR Q
ENCODING 81
SWIDTH 837 0
DWIDTH 12 0
BBX 11 14 0 -3
BITMAP
1FC0
27A0
4860
4B60
CB60
CB60
CB60
CB60
C860
E7A0
7240
7880
1F00
1E00
ENDCHAR
STARTCHAR R
ENCODING 82
SWIDTH 843 0
DWIDTH 12 0
BBX 11 13 1 -2
BITMAP
7F80
C040
DE40
D540
D540
D140
DF20
D0A0
D6A0
D6A0
C620
FFC0
E780
ENDCHAR
STARTCHAR S
ENCODING 83
SWIDTH 750 0
DWIDTH 11 0
BBX 10 13 0 -2
BITMAP
1FC0
2040
4F40
D380
D080
EC40
F3C0
7EC0
20C0
4F40
C040
FF80
FE00
ENDCHAR
STARTCHAR T
ENCODING 84
SWIDTH 756 0
DWIDTH 11 0
BBX 11 13 0 -2
BITMAP
7FE0
4020
DFA0
FAC0
FA80
1B00
1B00
1B00
1B00
1B00
1900
1E00
1C00
ENDCHAR
STARTCHAR U
ENCODING 85
SWIDTH 846 0
DWIDTH 12 0
BBX 10 13 1 -2
BITMAP
7BC0
DAC0
D6C0
D6C0
D6C0
D6C0
D6C0
D6C0
D0C0
CF40
E040
FF80
7E00
ENDCHAR
STARTCHAR V
ENCODING 86
SWIDTH 830 0
DWIDTH 12 0
BBX 11 13 0 -2
BITMAP
3DE0
4320
CB60
CB60
CB60
CB60
EA60
6AA0
64A0
7340
3040
3F80
3F00
ENDCHAR
STARTCHAR W
ENCODING 87
SWIDTH 931 0
DWIDTH 13 0
BBX 13 13 0 -2
BITMAP
3C78
4488
CDA8
CDA8
CFA8
CC68
CD68
CAA8
6D68
6950
6110
7FE0
3BC0
ENDCHAR
STARTCHAR X
ENCODING 88
SWIDTH 837 0
DWIDTH 12 0
BBX 11 13 0 -2
BITMAP
3DE0
4520
CB60
EA60
64A0
7340
24A0
2AA0
4B60
4B60
4320
FFE0
73C0
ENDCHAR
STARTCHAR Y
ENCODING 89
SWIDTH 805 0
DWIDTH 11 0
BBX 11 13 0 -2
BITMAP
3DE0
4720
D760
D760
D260
EAA0
E540
7240
3A80
3A80
1880
1F00
1E00
ENDCHAR
STARTCHAR Z
ENCODING 90
SWIDTH 760 0
DWIDTH 11 0
BBX 10 13 0 -2
BITMAP
3FC0
6040
6F40
7CC0
7940
1280
1500
2900
4BC0
CFC0
C040
FFC0
FF80
ENDCHAR
STARTCHAR bracketleft
ENCODING 91
SWIDTH 529 0
DWIDTH 7 0
BBX 7 15 0 -2
BITMAP
3E
42
DE
D6
D4
D4
D4
D4
D4
D4
D6
D2
CE
FE
FC
ENDCHAR
STARTCHAR backslash
ENCODING 92
SWIDTH 487 0
DWIDTH 7 0
BBX 7 16 0 -3
BITMAP
38
44
D4
D4
D4
EC
6C
6C
6A
6A
6A
6A
76
72
3C
38
ENDCHAR
STARTCHAR bracketright
ENCODING 93
SWIDTH 529 0
DWIDTH 7 0
BBX 7 15 0 -2
BITMAP
3E
42
DE
C6
F6
36
36
36
36
36
36
46
DA
FE
F8
ENDCHAR
STARTCHAR asciicircum
ENCODING 94
SWIDTH 814 0
DWIDTH 11 0
BBX 11 10 0 1
BITMAP
0F80
1680
3940
2AC0
2AC0
6AA0
76A0
4720
FBC0
F380
ENDCHAR
STARTCHAR underscore
ENCODING 95
SWIDTH 834 0
DWIDTH 12 0
BBX 10 5 1 -3
BITMAP
3FC0
DFC0
C040
FFC0
FF80
ENDCHAR
STARTCHAR grave
ENCODING 96
SWIDTH 600 0
DWIDTH 8 0
BBX 8 5 0 9
BITMAP
7F
DF
F9
FE
04
ENDCHAR
STARTCHAR a
ENCODING 97
SWIDTH 830 0
DWIDTH 12 0
BBX 11 13 0 -2
BITMAP
0FC0
1040
1720
2AA0
2AA0
6B60
5060
4FE0
D060
D760
C720
FBE0
F3C0
ENDCHAR
STARTCHAR b
ENCODING 98
SWIDTH 825 0
DWIDTH 12 0
BBX 10 13 1 -2
BITMAP
7F80
C040
DE40
D540
D5C0
DF40
D0C0
D6C0
D6C0
DF40
C040
FF80
FF00
ENDCHAR
STARTCHAR c
ENCODING 99
SWIDTH 728 0
DWIDTH 10 0
BBX 10 13 0 -2
BITMAP
1FC0
2040
47C0
4B80
CB00
CC00
CC00
CC00
CBC0
E7C0
6040
7FC0
3F00
ENDCHAR
STARTCHAR d
ENCODING 100
SWIDTH 846 0
DWIDTH 12 0
BBX 10 13 1 -2
BITMAP
7F80
C040
DF40
D0C0
D6C0
D6C0
D6C0
D6C0
D6C0
DF40
C040
FF80
FE00
ENDCHAR
STARTCHAR e
ENCODING 101
SWIDTH 754 0
DWIDTH 11 0
BBX 9 13 1 -2
BITMAP
7F80
C080
DF80
D700
D100
DE80
D080
D700
D780
DF80
C080
FF80
FF00
ENDCHAR
STARTCHAR f
ENCODING 102
SWIDTH 718 0
DWIDTH 10 0
BBX 9 13 1 -2
BITMAP
7F80
C080
DF80
D780
D700
D100
DD00
D100
D600
D400
C800
F000
E000
ENDCHAR
STARTCHAR g
ENCODING 103
SWIDTH 808 0
DWIDTH 11 0
BBX 11 13 0 -2
BITMAP
1FC0
2040
47C0
4B80
CB00
CCE0
CB20
CB60
C860
E7A0
6020
7FC0
3F80
ENDCHAR
STARTCHAR h
ENCODING 104
SWIDTH 859 0
DWIDTH 12 0
BBX 10 13 1 -2
BITMAP
7BC0
CA40
D6C0
D6C0
D6C0
DFC0
D0C0
D6C0
D6C0
D6C0
C640
FFC0
E780
ENDCHAR
STARTCHAR i
ENCODING 105
SWIDTH 705 0
DWIDTH 10 0
BBX 9 13 0 -2
BITMAP
3F80
4080
CF80
E480
F500
3500
3500
3500
3580
4F80
C080
FF80
FF00
ENDCHAR
STARTCHAR j
ENCODING 106
SWIDTH 788 0
DWIDTH 11 0
BBX 10 13 0 -2
BITMAP
03C0
0240
06C0
06C0
06C0
3EC0
46C0
D6C0
D0C0
CF40
E040
7F80
3E00
ENDCHAR
STARTCHAR k
ENCODING 107
SWIDTH 846 0
DWIDTH 12 0
BBX 10 13 1 -2
BITMAP
7BC0
CA40
D540
D580
D240
DF40
D0C0
D6C0
D6C0
D6C0
C640
FFC0
E780
ENDCHAR
STARTCHAR l
ENCODING 108
SWIDTH 795 0
DWIDTH 11 0
BBX 10 13 1 -2
BITMAP
7800
C800
D800
D800
D800
D9C0
DA40
D6C0
D0C0
DF40
C040
FF80
FF00
ENDCHAR
STARTCHAR m
ENCODING 109
SWIDTH 949 0
DWIDTH 13 0
BBX 12 13 1 -2
BITMAP
78F0
C510
D250
DAD0
D550
DAD0
D8D0
D550
D750
DB50
CB10
F3E0
E3C0
ENDCHAR
STARTCHAR n
ENCODING 110
SWIDTH 853 0
DWIDTH 12 0
BBX 10 13 1 -2
BITMAP
7BC0
C640
D2C0
DAC0
D4C0
D2C0
D9C0
D5C0
D6C0
D6C0
C640
FFC0
E780
ENDCHAR
STARTCHAR o
ENCODING 111
SWIDTH 837 0
DWIDTH 12 0
BBX 11 13 0 -2
BITMAP
1FC0
27A0
4860
4B60
CB60
CB60
CB60
CB60
C860
E7A0
6020
7FC0
3F00
ENDCHAR
STARTCHAR p
ENCODING 112
SWIDTH 782 0
DWIDTH 11 0
BBX 10 13 1 -2
BITMAP
7F80
C040
DF40
D0C0
D6C0
D6C0
DF40
D080
D700
D600
C800
F000
E000
ENDCHAR
STARTCHAR q
ENCODING 113
SWIDTH 837 0
DWIDTH 12 0
BBX 11 14 0 -3
BITMAP
1FC0
27A0
4860
4B60
CB60
CB60
CB60
CB60
C860
E7A0
7240
7880
1F00
1E00
ENDCHAR
STARTCHAR r
ENCODING 114
SWIDTH 843 0
DWIDTH 12 0
BBX 11 13 1 -2
BITMAP
7F80
C040
DE40
D540
D540
D140
DF20
D0A0
D6A0
D6A0
C620
FFC0
E780
ENDCHAR
STARTCHAR s
ENCODING 115
SWIDTH 750 0
DWIDTH 11 0
BBX 10 13 0 -2
BITMAP
1FC0
2040
4F40
D380
D080
EC40
F3C0
7EC0
20C0
4F40
C040
FF80
FE00
ENDCHAR
STARTCHAR t
ENCODING 116
SWIDTH 756 0
DWIDTH 11 0
BBX 11 13 0 -2
BITMAP
7FE0
4020
DFA0
FAC0
FA80
1B00
1B00
1B00
1B00
1B00
1900
1E00
1C00
ENDCHAR
STARTCHAR u
ENCODING 117
SWIDTH 846 0
DWIDTH 12 0
BBX 10 13 1 -2
BITMAP
7BC0
DAC0
D6C0
D6C0
D6C0
D6C0
D6C0
D6C0
D0C0
CF40
E040
FF80
7E00
ENDCHAR
STARTCHAR v
ENCODING 118
SWIDTH 830 0
DWIDTH 12 0
BBX 11 13 0 -2
BITMAP
3DE0
4320
CB60
CB60
CB60
CB60
EA60
6AA0
64A0
7340
3040
3F80
3F00
ENDCHAR
STARTCHAR w
ENCODING 119
SWIDTH 931 0
DWIDTH 13 0
BBX 13 13 0 -2
BITMAP
3C78
4488
CDA8
CDA8
CFA8
CC68
CD68
CAA8
6D68
6950
6110
7FE0
3BC0
ENDCHAR
STARTCHAR x
ENCODING 120
SWIDTH 837 0
DWIDTH 12 0
BBX 11 13 0 -2
BITMAP
3DE0
4520
CB60
EA60
64A0
7340
24A0
2AA0
4B60
4B60
4320
FFE0
73C0
ENDCHAR
STARTCHAR y
ENCODING 121
SWIDTH 805 0
DWIDTH 11 0
BBX 11 13 0 -2
BITMAP
3DE0
4720
D760
D760
D260
EAA0
E540
7240
3A80
3A80
1880
1F00
1E00
ENDCHAR
STARTCHAR z
ENCODING 122
SWIDTH 760 0
DWIDTH 11 0
BBX 10 13 0 -2
BITMAP
3FC0
6040
6F40
7CC0
7940
1280
1500
2900
4BC0
CFC0
C040
FFC0
FF80
ENDCHAR
STARTCHAR braceleft
ENCODING 123
SWIDTH 555 0
DWIDTH 8 0
BBX 7 15 0 -2
BITMAP
0E
12
2E
6A
6A
6A
54
D4
EA
EA
6A
6A
76
7E
3C
ENDCHAR
STARTCHAR bar
ENCODING 124
SWIDTH 447 0
DWIDTH 6 0
BBX 5 16 1 -3
BITMAP
30
48
D8
D8
D8
D8
D8
D8
D8
D8
D8
D8
D8
C8
F0
E0
ENDCHAR
STARTCHAR braceright
ENCODING 125
SWIDTH 555 0
DWIDTH 8 0
BBX 8 15 0 -2
BITMAP
3C
42
DA
C6
F6
36
35
3B
35
36
36
46
DA
FC
F0
ENDCHAR
STARTCHAR asciitilde
ENCODING 126
SWIDTH 834 0
DWIDTH 12 0
BBX 10 5 1 2
BITMAP
3840
5FC0
C040
FF80
FF00
ENDCHAR
STARTCHAR uni00A0
ENCODING 160
SWIDTH 325 0
DWIDTH 5 0
BBX 1 1 0 0
BITMAP
00
ENDCHAR
STARTCHAR exclamdown
ENCODING 161
SWIDTH 523 0
DWIDTH 7 0
BBX 6 13 1 -2
BITMAP
7C
44
D4
C4
F8
C4
D4
D4
D4
D4
C4
F8
F0
ENDCHAR
STARTCHAR cent
ENCODING 162
SWIDTH 728 0
DWIDTH 10 0
BBX 10 14 0 -2
BITMAP
0700
08C0
17C0
2840
4BC0
4B00
CC00
CC00
CBC0
E7C0
7240
7880
1F00
1E00
ENDCHAR
STARTCHAR sterling
ENCODING 163
SWIDTH 795 0
DWIDTH 11 0
BBX 11 13 0 -2
BITMAP
1FC0
2040
2740
6B80
4900
4A00
DEE0
EB60
E860
6FA0
6020
7FC0
7F80
ENDCHAR
STARTCHAR currency
ENCODING 164
SWIDTH 921 0
DWIDTH 13 0
BBX 13 13 0 -2
BITMAP
1830
27C8
6BA8
F450
77D0
37D0
37D0
3450
2BB0
4008
EFD0
7EE0
2040
ENDCHAR
STARTCHAR yen
ENCODING 165
SWIDTH 803 0
DWIDTH 11 0
BBX 11 13 0 -2
BITMAP
3DE0
4720
D760
D760
EAA0
E4C0
7340
6220
6FA0
6240
7880
1F00
1E00
ENDCHAR
STARTCHAR brokenbar
ENCODING 166
SWIDTH 447 0
DWIDTH 6 0
BBX 5 16 1 -3
BITMAP
30
C8
D8
D8
D8
C8
F0
F0
48
D8
D8
D8
C8
C8
F0
E0
ENDCHAR
STARTCHAR section
ENCODING 167
SWIDTH 750 0
DWIDTH 11 0
BBX 10 13 0 -2
BITMAP
1FC0
2F40
5040
5780
CE40
D6C0
E8C0
E7C0
7EC0
40C0
4F40
7F80
7E00
ENDCHAR
STARTCHAR dieresis
ENCODING 168
SWIDTH 600 0
DWIDTH 8 0
BBX 8 5 0 9
BITMAP
3B
57
C5
FF
EE
ENDCHAR
STARTCHAR copyright
ENCODING 169
SWIDTH 967 0
DWIDTH 14 0
BBX 13 16 0 -3
BITMAP
0FE0
1010
2FE8
7C38
59B8
5BF8
DBB8
DA38
DBF8
D9B8
DC38
EFE8
7390
7FF0
3FE0
0F00
ENDCHAR
STARTCHAR ordfeminine
ENCODING 170
SWIDTH 620 0
DWIDTH 9 0
BBX 9 13 0 -2
BITMAP
1F00
2D00
7700
5680
5100
DE80
D180
DD80
CC80
FF00
5E80
FF00
FE00
ENDCHAR
STARTCHAR guillemotleft
ENCODING 171
SWIDTH 912 0
DWIDTH 13 0
BBX 12 9 0 0
BITMAP
0F70
3190
2D70
56B0
D290
CD70
F190
7FF0
3CE0
ENDCHAR
STARTCHAR logicalnot
ENCODING 172
SWIDTH 834 0
DWIDTH 12 0
BBX 10 9 1 -1
BITMAP
3FC0
4040
DFC0
C0C0
FEC0
FEC0
0640
07C0
0700
ENDCHAR
STARTCHAR uni00AD
ENCODING 173
SWIDTH 520 0
DWIDTH 7 0
BBX 7 5 0 2
BITMAP
3E
5E
C2
FE
FC
ENDCHAR
STARTCHAR registered
ENCODING 174
SWIDTH 660 0
DWIDTH 9 0
BBX 9 10 0 1
BITMAP
1F00
3D80
5D80
DF80
DD80
D580
DF80
E700
7E00
3800
ENDCHAR
STARTCHAR macron
ENCODING 175
SWIDTH 600 0
DWIDTH 8 0
BBX 8 5 0 9
BITMAP
3F
5F
C1
FE
FC
ENDCHAR
STARTCHAR degree
ENCODING 176
SWIDTH 583 0
DWIDTH 8 0
BBX 8 8 0 3
BITMAP
3F
4D
5F
DF
D3
CD
FE
7C
ENDCHAR
STARTCHAR plusminus
ENCODING 177
SWIDTH 834 0
DWIDTH 12 0
BBX 10 13 1 -2
BITMAP
0F00
1100
3500
35C0
4440
DFC0
C440
F580
31C0
5FC0
C040
FFC0
FF00
ENDCHAR
STARTCHAR twosuperior
ENCODING 178
SWIDTH 585 0
DWIDTH 8 0
BBX 8 10 0 1
BITMAP
3F
7D
7B
77
3A
5F
DF
C1
FE
FC
ENDCHAR
STARTCHAR threesuperior
ENCODING 179
SWIDTH 584 0
DWIDTH 8 0
BBX 8 10 0 1
BITMAP
3E
5D
FA
2D
63
7F
5D
C1
FE
F8
ENDCHAR
STARTCHAR acute
ENCODING 180
SWIDTH 600 0
DWIDTH 8 0
BBX 8 5 0 9
BITMAP
3F
5F
C3
FE
C0
ENDCHAR
STARTCHAR mu
ENCODING 181
SWIDTH 813 0
DWIDTH 11 0
BBX 10 12 1 -3
BITMAP
71C0
8A40
96C0
96C0
96C0
96C0
90C0
9F40
90C0
8700
FE00
E000
ENDCHAR
STARTCHAR paragraph
ENCODING 182
SWIDTH 782 0
DWIDTH 11 0
BBX 10 13 0 -2
BITMAP
1FC0
2040
4FC0
D0C0
D0C0
D0C0
CFC0
E4C0
F5C0
75C0
3140
3FC0
3B80
ENDCHAR
STARTCHAR periodcentered
ENCODING 183
SWIDTH 464 0
DWIDTH 7 0
BBX 6 6 0 1
BITMAP
3C
44
CC
C4
FC
F8
ENDCHAR
STARTCHAR cedilla
ENCODING 184
SWIDTH 600 0
DWIDTH 8 0
BBX 6 6 1 -4
BITMAP
18
2C
6C
44
78
E0
ENDCHAR
STARTCHAR onesuperior
ENCODING 185
SWIDTH 557 0
DWIDTH 8 0
BBX 8 10 0 1
BITMAP
3E
5A
7A
7A
3A
3A
5F
C1
FE
FC
ENDCHAR
STARTCHAR ordmasculine
ENCODING 186
SWIDTH 625 0
DWIDTH 9 0
BBX 9 13 0 -2
BITMAP
1F00
2E80
5580
D580
D580
D580
D180
CE80
E100
7F00
5E80
FF00
FE00
ENDCHAR
STARTCHAR guillemotright
ENCODING 187
SWIDTH 912 0
DWIDTH 13 0
BBX 12 9 0 0
BITMAP
39C0
4630
CD70
E530
7DF0
2970
4210
FFE0
E380
ENDCHAR
STARTCHAR onequarter
ENCODING 188
SWIDTH 1303 0
DWIDTH 18 0
BBX 18 13 0 -2
BITMAP
3E7000
5A9000
4BB000
7BBDC0
3BD6C0
3B56C0
3B56C0
5F54C0
FF53C0
FF7EC0
033E40
03C380
038300
ENDCHAR
STARTCHAR onehalf
ENCODING 189
SWIDTH 1260 0
DWIDTH 18 0
BBX 17 13 0 -2
BITMAP
3E7000
5A9000
4BB000
7BBF00
3BD680
3B5180
3B5F80
5F5680
FF5900
FF7B80
033780
03FF80
03BF00
ENDCHAR
STARTCHAR threequarters
ENCODING 190
SWIDTH 1313 0
DWIDTH 18 0
BBX 18 13 0 -2
BITMAP
3E7800
5D9000
C2B000
FBACC0
2EB7C0
7ED7C0
42D7C0
5D55C0
FF53C0
FF5FC0
033F40
03C3C0
038380
ENDCHAR
STARTCHAR questiondown
ENCODING 191
SWIDTH 756 0
DWIDTH 11 0
BBX 10 13 0 -2
BITMAP
07C0
0840
0940
0840
0F80
3080
4F40
5080
D7C0
CFC0
E040
7FC0
7F80
ENDCHAR
STARTCHAR Agrave
ENCODING 192
SWIDTH 830 0
DWIDTH 12 0
BBX 11 16 0 -2
BITMAP
1F80
3340
3040
3F80
1040
1740
2AA0
2AA0
6B60
5060
4FE0
D060
D760
C720
FBE0
F3C0
ENDCHAR
STARTCHAR Aacute
ENCODING 193
SWIDTH 830 0
DWIDTH 12 0
BBX 11 16 0 -2
BITMAP
0FC0
1040
3040
3FC0
3040
1720
2AA0
2AA0
6B60
5060
4FE0
D060
D760
C720
FBE0
F3C0
ENDCHAR
STARTCHAR Acircumflex
ENCODING 194
SWIDTH 830 0
DWIDTH 12 0
BBX 11 17 0 -2
BITMAP
0700
18C0
1240
3FC0
3040
3040
1720
2AA0
2AA0
6B60
5060
4FE0
D060
D760
C720
FBE0
F3C0
ENDCHAR
STARTCHAR Atilde
ENCODING 195
SWIDTH 830 0
DWIDTH 12 0
BBX 11 16 0 -2
BITMAP
1FC0
1740
3040
3F80
3040
1740
2AA0
2AA0
6B60
5060
4FE0
D060
D760
C720
FBE0
F3C0
ENDCHAR
STARTCHAR Adieresis
ENCODING 196
SWIDTH 830 0
DWIDTH 12 0
BBX 11 16 0 -2
BITMAP
1DC0
2AC0
2240
7F80
7040
1740
2AA0
2AA0
6B60
5060
4FE0
D060
D760
C720
FBE0
F3C0
ENDCHAR
STARTCHAR Aring
ENCODING 197
SWIDTH 830 0
DWIDTH 12 0
BBX 11 17 0 -2
BITMAP
0B80
1740
18C0
3BC0
3AC0
3740
3740
2AA0
2AA0
6B60
5060
4FE0
D060
D760
C720
FBE0
F3C0
ENDCHAR
STARTCHAR AE
ENCODING 198
SWIDTH 1105 0
DWIDTH 15 0
BBX 15 13 0 -2
BITMAP
1FFE
1002
27FE
2B5E
6B5C
4B7C
5044
CF9C
D05E
D77E
C702
FBFE
F3FC
ENDCHAR
STARTCHAR Ccedilla
ENCODING 199
SWIDTH 728 0
DWIDTH 10 0
BBX 10 15 0 -4
BITMAP
1FC0
27C0
4840
4B80
CB00
CC00
CC00
CBC0
C840
E7C0
7240
7A80
3900
1E00
1C00
ENDCHAR
STARTCHAR Egrave
ENCODING 200
SWIDTH 754 0
DWIDTH 11 0
BBX 9 16 1 -2
BITMAP
7F00
C080
E080
DF80
4080
DF80
D700
D100
DE80
D080
D700
D780
DF80
C080
FF80
FF00
ENDCHAR
STARTCHAR Eacute
ENCODING 201
SWIDTH 754 0
DWIDTH 11 0
BBX 9 16 1 -2
BITMAP
1F80
6080
6080
5F80
C080
DF80
D700
D100
DE80
D080
D700
D780
DF80
C080
FF80
FF00
ENDCHAR
STARTCHAR Ecircumflex
ENCODING 202
SWIDTH 754 0
DWIDTH 11 0
BBX 9 17 1 -2
BITMAP
0E00
3180
4480
FF80
C080
C080
DF80
D700
D100
DE80
D080
D700
D780
DF80
C080
FF80
FF00
ENDCHAR
STARTCHAR Edieresis
ENCODING 203
SWIDTH 754 0
DWIDTH 11 0
BBX 9 16 1 -2
BITMAP
3B80
5580
C480
FF80
C080
DF80
D700
D100
DE80
D080
D700
D780
DF80
C080
FF80
FF00
ENDCHAR
STARTCHAR Igrave
ENCODING 204
SWIDTH 705 0
DWIDTH 10 0
BBX 9 16 0 -2
BITMAP
3F80
6080
6080
5F80
4080
CF80
E480
F500
3500
3500
3500
3580
4F80
C080
FF80
FF00
ENDCHAR
STARTCHAR Iacute
ENCODING 205
SWIDTH 705 0
DWIDTH 10 0
BBX 9 16 0 -2
BITMAP
1F80
2080
6080
5F80
4080
4F80
E480
F500
3500
3500
3500
3580
4F80
C080
FF80
FF00
ENDCHAR
STARTCHAR Icircumflex
ENCODING 206
SWIDTH 705 0
DWIDTH 10 0
BBX 9 17 0 -2
BITMAP
0E00
1180
2480
7F80
4080
4080
4F80
E480
F500
3500
3500
3500
3580
4F80
C080
FF80
FF00
ENDCHAR
STARTCHAR Idieresis
ENCODING 207
SWIDTH 705 0
DWIDTH 10 0
BBX 9 16 0 -2
BITMAP
1B80
2D80
6480
7F80
4080
4F80
E480
F500
3500
3500
3500
3580
4F80
C080
FF80
FF00
ENDCHAR
STARTCHAR Eth
ENCODING 208
SWIDTH 856 0
DWIDTH 12 0
BBX 12 13 0 -2
BITMAP
3FE0
6010
6F90
6B50
4950
4950
DD50
EB50
E850
6F90
6020
7FC0
7F00
ENDCHAR
STARTCHAR Ntilde
ENCODING 209
SWIDTH 853 0
DWIDTH 12 0
BBX 10 16 1 -2
BITMAP
1F80
2F80
6080
5F40
C640
D2C0
DAC0
D4C0
D2C0
D9C0
D5C0
D6C0
D6C0
C640
FFC0
E780
ENDCHAR
STARTCHAR Ograve
ENCODING 210
SWIDTH 837 0
DWIDTH 12 0
BBX 11 16 0 -2
BITMAP
1FC0
30C0
3040
3FC0
27A0
4860
4B60
CB60
CB60
CB60
CB60
C860
E7A0
6020
7FC0
3F00
ENDCHAR
STARTCHAR Oacute
ENCODING 211
SWIDTH 837 0
DWIDTH 12 0
BBX 11 16 0 -2
BITMAP
0FC0
1440
3040
3FC0
27A0
4860
4B60
CB60
CB60
CB60
CB60
C860
E7A0
6020
7FC0
3F00
ENDCHAR
STARTCHAR Ocircumflex
ENCODING 212
SWIDTH 837 0
DWIDTH 12 0
BBX 11 17 0 -2
BITMAP
0200
1FC0
1040
3FC0
3040
27A0
4860
4B60
CB60
CB60
CB60
CB60
C860
E7A0
6020
7FC0
3F00
ENDCHAR
STARTCHAR Otilde
ENCODING 213
SWIDTH 837 0
DWIDTH 12 0
BBX 11 16 0 -2
BITMAP
1FC0
1740
3440
3BC0
27A0
4860
4B60
CB60
CB60
CB60
CB60
C860
E7A0
6020
7FC0
3F00
ENDCHAR
STARTCHAR Odieresis
ENCODING 214
SWIDTH 837 0
DWIDTH 12 0
BBX 11 17 0 -2
BITMAP
0DC0
1220
2AA0
2220
3DC0
27A0
6860
4B60
CB60
CB60
CB60
CB60
C860
E7A0
6020
7FC0
3F00
ENDCHAR
STARTCHAR multiply
ENCODING 215
SWIDTH 834 0
DWIDTH 12 0
BBX 10 10 1 -1
BITMAP
3980
4640
5140
EA80
7500
2A80
4540
C640
FF80
6600
ENDCHAR
STARTCHAR Oslash
ENCODING 216
SWIDTH 837 0
DWIDTH 12 0
BBX 11 15 0 -3
BITMAP
00C0
1F20
27A0
48E0
5760
D560
D6E0
D560
D560
CD60
E7A0
7820
63C0
7F00
7000
ENDCHAR
STARTCHAR Ugrave
ENCODING 217
SWIDTH 846 0
DWIDTH 12 0
BBX 10 16 1 -2
BITMAP
3F80
6080
6080
5F40
DAC0
D6C0
D6C0
D6C0
D6C0
D6C0
D6C0
D0C0
CF40
E040
FF80
7E00
ENDCHAR
STARTCHAR Uacute
ENCODING 218
SWIDTH 846 0
DWIDTH 12 0
BBX 10 16 1 -2
BITMAP
1F80
2080
6080
5F40
DAC0
D6C0
D6C0
D6C0
D6C0
D6C0
D6C0
D0C0
CF40
E040
FF80
7E00
ENDCHAR
STARTCHAR Ucircumflex
ENCODING 219
SWIDTH 846 0
DWIDTH 12 0
BBX 10 17 1 -2
BITMAP
0400
3F80
2080
7F80
4640
DAC0
D6C0
D6C0
D6C0
D6C0
D6C0
D6C0
D0C0
CF40
E040
FF80
7E00
ENDCHAR
STARTCHAR Udieresis
ENCODING 220
SWIDTH 846 0
DWIDTH 12 0
BBX 10 17 1 -2
BITMAP
1B80
2440
7540
6440
7FC0
C640
D6C0
D6C0
D6C0
D6C0
D6C0
D6C0
D0C0
CF40
C040
FF80
7E00
ENDCHAR
STARTCHAR Yacute
ENCODING 221
SWIDTH 805 0
DWIDTH 11 0
BBX 11 16 0 -2
BITMAP
0FC0
3040
3040
2FA0
4720
D760
D760
D260
EAA0
E540
7240
3A80
3A80
1880
1F00
1E00
ENDCHAR
STARTCHAR Thorn
ENCODING 222
SWIDTH 792 0
DWIDTH 11 0
BBX 10 13 1 -2
BITMAP
7800
C800
D780
DF40
D0C0
D6C0
D6C0
D0C0
DF40
D080
C700
FC00
E000
ENDCHAR
STARTCHAR germandbls
ENCODING 223
SWIDTH 859 0
DWIDTH 12 0
BBX 11 13 1 -2
BITMAP
7F80
C040
DE40
D140
D540
D5A0
D460
D760
D460
D5A0
C420
FFC0
EF00
ENDCHAR
STARTCHAR agrave
ENCODING 224
SWIDTH 830 0
DWIDTH 12 0
BBX 11 16 0 -2
BITMAP
1F80
3340
3040
3F80
1040
1740
2AA0
2AA0
6B60
5060
4FE0
D060
D760
C720
FBE0
F3C0
ENDCHAR
STARTCHAR aacute
ENCODING 225
SWIDTH 830 0
DWIDTH 12 0
BBX 11 16 0 -2
BITMAP
0FC0
1040
3040
3FC0
3040
1720
2AA0
2AA0
6B60
5060
4FE0
D060
D760
C720
FBE0
F3C0
ENDCHAR
STARTCHAR acircumflex
ENCODING 226
SWIDTH 830 0
DWIDTH 12 0
BBX 11 17 0 -2
BITMAP
0700
18C0
1240
3FC0
3040
3040
1720
2AA0
2AA0
6B60
5060
4FE0
D060
D760
C720
FBE0
F3C0
ENDCHAR
STARTCHAR atilde
ENCODING 227
SWIDTH 830 0
DWIDTH 12 0
BBX 11 16 0 -2
BITMAP
1FC0
1740
3040
3F80
3040
1740
2AA0
2AA0
6B60
5060
4FE0
D060
D760
C720
FBE0
F3C0
ENDCHAR
STARTCHAR adieresis
ENCODING 228
SWIDTH 830 0
DWIDTH 12 0
BBX 11 16 0 -2
BITMAP
1DC0
2AC0
2240
7F80
7040
1740
2AA0
2AA0
6B60
5060
4FE0
D060
D760
C720
FBE0
F3C0
ENDCHAR
STARTCHAR aring
ENCODING 229
SWIDTH 830 0
DWIDTH 12 0
BBX 11 17 0 -2
BITMAP
0B80
1740
18C0
3BC0
3AC0
3740
3740
2AA0
2AA0
6B60
5060
4FE0
D060
D760
C720
FBE0
F3C0
ENDCHAR
STARTCHAR ae
ENCODING 230
SWIDTH 1105 0
DWIDTH 15 0
BBX 15 13 0 -2
BITMAP
1FFE
1002
27FE
2B5E
6B5C
4B7C
5044
CF9C
D05E
D77E
C702
FBFE
F3FC
ENDCHAR
STARTCHAR ccedilla
ENCODING 231
SWIDTH 728 0
DWIDTH 10 0
BBX 10 15 0 -4
BITMAP
1FC0
27C0
4840
4B80
CB00
CC00
CC00
CBC0
C840
E7C0
7240
7A80
3900
1E00
1C00
ENDCHAR
STARTCHAR egrave
ENCODING 232
SWIDTH 754 0
DWIDTH 11 0
BBX 9 16 1 -2
BITMAP
7F00
C080
E080
DF80
4080
DF80
D700
D100
DE80
D080
D700
D780
DF80
C080
FF80
FF00
ENDCHAR
STARTCHAR eacute
ENCODING 233
SWIDTH 754 0
DWIDTH 11 0
BBX 9 16 1 -2
BITMAP
1F80
6080
6080
5F80
C080
DF80
D700
D100
DE80
D080
D700
D780
DF80
C080
FF80
FF00
ENDCHAR
STARTCHAR ecircumflex
ENCODING 234
SWIDTH 754 0
DWIDTH 11 0
BBX 9 17 1 -2
BITMAP
0E00
3180
4480
FF80
C080
C080
DF80
D700
D100
DE80
D080
D700
D780
DF80
C080
FF80
FF00
ENDCHAR
STARTCHAR edieresis
ENCODING 235
SWIDTH 754 0
DWIDTH 11 0
BBX 9 16 1 -2
BITMAP
3B80
5580
C480
FF80
C080
DF80
D700
D100
DE80
D080
D700
D780
DF80
C080
FF80
FF00
ENDCHAR
STARTCHAR igrave
ENCODING 236
SWIDTH 705 0
DWIDTH 10 0
BBX 9 16 0 -2
BITMAP
3F80
6080
6080
5F80
4080
CF80
E480
F500
3500
3500
3500
3580
4F80
C080
FF80
FF00
ENDCHAR
STARTCHAR iacute
ENCODING 237
SWIDTH 705 0
DWIDTH 10 0
BBX 9 16 0 -2
BITMAP
1F80
2080
6080
5F80
4080
4F80
E480
F500
3500
3500
3500
3580
4F80
C080
FF80
FF00
ENDCHAR
STARTCHAR icircumflex
ENCODING 238
SWIDTH 705 0
DWIDTH 10 0
BBX 9 17 0 -2
BITMAP
0E00
1180
2480
7F80
4080
4080
4F80
E480
F500
3500
3500
3500
3580
4F80
C080
FF80
FF00
ENDCHAR
STARTCHAR idieresis
ENCODING 239
SWIDTH 705 0
DWIDTH 10 0
BBX 9 16 0 -2
BITMAP
1B80
2D80
6480
7F80
4080
4F80
E480
F500
3500
3500
3500
3580
4F80
C080
FF80
FF00
ENDCHAR
STARTCHAR eth
ENCODING 240
SWIDTH 856 0
DWIDTH 12 0
BBX 12 13 0 -2
BITMAP
3FE0
6010
6F90
6B50
4950
4950
DD50
EB50
E850
6F90
6020
7FC0
7F00
ENDCHAR
STARTCHAR ntilde
ENCODING 241
SWIDTH 853 0
DWIDTH 12 0
BBX 10 16 1 -2
BITMAP
1F80
2F80
6080
5F40
C640
D2C0
DAC0
D4C0
D2C0
D9C0
D5C0
D6C0
D6C0
C640
FFC0
E780
ENDCHAR
STARTCHAR ograve
ENCODING 242
SWIDTH 837 0
DWIDTH 12 0
BBX 11 16 0 -2
BITMAP
1FC0
30C0
3040
3FC0
27A0
4860
4B60
CB60
CB60
CB60
CB60
C860
E7A0
6020
7FC0
3F00
ENDCHAR
STARTCHAR oacute
ENCODING 243
SWIDTH 837 0
DWIDTH 12 0
BBX 11 16 0 -2
BITMAP
0FC0
1440
3040
3FC0
27A0
4860
4B60
CB60
CB60
CB60
CB60
C860
E7A0
6020
7FC0
3F00
ENDCHAR
STARTCHAR ocircumflex
ENCODING 244
SWIDTH 837 0
DWIDTH 12 0
BBX 11 17 0 -2
BITMAP
0200
1FC0
1040
3FC0
3040
27A0
4860
4B60
CB60
CB60
CB60
CB60
C860
E7A0
6020
7FC0
3F00
ENDCHAR
STARTCHAR otilde
ENCODING 245
SWIDTH 837 0
DWIDTH 12 0
BBX 11 16 0 -2
BITMAP
1FC0
1740
3440
3BC0
27A0
4860
4B60
CB60
CB60
CB60
CB60
C860
E7A0
6020
7FC0
3F00
ENDCHAR
STARTCHAR odieresis
ENCODING 246
SWIDTH 837 0
DWIDTH 12 0
BBX 11 17 0 -2
BITMAP
0DC0
1220
2AA0
2220
3DC0
27A0
6860
4B60
CB60
CB60
CB60
CB60
C860
E7A0
6020
7FC0
3F00
ENDCHAR
STARTCHAR divide
ENCODING 247
SWIDTH 834 0
DWIDTH 12 0
BBX 10 12 1 -1
BITMAP
0E00
1100
3500
3100
3FC0
5FC0
C040
FF80
F500
3100
3E00
3C00
ENDCHAR
STARTCHAR oslash
ENCODING 248
SWIDTH 837 0
DWIDTH 12 0
BBX 11 15 0 -3
BITMAP
00C0
1F20
27A0
48E0
5760
D560
D6E0
D560
D560
CD60
E7A0
7820
63C0
7F00
7000
ENDCHAR
STARTCHAR ugrave
ENCODING 249
SWIDTH 846 0
DWIDTH 12 0
BBX 10 16 1 -2
BITMAP
3F80
6080
6080
5F40
DAC0
D6C0
D6C0
D6C0
D6C0
D6C0
D6C0
D0C0
CF40
E040
FF80
7E00
ENDCHAR
STARTCHAR uacute
ENCODING 250
SWIDTH 846 0
DWIDTH 12 0
BBX 10 16 1 -2
BITMAP
1F80
2080
6080
5F40
DAC0
D6C0
D6C0
D6C0
D6C0
D6C0
D6C0
D0C0
CF40
E040
FF80
7E00
ENDCHAR
STARTCHAR ucircumflex
ENCODING 251
SWIDTH 846 0
DWIDTH 12 0
BBX 10 17 1 -2
BITMAP
0400
3F80
2080
7F80
4640
DAC0
D6C0
D6C0
D6C0
D6C0
D6C0
D6C0
D0C0
CF40
E040
FF80
7E00
ENDCHAR
STARTCHAR udieresis
ENCODING 252
SWIDTH 846 0
DWIDTH 12 0
BBX 10 17 1 -2
BITMAP
1B80
2440
7540
6440
7FC0
C640
D6C0
D6C0
D6C0
D6C0
D6C0
D6C0
D0C0
CF40
C040
FF80
7E00
ENDCHAR
STARTCHAR yacute
ENCODING 253
SWIDTH 805 0
DWIDTH 11 0
BBX 11 16 0 -2
BITMAP
0FC0
3040
3040
2FA0
4720
D760
D760
D260
EAA0
E540
7240
3A80
3A80
1880
1F00
1E00
ENDCHAR
STARTCHAR thorn
ENCODING 254
SWIDTH 792 0
DWIDTH 11 0
BBX 10 13 1 -2
BITMAP
7800
C800
D780
DF40
D0C0
D6C0
D6C0
D0C0
DF40
D080
C700
FC00
E000
ENDCHAR
STARTCHAR ydieresis
ENCODING 255
SWIDTH 805 0
DWIDTH 11 0
BBX 11 16 0 -2
BITMAP
1DC0
2AC0
6240
7FE0
4720
D760
D760
D260
EAA0
E540
7240
3A80
3A80
1880
1F00
1E00
ENDCHAR
STARTCHAR Amacron
ENCODING 256
SWIDTH 830 0
DWIDTH 12 0
BBX 11 16 0 -2
BITMAP
0FC0
1740
3040
3F80
3040
1740
2AA0
2AA0
6B60
5060
4FE0
D060
D760
C720
FBE0
F3C0
ENDCHAR
STARTCHAR amacron
ENCODING 257
SWIDTH 830 0
DWIDTH 12 0
BBX 11 16 0 -2
BITMAP
0FC0
1740
3040
3F80
3040
1740
2AA0
2AA0
6B60
5060
4FE0
D060
D760
C720
FBE0
F3C0
ENDCHAR
STARTCHAR Abreve
ENCODING 258
SWIDTH 830 0
DWIDTH 12 0
BBX 11 17 0 -2
BITMAP
0CC0
1340
38C0
3780
3F80
3040
1740
2AA0
2AA0
6B60
5060
4FE0
D060
D760
C720
FBE0
F3C0
ENDCHAR
STARTCHAR abreve
ENCODING 259
SWIDTH 830 0
DWIDTH 12 0
BBX 11 17 0 -2
BITMAP
0CC0
1340
38C0
3780
3F80
3040
1740
2AA0
2AA0
6B60
5060
4FE0
D060
D760
C720
FBE0
F3C0
ENDCHAR
STARTCHAR Aogonek
ENCODING 260
SWIDTH 830 0
DWIDTH 12 0
BBX 11 16 0 -5
BITMAP
0FC0
1040
1720
2AA0
2AA0
6B60
5060
4FE0
D060
D760
C760
FBA0
F3E0
0320
03C0
0380
ENDCHAR
STARTCHAR aogonek
ENCODING 261
SWIDTH 830 0
DWIDTH 12 0
BBX 11 16 0 -5
BITMAP
0FC0
1040
1720
2AA0
2AA0
6B60
5060
4FE0
D060
D760
C760
FBA0
F3E0
0320
03C0
0380
ENDCHAR
STARTCHAR Cacute
ENCODING 262
SWIDTH 728 0
DWIDTH 10 0
BBX 10 16 0 -2
BITMAP
0FC0
1040
3040
3FC0
2040
27C0
4B80
4B00
CC00
CC00
CC00
CBC0
E7C0
6040
7FC0
3F00
ENDCHAR
STARTCHAR cacute
ENCODING 263
SWIDTH 728 0
DWIDTH 10 0
BBX 10 16 0 -2
BITMAP
0FC0
1040
3040
3FC0
2040
27C0
4B80
4B00
CC00
CC00
CC00
CBC0
E7C0
6040
7FC0
3F00
ENDCHAR
STARTCHAR Ccircumflex
ENCODING 264
SWIDTH 728 0
DWIDTH 10 0
BBX 10 17 0 -2
BITMAP
0700
18C0
1240
3F80
3040
2040
27C0
4B80
4B00
CC00
CC00
CC00
CBC0
E7C0
6040
7FC0
3F00
ENDCHAR
STARTCHAR ccircumflex
ENCODING 265
SWIDTH 728 0
DWIDTH 10 0
BBX 10 17 0 -2
BITMAP
0700
18C0
1240
3F80
3040
2040
27C0
4B80
4B00
CC00
CC00
CC00
CBC0
E7C0
6040
7FC0
3F00
ENDCHAR
STARTCHAR Cdotaccent
ENCODING 266
SWIDTH 728 0
DWIDTH 10 0
BBX 10 16 0 -2
BITMAP
0700
0A80
1880
1740
2040
27C0
4B80
4B00
CC00
CC00
CC00
CBC0
E7C0
6040
7FC0
3F00
ENDCHAR
STARTCHAR cdotaccent
ENCODING 267
SWIDTH 728 0
DWIDTH 10 0
BBX 10 16 0 -2
BITMAP
0700
0A80
1880
1740
2040
27C0
4B80
4B00
CC00
CC00
CC00
CBC0
E7C0
6040
7FC0
3F00
ENDCHAR
STARTCHAR Ccaron
ENCODING 268
SWIDTH 728 0
DWIDTH 10 0
BBX 10 17 0 -2
BITMAP
1880
1740
3740
3D80
3240
2040
27C0
4B80
4B00
CC00
CC00
CC00
CBC0
E7C0
6040
7FC0
3F00
ENDCHAR
STARTCHAR ccaron
ENCODING 269
SWIDTH 728 0
DWIDTH 10 0
BBX 10 17 0 -2
BITMAP
1880
1740
3740
3D80
3240
2040
27C0
4B80
4B00
CC00
CC00
CC00
CBC0
E7C0
6040
7FC0
3F00
ENDCHAR
STARTCHAR Dcaron
ENCODING 270
SWIDTH 846 0
DWIDTH 12 0
BBX 10 17 1 -2
BITMAP
1000
2F80
6E80
7B00
44C0
C040
DF40
D0C0
D6C0
D6C0
D6C0
D6C0
D6C0
DF40
C040
FF80
FE00
ENDCHAR
STARTCHAR dcaron
ENCODING 271
SWIDTH 846 0
DWIDTH 12 0
BBX 10 17 1 -2
BITMAP
1000
2F80
6E80
7B00
44C0
C040
DF40
D0C0
D6C0
D6C0
D6C0
D6C0
D6C0
DF40
C040
FF80
FE00
ENDCHAR
STARTCHAR Dcroat
ENCODING 272
SWIDTH 856 0
DWIDTH 12 0
BBX 12 13 0 -2
BITMAP
3FE0
6010
6F90
6B50
4950
4950
DD50
EB50
E850
6F90
6020
7FC0
7F00
ENDCHAR
STARTCHAR dcroat
ENCODING 273
SWIDTH 856 0
DWIDTH 12 0
BBX 12 13 0 -2
BITMAP
3FE0
6010
6F90
6B50
4950
4950
DD50
EB50
E850
6F90
6020
7FC0
7F00
ENDCHAR
STARTCHAR Emacron
ENCODING 274
SWIDTH 754 0
DWIDTH 11 0
BBX 9 16 1 -2
BITMAP
3F00
4E80
C080
FF80
C080
DF80
D700
D100
DE80
D080
D700
D780
DF80
C080
FF80
FF00
ENDCHAR
STARTCHAR emacron
ENCODING 275
SWIDTH 754 0
DWIDTH 11 0
BBX 9 16 1 -2
BITMAP
3F00
4E80
C080
FF80
C080
DF80
D700
D100
DE80
D080
D700
D780
DF80
C080
FF80
FF00
ENDCHAR
STARTCHAR Ebreve
ENCODING 276
SWIDTH 754 0
DWIDTH 11 0
BBX 9 17 1 -2
BITMAP
3B00
4480
7180
FF00
4A80
4080
DF80
D700
D100
DE80
D080
D700
D780
DF80
C080
FF80
FF00
ENDCHAR
STARTCHAR ebreve
ENCODING 277
SWIDTH 754 0
DWIDTH 11 0
BBX 9 17 1 -2
BITMAP
3B00
4480
7180
FF00
4A80
4080
DF80
D700
D100
DE80
D080
D700
D780
DF80
C080
FF80
FF00
ENDCHAR
STARTCHAR Edotaccent
ENCODING 278
SWIDTH 754 0
DWIDTH 11 0
BBX 9 16 1 -2
BITMAP
0E00
3600
3200
4D80
C080
DF80
D700
D100
DE80
D080
D700
D780
DF80
C080
FF80
FF00
ENDCHAR
STARTCHAR edotaccent
ENCODING 279
SWIDTH 754 0
DWIDTH 11 0
BBX 9 16 1 -2
BITMAP
0E00
3600
3200
4D80
C080
DF80
D700
D100
DE80
D080
D700
D780
DF80
C080
FF80
FF00
ENDCHAR
STARTCHAR Eogonek
ENCODING 280
SWIDTH 754 0
DWIDTH 11 0
BBX 9 16 1 -5
BITMAP
7F80
C080
DF80
D700
D100
DE80
D080
D700
D780
DF80
C280
FE80
FF80
0C80
0F00
0E00
ENDCHAR
STARTCHAR eogonek
ENCODING 281
SWIDTH 754 0
DWIDTH 11 0
BBX 9 16 1 -5
BITMAP
7F80
C080
DF80
D700
D100
DE80
D080
D700
D780
DF80
C280
FE80
FF80
0C80
0F00
0E00
ENDCHAR
STARTCHAR Ecaron
ENCODING 282
SWIDTH 754 0
DWIDTH 11 0
BBX 9 17 1 -2
BITMAP
3100
4E80
4E80
7B00
4480
C080
DF80
D700
D100
DE80
D080
D700
D780
DF80
C080
FF80
FF00
ENDCHAR
STARTCHAR ecaron
ENCODING 283
SWIDTH 754 0
DWIDTH 11 0
BBX 9 17 1 -2
BITMAP
3100
4E80
4E80
7B00
4480
C080
DF80
D700
D100
DE80
D080
D700
D780
DF80
C080
FF80
FF00
ENDCHAR
STARTCHAR Gcircumflex
ENCODING 284
SWIDTH 808 0
DWIDTH 11 0
BBX 11 17 0 -2
BITMAP
0780
0840
1340
3FC0
3040
2040
27C0
4B80
4B00
CCE0
CB20
CB60
C860
E7A0
6020
7FC0
3F80
ENDCHAR
STARTCHAR gcircumflex
ENCODING 285
SWIDTH 808 0
DWIDTH 11 0
BBX 11 17 0 -2
BITMAP
0780
0840
1340
3FC0
3040
2040
27C0
4B80
4B00
CCE0
CB20
CB60
C860
E7A0
6020
7FC0
3F80
ENDCHAR
STARTCHAR Gbreve
ENCODING 286
SWIDTH 808 0
DWIDTH 11 0
BBX 11 17 0 -2
BITMAP
0CC0
1340
38C0
3F40
34C0
2040
27C0
4B80
4B00
CCE0
CB20
CB60
C860
E7A0
6020
7FC0
3F80
ENDCHAR
STARTCHAR gbreve
ENCODING 287
SWIDTH 808 0
DWIDTH 11 0
BBX 11 17 0 -2
BITMAP
0CC0
1340
38C0
3F40
34C0
2040
27C0
4B80
4B00
CCE0
CB20
CB60
C860
E7A0
6020
7FC0
3F80
ENDCHAR
STARTCHAR Gdotaccent
ENCODING 288
SWIDTH 808 0
DWIDTH 11 0
BBX 11 16 0 -2
BITMAP
0700
0A80
1880
1740
2040
27C0
4B80
4B00
CCE0
CB20
CB60
C860
E7A0
6020
7FC0
3F80
ENDCHAR
STARTCHAR gdotaccent
ENCODING 289
SWIDTH 808 0
DWIDTH 11 0
BBX 11 16 0 -2
BITMAP
0700
0A80
1880
1740
2040
27C0
4B80
4B00
CCE0
CB20
CB60
C860
E7A0
6020
7FC0
3F80
ENDCHAR
STARTCHAR Gcommaaccent
ENCODING 290
SWIDTH 808 0
DWIDTH 11 0
BBX 11 18 0 -7
BITMAP
1FC0
27C0
4840
4B80
CB00
CCE0
CB20
CB60
C860
E7A0
6020
7FC0
3B80
1880
1F80
1A80
0F00
1C00
ENDCHAR
STARTCHAR gcommaaccent
ENCODING 291
SWIDTH 808 0
DWIDTH 11 0
BBX 11 18 0 -7
BITMAP
1FC0
27C0
4840
4B80
CB00
CCE0
CB20
CB60
C860
E7A0
6020
7FC0
3B80
1880
1F80
1A80
0F00
1C00
ENDCHAR
STARTCHAR Hcircumflex
ENCODING 292
SWIDTH 859 0
DWIDTH 12 0
BBX 10 17 1 -2
BITMAP
0E00
1180
2480
6F80
5640
CA40
D6C0
D6C0
D6C0
DFC0
D0C0
D6C0
D6C0
D6C0
C640
FFC0
E780
ENDCHAR
STARTCHAR hcircumflex
ENCODING 293
SWIDTH 859 0
DWIDTH 12 0
BBX 10 17 1 -2
BITMAP
0E00
1180
2480
6F80
5640
CA40
D6C0
D6C0
D6C0
DFC0
D0C0
D6C0
D6C0
D6C0
C640
FFC0
E780
ENDCHAR
STARTCHAR Hbar
ENCODING 294
SWIDTH 879 0
DWIDTH 12 0
BBX 12 13 0 -2
BITMAP
3CF0
6510
6B50
5FF0
C850
EB50
E850
6FD0
6850
6B50
6310
7FE0
73C0
ENDCHAR
STARTCHAR hbar
ENCODING 295
SWIDTH 879 0
DWIDTH 12 0
BBX 12 13 0 -2
BITMAP
3CF0
6510
6B50
5FF0
C850
EB50
E850
6FD0
6850
6B50
6310
7FE0
73C0
ENDCHAR
STARTCHAR Itilde
ENCODING 296
SWIDTH 705 0
DWIDTH 10 0
BBX 9 16 0 -2
BITMAP
1F80
2E80
6C80
5380
4080
4F80
E480
F500
3500
3500
3500
3580
4F80
C080
FF80
FF00
ENDCHAR
STARTCHAR itilde
ENCODING 297
SWIDTH 705 0
DWIDTH 10 0
BBX 9 16 0 -2
BITMAP
1F80
2E80
6C80
5380
4080
4F80
E480
F500
3500
3500
3500
3580
4F80
C080
FF80
FF00
ENDCHAR
STARTCHAR Imacron
ENCODING 298
SWIDTH 705 0
DWIDTH 10 0
BBX 9 16 0 -2
BITMAP
1F80
2F80
6080
7F80
4080
4F80
E480
F500
3500
3500
3500
3580
4F80
C080
FF80
FF00
ENDCHAR
STARTCHAR imacron
ENCODING 299
SWIDTH 705 0
DWIDTH 10 0
BBX 9 16 0 -2
BITMAP
1F80
2F80
6080
7F80
4080
4F80
E480
F500
3500
3500
3500
3580
4F80
C080
FF80
FF00
ENDCHAR
STARTCHAR Ibreve
ENCODING 300
SWIDTH 705 0
DWIDTH 10 0
BBX 9 17 0 -2
BITMAP
1980
2680
7180
7E80
4980
4080
CF80
E480
F500
3500
3500
3500
3580
4F80
C080
FF80
FF00
ENDCHAR
STARTCHAR ibreve
ENCODING 301
SWIDTH 705 0
DWIDTH 10 0
BBX 9 17 0 -2
BITMAP
1980
2680
7180
7E80
4980
4080
CF80
E480
F500
3500
3500
3500
3580
4F80
C080
FF80
FF00
ENDCHAR
STARTCHAR Iogonek
ENCODING 302
SWIDTH 705 0
DWIDTH 10 0
BBX 9 16 0 -5
BITMAP
3F80
4080
CF80
E480
F500
3500
3500
3500
3580
4F80
C180
FD80
FD80
0C80
0F80
0F00
ENDCHAR
STARTCHAR iogonek
ENCODING 303
SWIDTH 705 0
DWIDTH 10 0
BBX 9 16 0 -5
BITMAP
3F80
4080
CF80
E480
F500
3500
3500
3500
3580
4F80
C180
FD80
FD80
0C80
0F80
0F00
ENDCHAR
STARTCHAR Idotaccent
ENCODING 304
SWIDTH 705 0
DWIDTH 10 0
BBX 9 16 0 -2
BITMAP
0E00
1500
3100
2E80
4080
CF80
E480
F500
3500
3500
3500
3580
4F80
C080
FF80
FF00
ENDCHAR
STARTCHAR dotlessi
ENCODING 305
SWIDTH 705 0
DWIDTH 10 0
BBX 9 13 0 -2
BITMAP
3F80
4080
CF80
E480
F500
3500
3500
3500
3580
4F80
C080
FF80
FF00
ENDCHAR
STARTCHAR IJ
ENCODING 306
SWIDTH 844 0
DWIDTH 12 0
BBX 10 13 1 -2
BITMAP
7BC0
CA40
D6C0
D6C0
D6C0
C6C0
CEC0
F6C0
48C0
DF40
C040
FF80
FE00
ENDCHAR
STARTCHAR ij
ENCODING 307
SWIDTH 844 0
DWIDTH 12 0
BBX 10 13 1 -2
BITMAP
7BC0
CA40
D6C0
D6C0
D6C0
C6C0
CEC0
F6C0
48C0
DF40
C040
FF80
FE00
ENDCHAR
STARTCHAR Jcircumflex
ENCODING 308
SWIDTH 788 0
DWIDTH 11 0
BBX 12 17 0 -2
BITMAP
0080
07F0
0410
0DF0
0E20
0A20
06A0
06A0
06A0
3EA0
46A0
D6A0
D0A0
CF20
E040
7F80
3E00
ENDCHAR
STARTCHAR jcircumflex
ENCODING 309
SWIDTH 788 0
DWIDTH 11 0
BBX 12 17 0 -2
BITMAP
0080
07F0
0410
0DF0
0E20
0A20
06A0
06A0
06A0
3EA0
46A0
D6A0
D0A0
CF20
E040
7F80
3E00
ENDCHAR
STARTCHAR Kcommaaccent
ENCODING 310
SWIDTH 846 0
DWIDTH 12 0
BBX 10 18 1 -7
BITMAP
7BC0
CA40
D540
D580
D240
DF40
D0C0
D6C0
D6C0
D6C0
C640
FFC0
F780
3100
3F00
3500
1E00
3800
ENDCHAR
STARTCHAR kcommaaccent
ENCODING 311
SWIDTH 846 0
DWIDTH 12 0
BBX 10 18 1 -7
BITMAP
7BC0
CA40
D540
D580
D240
DF40
D0C0
D6C0
D6C0
D6C0
C640
FFC0
F780
3100
3F00
3500
1E00
3800
ENDCHAR
STARTCHAR kgreenlandic
ENCODING 312
SWIDTH 846 0
DWIDTH 12 0
BBX 10 13 1 -2
BITMAP
7BC0
CA40
D540
D580
D240
DF40
D0C0
D6C0
D6C0
D6C0
C640
FFC0
E780
ENDCHAR
STARTCHAR Lacute
ENCODING 313
SWIDTH 795 0
DWIDTH 11 0
BBX 10 16 1 -2
BITMAP
2F00
5900
C100
FE00
C800
D800
D800
D800
D9C0
DA40
D6C0
D0C0
DF40
C040
FF80
FF00
ENDCHAR
STARTCHAR lacute
ENCODING 314
SWIDTH 795 0
DWIDTH 11 0
BBX 10 16 1 -2
BITMAP
2F00
5900
C100
FE00
C800
D800
D800
D800
D9C0
DA40
D6C0
D0C0
DF40
C040
FF80
FF00
ENDCHAR
STARTCHAR Lcommaaccent
ENCODING 315
SWIDTH 795 0
DWIDTH 11 0
BBX 10 18 1 -7
BITMAP
7800
C800
D800
D800
D800
D9C0
DA40
D6C0
D0C0
DF40
C040
FF80
F500
3200
3E00
3500
3E00
3800
ENDCHAR
STARTCHAR lcommaaccent
ENCODING 316
SWIDTH 795 0
DWIDTH 11 0
BBX 10 18 1 -7
BITMAP
7800
C800
D800
D800
D800
D9C0
DA40
D6C0
D0C0
DF40
C040
FF80
F500
3200
3E00
3500
3E00
3800
ENDCHAR
STARTCHAR Lcaron
ENCODING 317
SWIDTH 795 0
DWIDTH 11 0
BBX 10 13 1 -2
BITMAP
7BC0
C640
D540
D440
D480
D7C0
DA40
D6C0
D0C0
DF40
C040
FF80
FF00
ENDCHAR
STARTCHAR lcaron
ENCODING 318
SWIDTH 795 0
DWIDTH 11 0
BBX 10 13 1 -2
BITMAP
7BC0
C640
D540
D440
D480
D7C0
DA40
D6C0
D0C0
DF40
C040
FF80
FF00
ENDCHAR
STARTCHAR Ldot
ENCODING 319
SWIDTH 795 0
DWIDTH 11 0
BBX 10 13 1 -2
BITMAP
7800
C800
D980
DA40
D6C0
D640
D7C0
DE40
D0C0
DF40
C040
FF80
FF00
ENDCHAR
STARTCHAR ldot
ENCODING 320
SWIDTH 795 0
DWIDTH 11 0
BBX 10 13 1 -2
BITMAP
7800
C800
D980
DA40
D6C0
D640
D7C0
DE40
D0C0
DF40
C040
FF80
FF00
ENDCHAR
STARTCHAR Lslash
ENCODING 321
SWIDTH 805 0
DWIDTH 11 0
BBX 11 13 0 -2
BITMAP
3C00
6400
6C00
6A00
4900
55E0
CB20
EB60
E860
6FA0
6020
7FE0
7F80
ENDCHAR
STARTCHAR lslash
ENCODING 322
SWIDTH 805 0
DWIDTH 11 0
BBX 11 13 0 -2
BITMAP
3C00
6400
6C00
6A00
4900
55E0
CB20
EB60
E860
6FA0
6020
7FE0
7F80
ENDCHAR
STARTCHAR Nacute
ENCODING 323
SWIDTH 853 0
DWIDTH 12 0
BBX 10 16 1 -2
BITMAP
1F80
2040
6080
5F40
C640
D2C0
DAC0
D4C0
D2C0
D9C0
D5C0
D6C0
D6C0
C640
FFC0
E780
ENDCHAR
STARTCHAR nacute
ENCODING 324
SWIDTH 853 0
DWIDTH 12 0
BBX 10 16 1 -2
BITMAP
1F80
2040
6080
5F40
C640
D2C0
DAC0
D4C0
D2C0
D9C0
D5C0
D6C0
D6C0
C640
FFC0
E780
ENDCHAR
STARTCHAR Ncommaaccent
ENCODING 325
SWIDTH 853 0
DWIDTH 12 0
BBX 10 18 1 -7
BITMAP
7BC0
C640
D2C0
DAC0
D4C0
D2C0
D9C0
D5C0
D6C0
D6C0
C640
FFC0
F780
3100
3F00
3500
1E00
3800
ENDCHAR
STARTCHAR ncommaaccent
ENCODING 326
SWIDTH 853 0
DWIDTH 12 0
BBX 10 18 1 -7
BITMAP
7BC0
C640
D2C0
DAC0
D4C0
D2C0
D9C0
D5C0
D6C0
D6C0
C640
FFC0
F780
3100
3F00
3500
1E00
3800
ENDCHAR
STARTCHAR Ncaron
ENCODING 327
SWIDTH 853 0
DWIDTH 12 0
BBX 10 17 1 -2
BITMAP
1000
6F80
6E80
7100
4EC0
C640
D2C0
DAC0
D4C0
D2C0
D9C0
D5C0
D6C0
D6C0
C640
FFC0
E780
ENDCHAR
STARTCHAR ncaron
ENCODING 328
SWIDTH 853 0
DWIDTH 12 0
BBX 10 17 1 -2
BITMAP
1000
6F80
6E80
7100
4EC0
C640
D2C0
DAC0
D4C0
D2C0
D9C0
D5C0
D6C0
D6C0
C640
FFC0
E780
ENDCHAR
STARTCHAR napostrophe
ENCODING 329
SWIDTH 853 0
DWIDTH 12 0
BBX 11 18 0 -2
BITMAP
3C00
5C00
CC00
FC00
F400
6CE0
6520
6B60
6D60
6A60
6960
6CE0
6AE0
6B60
6B60
6320
7FE0
73C0
ENDCHAR
STARTCHAR Eng
ENCODING 330
SWIDTH 846 0
DWIDTH 12 0
BBX 10 14 1 -3
BITMAP
3F80
4F40
D0C0
D0C0
D6C0
D6C0
D6C0
D6C0
D6C0
D6C0
C4C0
FD40
EC80
0F00
ENDCHAR
STARTCHAR eng
ENCODING 331
SWIDTH 846 0
DWIDTH 12 0
BBX 10 14 1 -3
BITMAP
3F80
4F40
D0C0
D0C0
D6C0
D6C0
D6C0
D6C0
D6C0
D6C0
C4C0
FD40
EC80
0F00
ENDCHAR
STARTCHAR Omacron
ENCODING 332
SWIDTH 837 0
DWIDTH 12 0
BBX 11 16 0 -2
BITMAP
0FC0
1740
3040
3FC0
27A0
6860
4B60
CB60
CB60
CB60
CB60
C860
E7A0
6020
7FC0
3F00
ENDCHAR
STARTCHAR omacron
ENCODING 333
SWIDTH 837 0
DWIDTH 12 0
BBX 11 16 0 -2
BITMAP
0FC0
1740
3040
3FC0
27A0
6860
4B60
CB60
CB60
CB60
CB60
C860
E7A0
6020
7FC0
3F00
ENDCHAR
STARTCHAR Obreve
ENCODING 334
SWIDTH 837 0
DWIDTH 12 0
BBX 11 17 0 -2
BITMAP
0CC0
1BC0
3740
3040
3FC0
27A0
4860
4B60
CB60
CB60
CB60
CB60
C860
E7A0
6020
7FC0
3F00
ENDCHAR
STARTCHAR obreve
ENCODING 335
SWIDTH 837 0
DWIDTH 12 0
BBX 11 17 0 -2
BITMAP
0CC0
1BC0
3740
3040
3FC0
27A0
4860
4B60
CB60
CB60
CB60
CB60
C860
E7A0
6020
7FC0
3F00
ENDCHAR
STARTCHAR Ohungarumlaut
ENCODING 336
SWIDTH 837 0
DWIDTH 12 0
BBX 11 18 0 -2
BITMAP
0EC0
1120
15A0
37A0
3240
3DC0
27A0
6860
4B60
CB60
CB60
CB60
CB60
C860
E7A0
6020
7FC0
3F00
ENDCHAR
STARTCHAR ohungarumlaut
ENCODING 337
SWIDTH 837 0
DWIDTH 12 0
BBX 11 18 0 -2
BITMAP
0EC0
1120
15A0
37A0
3240
3DC0
27A0
6860
4B60
CB60
CB60
CB60
CB60
C860
E7A0
6020
7FC0
3F00
ENDCHAR
STARTCHAR OE
ENCODING 338
SWIDTH 1115 0
DWIDTH 16 0
BBX 15 13 0 -2
BITMAP
1FFE
2002
47FE
485E
CB42
CB7A
CB42
CB5C
CB5E
E7FE
6002
7FFE
3FFC
ENDCHAR
STARTCHAR oe
ENCODING 339
SWIDTH 1115 0
DWIDTH 16 0
BBX 15 13 0 -2
BITMAP
1FFE
2002
47FE
485E
CB42
CB7A
CB42
CB5C
CB5E
E7FE
6002
7FFE
3FFC
ENDCHAR
STARTCHAR Racute
ENCODING 340
SWIDTH 843 0
DWIDTH 12 0
BBX 11 16 1 -2
BITMAP
1F80
2C80
6080
7F80
4040
DE40
D540
D540
D140
DF20
D0A0
D6A0
D6A0
C620
FFC0
E780
ENDCHAR
STARTCHAR racute
ENCODING 341
SWIDTH 843 0
DWIDTH 12 0
BBX 11 16 1 -2
BITMAP
1F80
2C80
6080
7F80
4040
DE40
D540
D540
D140
DF20
D0A0
D6A0
D6A0
C620
FFC0
E780
ENDCHAR
STARTCHAR Rcommaaccent
ENCODING 342
SWIDTH 843 0
DWIDTH 12 0
BBX 11 18 1 -7
BITMAP
7F80
DE40
D140
D540
D540
D140
DF20
D6A0
D6A0
C620
C620
FFC0
F480
3300
3F00
3500
1E00
1800
ENDCHAR
STARTCHAR rcommaaccent
ENCODING 343
SWIDTH 843 0
DWIDTH 12 0
BBX 11 18 1 -7
BITMAP
7F80
DE40
D140
D540
D540
D140
DF20
D6A0
D6A0
C620
C620
FFC0
F480
3300
3F00
3500
1E00
1800
ENDCHAR
STARTCHAR Rcaron
ENCODING 344
SWIDTH 843 0
DWIDTH 12 0
BBX 11 17 1 -2
BITMAP
1000
2F80
6E80
7100
7F80
4040
DE40
D540
D540
D140
DF20
D0A0
D6A0
D6A0
C620
FFC0
E780
ENDCHAR
STARTCHAR rcaron
ENCODING 345
SWIDTH 843 0
DWIDTH 12 0
BBX 11 17 1 -2
BITMAP
1000
2F80
6E80
7100
7F80
4040
DE40
D540
D540
D140
DF20
D0A0
D6A0
D6A0
C620
FFC0
E780
ENDCHAR
STARTCHAR Sacute
ENCODING 346
SWIDTH 750 0
DWIDTH 11 0
BBX 10 16 0 -2
BITMAP
1F80
2040
6080
7F40
6040
2F40
5380
D080
EC40
F3C0
7EC0
20C0
4F40
C040
FF80
FE00
ENDCHAR
STARTCHAR sacute
ENCODING 347
SWIDTH 750 0
DWIDTH 11 0
BBX 10 16 0 -2
BITMAP
1F80
2040
6080
7F40
6040
2F40
5380
D080
EC40
F3C0
7EC0
20C0
4F40
C040
FF80
FE00
ENDCHAR
STARTCHAR Scircumflex
ENCODING 348
SWIDTH 750 0
DWIDTH 11 0
BBX 10 17 0 -2
BITMAP
0700
1880
2640
6FC0
7040
6040
2F40
5380
D080
EC40
F3C0
7EC0
20C0
4F40
C040
FF80
FE00
ENDCHAR
STARTCHAR scircumflex
ENCODING 349
SWIDTH 750 0
DWIDTH 11 0
BBX 10 17 0 -2
BITMAP
0700
1880
2640
6FC0
7040
6040
2F40
5380
D080
EC40
F3C0
7EC0
20C0
4F40
C040
FF80
FE00
ENDCHAR
STARTCHAR Scedilla
ENCODING 350
SWIDTH 750 0
DWIDTH 11 0
BBX 10 15 0 -4
BITMAP
1FC0
2040
4F40
D380
D040
EC40
F3C0
7EC0
20C0
4F40
C240
FD80
F100
3E00
3800
ENDCHAR
STARTCHAR scedilla
ENCODING 351
SWIDTH 750 0
DWIDTH 11 0
BBX 10 15 0 -4
BITMAP
1FC0
2040
4F40
D380
D040
EC40
F3C0
7EC0
20C0
4F40
C240
FD80
F100
3E00
3800
ENDCHAR
STARTCHAR Scaron
ENCODING 352
SWIDTH 750 0
DWIDTH 11 0
BBX 10 17 0 -2
BITMAP
1880
2740
6740
7D80
7240
2040
4F40
5380
D080
EC40
F3C0
7EC0
20C0
4F40
C040
FF80
FE00
ENDCHAR
STARTCHAR scaron
ENCODING 353
SWIDTH 750 0
DWIDTH 11 0
BBX 10 17 0 -2
BITMAP
1880
2740
6740
7D80
7240
2040
4F40
5380
D080
EC40
F3C0
7EC0
20C0
4F40
C040
FF80
FE00
ENDCHAR
STARTCHAR Tcommaaccent
ENCODING 354
SWIDTH 756 0
DWIDTH 11 0
BBX 11 18 0 -7
BITMAP
7FE0
5FA0
C220
FAC0
FA80
1B00
1B00
1B00
1B00
1B00
1900
1E00
1D00
1B00
1F00
1D00
1E00
1C00
ENDCHAR
STARTCHAR tcommaaccent
ENCODING 355
SWIDTH 756 0
DWIDTH 11 0
BBX 11 18 0 -7
BITMAP
7FE0
5FA0
C220
FAC0
FA80
1B00
1B00
1B00
1B00
1B00
1900
1E00
1D00
1B00
1F00
1D00
1E00
1C00
ENDCHAR
STARTCHAR Tcaron
ENCODING 356
SWIDTH 756 0
DWIDTH 11 0
BBX 11 17 0 -2
BITMAP
1880
2740
6740
7980
4660
4020
DFA0
FAC0
FA80
1B00
1B00
1B00
1B00
1B00
1900
1E00
1C00
ENDCHAR
STARTCHAR tcaron
ENCODING 357
SWIDTH 756 0
DWIDTH 11 0
BBX 11 17 0 -2
BITMAP
1880
2740
6740
7980
4660
4020
DFA0
FAC0
FA80
1B00
1B00
1B00
1B00
1B00
1900
1E00
1C00
ENDCHAR
STARTCHAR Tbar
ENCODING 358
SWIDTH 756 0
DWIDTH 11 0
BBX 11 13 0 -2
BITMAP
7FE0
4020
DFA0
C220
FAC0
1A80
2F40
6240
7A80
7B00
1900
1E00
1C00
ENDCHAR
STARTCHAR tbar
ENCODING 359
SWIDTH 756 0
DWIDTH 11 0
BBX 11 13 0 -2
BITMAP
7FE0
4020
DFA0
C220
FAC0
1A80
2F40
6240
7A80
7B00
1900
1E00
1C00
ENDCHAR
STARTCHAR Utilde
ENCODING 360
SWIDTH 846 0
DWIDTH 12 0
BBX 10 16 1 -2
BITMAP
1F80
2E80
6880
5740
DAC0
D6C0
D6C0
D6C0
D6C0
D6C0
D6C0
D0C0
CF40
E040
FF80
7E00
ENDCHAR
STARTCHAR utilde
ENCODING 361
SWIDTH 846 0
DWIDTH 12 0
BBX 10 16 1 -2
BITMAP
1F80
2E80
6880
5740
DAC0
D6C0
D6C0
D6C0
D6C0
D6C0
D6C0
D0C0
CF40
E040
FF80
7E00
ENDCHAR
STARTCHAR Umacron
ENCODING 362
SWIDTH 846 0
DWIDTH 12 0
BBX 10 16 1 -2
BITMAP
1F80
2F80
6080
7FC0
4640
D6C0
D6C0
D6C0
D6C0
D6C0
D6C0
D0C0
CF40
C040
FF80
7E00
ENDCHAR
STARTCHAR umacron
ENCODING 363
SWIDTH 846 0
DWIDTH 12 0
BBX 10 16 1 -2
BITMAP
1F80
2F80
6080
7FC0
4640
D6C0
D6C0
D6C0
D6C0
D6C0
D6C0
D0C0
CF40
C040
FF80
7E00
ENDCHAR
STARTCHAR Ubreve
ENCODING 364
SWIDTH 846 0
DWIDTH 12 0
BBX 10 17 1 -2
BITMAP
1980
2680
6F80
7080
4F40
C640
D6C0
D6C0
D6C0
D6C0
D6C0
D6C0
D0C0
CF40
E040
FF80
7E00
ENDCHAR
STARTCHAR ubreve
ENCODING 365
SWIDTH 846 0
DWIDTH 12 0
BBX 10 17 1 -2
BITMAP
1980
2680
6F80
7080
4F40
C640
D6C0
D6C0
D6C0
D6C0
D6C0
D6C0
D0C0
CF40
E040
FF80
7E00
ENDCHAR
STARTCHAR Uring
ENCODING 366
SWIDTH 846 0
DWIDTH 12 0
BBX 10 19 1 -2
BITMAP
1700
2E80
7780
7780
6E80
7080
4F40
CA40
D6C0
D6C0
D6C0
D6C0
D6C0
D6C0
D0C0
CF40
E040
FF80
7E00
ENDCHAR
STARTCHAR uring
ENCODING 367
SWIDTH 846 0
DWIDTH 12 0
BBX 10 19 1 -2
BITMAP
1700
2E80
7780
7780
6E80
7080
4F40
CA40
D6C0
D6C0
D6C0
D6C0
D6C0
D6C0
D0C0
CF40
E040
FF80
7E00
ENDCHAR
STARTCHAR Uhungarumlaut
ENCODING 368
SWIDTH 846 0
DWIDTH 12 0
BBX 10 18 1 -2
BITMAP
0DC0
1240
2A80
6F40
6480
7FC0
C640
D6C0
D6C0
D6C0
D6C0
D6C0
D6C0
D0C0
CF40
C040
FF80
7E00
ENDCHAR
STARTCHAR uhungarumlaut
ENCODING 369
SWIDTH 846 0
DWIDTH 12 0
BBX 10 18 1 -2
BITMAP
0DC0
1240
2A80
6F40
6480
7FC0
C640
D6C0
D6C0
D6C0
D6C0
D6C0
D6C0
D0C0
CF40
C040
FF80
7E00
ENDCHAR
STARTCHAR Uogonek
ENCODING 370
SWIDTH 846 0
DWIDTH 12 0
BBX 10 16 1 -5
BITMAP
7BC0
DAC0
D6C0
D6C0
D6C0
D6C0
D6C0
D6C0
D0C0
CF40
E440
FD80
7700
1900
3E00
1C00
ENDCHAR
STARTCHAR uogonek
ENCODING 371
SWIDTH 846 0
DWIDTH 12 0
BBX 10 16 1 -5
BITMAP
7BC0
DAC0
D6C0
D6C0
D6C0
D6C0
D6C0
D6C0
D0C0
CF40
E440
FD80
7700
1900
3E00
1C00
ENDCHAR
STARTCHAR Wcircumflex
ENCODING 372
SWIDTH 931 0
DWIDTH 13 0
BBX 13 17 0 -2
BITMAP
0380
0C60
13A0
1920
27D8
4488
CDA8
CDA8
CFA8
CC68
CD68
CAA8
6D68
6950
6110
7FE0
3BC0
ENDCHAR
STARTCHAR wcircumflex
ENCODING 373
SWIDTH 931 0
DWIDTH 13 0
BBX 13 17 0 -2
BITMAP
0380
0C60
13A0
1920
27D8
4488
CDA8
CDA8
CFA8
CC68
CD68
CAA8
6D68
6950
6110
7FE0
3BC0
ENDCHAR
STARTCHAR Ycircumflex
ENCODING 374
SWIDTH 805 0
DWIDTH 11 0
BBX 11 17 0 -2
BITMAP
0700
18C0
3240
3FC0
4720
5760
D760
D760
D260
E8A0
E540
7240
3A80
3A80
1880
1F00
1E00
ENDCHAR
STARTCHAR ycircumflex
ENCODING 375
SWIDTH 805 0
DWIDTH 11 0
BBX 11 17 0 -2
BITMAP
0700
18C0
3240
3FC0
4720
5760
D760
D760
D260
E8A0
E540
7240
3A80
3A80
1880
1F00
1E00
ENDCHAR
STARTCHAR Ydieresis
ENCODING 376
SWIDTH 805 0
DWIDTH 11 0
BBX 11 16 0 -2
BITMAP
1DC0
2AC0
6240
7FE0
4720
D760
D760
D260
EAA0
E540
7240
3A80
3A80
1880
1F00
1E00
ENDCHAR
STARTCHAR Zacute
ENCODING 377
SWIDTH 760 0
DWIDTH 11 0
BBX 10 16 0 -2
BITMAP
1F80
2040
6080
7F40
6040
6F40
7CC0
7940
1280
1500
2900
4BC0
CFC0
C040
FFC0
FF80
ENDCHAR
STARTCHAR zacute
ENCODING 378
SWIDTH 760 0
DWIDTH 11 0
BBX 10 16 0 -2
BITMAP
1F80
2040
6080
7F40
6040
6F40
7CC0
7940
1280
1500
2900
4BC0
CFC0
C040
FFC0
FF80
ENDCHAR
STARTCHAR Zdotaccent
ENCODING 379
SWIDTH 760 0
DWIDTH 11 0
BBX 10 16 0 -2
BITMAP
0700
1B00
1900
26C0
6040
6F40
7CC0
7940
1280
1500
2900
4BC0
CFC0
C040
FFC0
FF80
ENDCHAR
STARTCHAR zdotaccent
ENCODING 380
SWIDTH 760 0
DWIDTH 11 0
BBX 10 16 0 -2
BITMAP
0700
1B00
1900
26C0
6040
6F40
7CC0
7940
1280
1500
2900
4BC0
CFC0
C040
FFC0
FF80
ENDCHAR
STARTCHAR Zcaron
ENCODING 381
SWIDTH 760 0
DWIDTH 11 0
BBX 10 17 0 -2
BITMAP
1880
2740
6740
7980
6640
6040
6F40
7CC0
7940
1280
1500
2900
4BC0
CFC0
C040
FFC0
FF80
ENDCHAR
STARTCHAR zcaron
ENCODING 382
SWIDTH 760 0
DWIDTH 11 0
BBX 10 17 0 -2
BITMAP
1880
2740
6740
7980
6640
6040
6F40
7CC0
7940
1280
1500
2900
4BC0
CFC0
C040
FFC0
FF80
ENDCHAR
STARTCHAR Schwa
ENCODING 399
SWIDTH 815 0
DWIDTH 11 0
BBX 11 13 0 -2
BITMAP
1FC0
27A0
6060
7F60
4060
4FA0
D060
D360
D060
EBA0
E060
7F80
3F00
ENDCHAR
STARTCHAR florin
ENCODING 402
SWIDTH 674 0
DWIDTH 9 0
BBX 9 13 0 -2
BITMAP
0780
0880
1380
3580
3580
5F80
C480
F580
C500
5900
C200
FC00
F000
ENDCHAR
STARTCHAR Ohorn
ENCODING 416
SWIDTH 847 0
DWIDTH 12 0
BBX 12 14 0 -2
BITMAP
0070
1FB0
27D0
4850
4B50
CB50
CB50
CB50
CB50
C850
E7A0
6020
7FC0
3F00
ENDCHAR
STARTCHAR ohorn
ENCODING 417
SWIDTH 847 0
DWIDTH 12 0
BBX 12 14 0 -2
BITMAP
0070
1FB0
27D0
4850
4B50
CB50
CB50
CB50
CB50
C850
E7A0
6020
7FC0
3F00
ENDCHAR
STARTCHAR Uhorn
ENCODING 431
SWIDTH 856 0
DWIDTH 12 0
BBX 11 14 1 -2
BITMAP
00E0
7960
DAA0
D6A0
D6A0
D6A0
D6A0
D6A0
D6A0
D0A0
CF20
E040
FF80
7E00
ENDCHAR
STARTCHAR uhorn
ENCODING 432
SWIDTH 856 0
DWIDTH 12 0
BBX 11 14 1 -2
BITMAP
00E0
7960
DAA0
D6A0
D6A0
D6A0
D6A0
D6A0
D6A0
D0A0
CF20
E040
FF80
7E00
ENDCHAR
STARTCHAR Acaron
ENCODING 461
SWIDTH 830 0
DWIDTH 12 0
BBX 11 17 0 -2
BITMAP
0800
17C0
3740
3D80
3240
1040
1720
2AA0
2AA0
6B60
5060
4FE0
D060
D760
C720
FBE0
F3C0
ENDCHAR
STARTCHAR acaron
ENCODING 462
SWIDTH 830 0
DWIDTH 12 0
BBX 11 17 0 -2
BITMAP
0800
17C0
3740
3D80
3240
1040
1720
2AA0
2AA0
6B60
5060
4FE0
D060
D760
C720
FBE0
F3C0
ENDCHAR
STARTCHAR Icaron
ENCODING 463
SWIDTH 705 0
DWIDTH 10 0
BBX 9 17 0 -2
BITMAP
1000
2F80
6F80
7900
4680
4080
CF80
E480
F500
3500
3500
3500
3580
4F80
C080
FF80
FF00
ENDCHAR
STARTCHAR icaron
ENCODING 464
SWIDTH 705 0
DWIDTH 10 0
BBX 9 17 0 -2
BITMAP
1000
2F80
6F80
7900
4680
4080
CF80
E480
F500
3500
3500
3500
3580
4F80
C080
FF80
FF00
ENDCHAR
STARTCHAR Ocaron
ENCODING 465
SWIDTH 837 0
DWIDTH 12 0
BBX 11 17 0 -2
BITMAP
0800
17C0
3740
3C80
3340
27A0
4860
4B60
CB60
CB60
CB60
CB60
C860
E7A0
6020
7FC0
3F00
ENDCHAR
STARTCHAR ocaron
ENCODING 466
SWIDTH 837 0
DWIDTH 12 0
BBX 11 17 0 -2
BITMAP
0800
17C0
3740
3C80
3340
27A0
4860
4B60
CB60
CB60
CB60
CB60
C860
E7A0
6020
7FC0
3F00
ENDCHAR
STARTCHAR Ucaron
ENCODING 467
SWIDTH 846 0
DWIDTH 12 0
BBX 10 17 1 -2
BITMAP
1000
2F80
6E80
7900
46C0
DAC0
D6C0
D6C0
D6C0
D6C0
D6C0
D6C0
D0C0
CF40
E040
FF80
7E00
ENDCHAR
STARTCHAR ucaron
ENCODING 468
SWIDTH 846 0
DWIDTH 12 0
BBX 10 17 1 -2
BITMAP
1000
2F80
6E80
7900
46C0
DAC0
D6C0
D6C0
D6C0
D6C0
D6C0
D6C0
D0C0
CF40
E040
FF80
7E00
ENDCHAR
STARTCHAR Udieresismacron
ENCODING 469
SWIDTH 846 0
DWIDTH 12 0
BBX 10 19 1 -2
BITMAP
1F80
2E80
7F80
6440
7540
6440
7FC0
C640
D6C0
D6C0
D6C0
D6C0
D6C0
D6C0
D0C0
CF40
C040
FF80
7E00
ENDCHAR
STARTCHAR udieresismacron
ENCODING 470
SWIDTH 846 0
DWIDTH 12 0
BBX 10 19 1 -2
BITMAP
1F80
2E80
7F80
6440
7540
6440
7FC0
C640
D6C0
D6C0
D6C0
D6C0
D6C0
D6C0
D0C0
CF40
C040
FF80
7E00
ENDCHAR
STARTCHAR Udieresisacute
ENCODING 471
SWIDTH 846 0
DWIDTH 12 0
BBX 10 20 1 -2
BITMAP
0700
0F00
1900
1B80
2440
7540
6440
7FC0
C640
D6C0
D6C0
D6C0
D6C0
D6C0
D6C0
D0C0
CF40
C040
FF80
7E00
ENDCHAR
STARTCHAR udieresisacute
ENCODING 472
SWIDTH 846 0
DWIDTH 12 0
BBX 10 20 1 -2
BITMAP
0700
0F00
1900
1B80
2440
7540
6440
7FC0
C640
D6C0
D6C0
D6C0
D6C0
D6C0
D6C0
D0C0
CF40
C040
FF80
7E00
ENDCHAR
STARTCHAR Udieresiscaron
ENCODING 473
SWIDTH 846 0
DWIDTH 12 0
BBX 10 20 1 -2
BITMAP
3800
6780
6E80
7F80
2440
7540
6440
7FC0
C640
D6C0
D6C0
D6C0
D6C0
D6C0
D6C0
D0C0
CF40
C040
FF80
7E00
ENDCHAR
STARTCHAR udieresiscaron
ENCODING 474
SWIDTH 846 0
DWIDTH 12 0
BBX 10 20 1 -2
BITMAP
3800
6780
6E80
7F80
2440
7540
6440
7FC0
C640
D6C0
D6C0
D6C0
D6C0
D6C0
D6C0
D0C0
CF40
C040
FF80
7E00
ENDCHAR
STARTCHAR Udieresisgrave
ENCODING 475
SWIDTH 846 0
DWIDTH 12 0
BBX 10 20 1 -2
BITMAP
0C00
1600
3100
3B80
2440
7540
6440
7FC0
C640
D6C0
D6C0
D6C0
D6C0
D6C0
D6C0
D0C0
CF40
C040
FF80
7E00
ENDCHAR
STARTCHAR udieresisgrave
ENCODING 476
SWIDTH 846 0
DWIDTH 12 0
BBX 10 20 1 -2
BITMAP
0C00
1600
3100
3B80
2440
7540
6440
7FC0
C640
D6C0
D6C0
D6C0
D6C0
D6C0
D6C0
D0C0
CF40
C040
FF80
7E00
ENDCHAR
STARTCHAR Gcaron
ENCODING 486
SWIDTH 808 0
DWIDTH 11 0
BBX 11 17 0 -2
BITMAP
1880
1740
3740
3D80
3240
2040
27C0
4B80
4B00
CCE0
CB20
CB60
C860
E7A0
6020
7FC0
3F80
ENDCHAR
STARTCHAR gcaron
ENCODING 487
SWIDTH 808 0
DWIDTH 11 0
BBX 11 17 0 -2
BITMAP
1880
1740
3740
3D80
3240
2040
27C0
4B80
4B00
CCE0
CB20
CB60
C860
E7A0
6020
7FC0
3F80
ENDCHAR
STARTCHAR Scommaaccent
ENCODING 536
SWIDTH 750 0
DWIDTH 11 0
BBX 10 18 0 -7
BITMAP
1FC0
2F40
5040
D780
D040
EF40
F0C0
7EC0
20C0
4F40
C040
FF80
FF00
1900
1D00
1F00
1E00
1C00
ENDCHAR
STARTCHAR scommaaccent
ENCODING 537
SWIDTH 750 0
DWIDTH 11 0
BBX 10 18 0 -7
BITMAP
1FC0
2F40
5040
D780
D040
EF40
F0C0
7EC0
20C0
4F40
C040
FF80
FF00
1900
1D00
1F00
1E00
1C00
ENDCHAR
STARTCHAR uni021A
ENCODING 538
SWIDTH 756 0
DWIDTH 11 0
BBX 11 18 0 -7
BITMAP
7FE0
5FA0
C220
FAC0
FA80
1B00
1B00
1B00
1B00
1B00
1900
1E00
1D00
1B00
1F00
1D00
1E00
1C00
ENDCHAR
STARTCHAR uni021B
ENCODING 539
SWIDTH 756 0
DWIDTH 11 0
BBX 11 18 0 -7
BITMAP
7FE0
5FA0
C220
FAC0
FA80
1B00
1B00
1B00
1B00
1B00
1900
1E00
1D00
1B00
1F00
1D00
1E00
1C00
ENDCHAR
STARTCHAR dotlessj
ENCODING 567
SWIDTH 788 0
DWIDTH 11 0
BBX 10 13 0 -2
BITMAP
03C0
0240
06C0
06C0
06C0
3EC0
46C0
D6C0
D0C0
CF40
E040
7F80
3E00
ENDCHAR
STARTCHAR ascript
ENCODING 593
SWIDTH 846 0
DWIDTH 12 0
BBX 11 13 0 -2
BITMAP
1FC0
27A0
4860
4B60
CB60
CB60
CB60
CB60
C860
E7E0
6020
7FE0
3FC0
ENDCHAR
STARTCHAR schwa
ENCODING 601
SWIDTH 815 0
DWIDTH 11 0
BBX 11 13 0 -2
BITMAP
1FC0
27A0
6060
7F60
4060
4FA0
D060
D360
D060
EBA0
E060
7F80
3F00
ENDCHAR
STARTCHAR gscript
ENCODING 609
SWIDTH 815 0
DWIDTH 11 0
BBX 11 14 0 -3
BITMAP
1FC0
27A0
4860
5760
D760
D060
EFA0
E060
7F60
2060
27A0
6040
7F80
3E00
ENDCHAR
STARTCHAR commaturnedmod
ENCODING 699
SWIDTH 600 0
DWIDTH 8 0
BBX 5 7 2 4
BITMAP
78
70
A8
B8
88
F0
E0
ENDCHAR
STARTCHAR apostrophemod
ENCODING 700
SWIDTH 600 0
DWIDTH 8 0
BBX 5 7 2 5
BITMAP
78
A8
98
F8
E8
F0
E0
ENDCHAR
STARTCHAR ringhalfright
ENCODING 702
SWIDTH 412 0
DWIDTH 6 0
BBX 6 7 0 4
BITMAP
7C
54
EC
CC
54
F8
E0
ENDCHAR
STARTCHAR ringhalfleft
ENCODING 703
SWIDTH 412 0
DWIDTH 6 0
BBX 6 7 0 4
BITMAP
3C
4C
D8
DC
CC
F8
70
ENDCHAR
STARTCHAR circumflex
ENCODING 710
SWIDTH 600 0
DWIDTH 8 0
BBX 8 5 0 10
BITMAP
04
3F
41
FF
EE
ENDCHAR
STARTCHAR caron
ENCODING 711
SWIDTH 600 0
DWIDTH 8 0
BBX 8 6 0 9
BITMAP
20
5F
DF
E1
FE
38
ENDCHAR
STARTCHAR verticallinemod
ENCODING 712
SWIDTH 456 0
DWIDTH 6 0
BBX 5 8 1 3
BITMAP
78
98
98
98
88
88
F0
E0
ENDCHAR
STARTCHAR firsttonechinese
ENCODING 713
SWIDTH 600 0
DWIDTH 8 0
BBX 8 5 0 9
BITMAP
3F
5F
C1
FE
FC
ENDCHAR
STARTCHAR secondtonechinese
ENCODING 714
SWIDTH 600 0
DWIDTH 8 0
BBX 8 5 0 9
BITMAP
3F
5F
C3
FE
C0
ENDCHAR
STARTCHAR fourthtonechinese
ENCODING 715
SWIDTH 600 0
DWIDTH 8 0
BBX 8 5 0 9
BITMAP
7F
DF
F9
FE
04
ENDCHAR
STARTCHAR verticallinelowmod
ENCODING 716
SWIDTH 456 0
DWIDTH 6 0
BBX 5 8 1 -4
BITMAP
78
98
98
98
88
88
F0
E0
ENDCHAR
STARTCHAR breve
ENCODING 728
SWIDTH 600 0
DWIDTH 8 0
BBX 8 6 0 9
BITMAP
33
5D
CF
E1
FE
7C
ENDCHAR
STARTCHAR dotaccent
ENCODING 729
SWIDTH 600 0
DWIDTH 8 0
BBX 5 6 2 9
BITMAP
38
48
D8
C8
F0
E0
ENDCHAR
STARTCHAR ring
ENCODING 730
SWIDTH 600 0
DWIDTH 8 0
BBX 8 8 0 9
BITMAP
1C
2F
5D
DD
CF
E1
FE
7C
ENDCHAR
STARTCHAR ogonek
ENCODING 731
SWIDTH 600 0
DWIDTH 8 0
BBX 5 6 2 -5
BITMAP
30
68
F8
C8
F0
E0
ENDCHAR
STARTCHAR tilde
ENCODING 732
SWIDTH 600 0
DWIDTH 8 0
BBX 8 5 0 9
BITMAP
3D
5F
C1
FE
FC
ENDCHAR
STARTCHAR hungarumlaut
ENCODING 733
SWIDTH 600 0
DWIDTH 8 0
BBX 9 7 0 9
BITMAP
3B00
4480
DE80
DB00
C900
FE00
DC00
ENDCHAR
STARTCHAR gravecmb
ENCODING 768
SWIDTH 100 0
DWIDTH 1 0
BBX 8 5 -3 9
BITMAP
7F
DD
F1
FE
0C
ENDCHAR
STARTCHAR acutecmb
ENCODING 769
SWIDTH 100 0
DWIDTH 1 0
BBX 8 5 -3 9
BITMAP
7F
5D
C6
FC
80
ENDCHAR
STARTCHAR circumflexcmb
ENCODING 770
SWIDTH 100 0
DWIDTH 1 0
BBX 8 5 -3 10
BITMAP
08
7F
C1
FF
DC
ENDCHAR
STARTCHAR tildecmb
ENCODING 771
SWIDTH 100 0
DWIDTH 1 0
BBX 8 5 -3 9
BITMAP
7F
5D
C1
FE
FC
ENDCHAR
STARTCHAR uni0304
ENCODING 772
SWIDTH 600 0
DWIDTH 8 0
BBX 8 5 0 9
BITMAP
3F
5F
C1
FE
FC
ENDCHAR
STARTCHAR brevecmb
ENCODING 774
SWIDTH 100 0
DWIDTH 1 0
BBX 8 6 -3 9
BITMAP
37
6B
DD
C3
FC
78
ENDCHAR
STARTCHAR dotaccentcmb
ENCODING 775
SWIDTH 100 0
DWIDTH 1 0
BBX 5 6 -2 9
BITMAP
38
48
D8
C8
F0
E0
ENDCHAR
STARTCHAR dieresiscmb
ENCODING 776
SWIDTH 100 0
DWIDTH 1 0
BBX 9 5 -4 9
BITMAP
3B80
5580
C480
FF00
7E00
ENDCHAR
STARTCHAR hookcmb
ENCODING 777
SWIDTH 100 0
DWIDTH 1 0
BBX 6 6 -2 10
BITMAP
38
5C
F4
EC
7C
70
ENDCHAR
STARTCHAR ringcmb
ENCODING 778
SWIDTH 100 0
DWIDTH 1 0
BBX 8 8 -3 9
BITMAP
2E
5D
EB
EB
DD
C1
FE
F8
ENDCHAR
STARTCHAR hungarumlautcmb
ENCODING 779
SWIDTH 100 0
DWIDTH 1 0
BBX 9 7 -3 9
BITMAP
3B00
4480
5680
DB00
C900
FE00
DC00
ENDCHAR
STARTCHAR caroncmb
ENCODING 780
SWIDTH 100 0
DWIDTH 1 0
BBX 8 6 -3 9
BITMAP
60
5F
DD
E2
FC
70
ENDCHAR
STARTCHAR horncmb
ENCODING 795
SWIDTH 100 0
DWIDTH 1 0
BBX 5 6 -2 7
BITMAP
38
48
58
E8
F0
C0
ENDCHAR
STARTCHAR dotbelowcmb
ENCODING 803
SWIDTH 100 0
DWIDTH 1 0
BBX 5 6 -2 -6
BITMAP
38
48
D8
C8
F0
E0
ENDCHAR
STARTCHAR dieresisbelowcmb
ENCODING 804
SWIDTH 100 0
DWIDTH 1 0
BBX 9 5 -4 -5
BITMAP
3B80
5580
C480
FF00
7E00
ENDCHAR
STARTCHAR commaaccent
ENCODING 806
SWIDTH 600 0
DWIDTH 8 0
BBX 5 7 2 -7
BITMAP
78
A8
98
F8
E8
F0
E0
ENDCHAR
STARTCHAR cedillacmb
ENCODING 807
SWIDTH 100 0
DWIDTH 1 0
BBX 6 6 -2 -4
BITMAP
38
54
54
C8
F0
E0
ENDCHAR
STARTCHAR ogonekcmb
ENCODING 808
SWIDTH 100 0
DWIDTH 1 0
BBX 6 6 -2 -5
BITMAP
38
54
5C
E4
F8
70
ENDCHAR
STARTCHAR brevebelowcmb
ENCODING 814
SWIDTH 100 0
DWIDTH 1 0
BBX 8 6 -3 -6
BITMAP
37
6B
DD
C3
FC
78
ENDCHAR
STARTCHAR macronbelowcmb
ENCODING 817
SWIDTH 100 0
DWIDTH 1 0
BBX 8 5 -3 -6
BITMAP
3E
5D
C1
FE
FC
ENDCHAR
STARTCHAR uni0394
ENCODING 916
SWIDTH 830 0
DWIDTH 12 0
BBX 11 13 0 -2
BITMAP
0FC0
1340
34C0
2AA0
2AA0
6AA0
6B60
5760
5060
DFE0
C020
FFC0
7F80
ENDCHAR
STARTCHAR uni03A9
ENCODING 937
SWIDTH 877 0
DWIDTH 12 0
BBX 12 13 0 -2
BITMAP
1FE0
2790
2850
6B50
6B50
6B50
6B50
6B50
4950
5DF0
C110
FFE0
FBC0
ENDCHAR
STARTCHAR uni03BC
ENCODING 956
SWIDTH 813 0
DWIDTH 11 0
BBX 10 12 1 -3
BITMAP
71C0
8A40
96C0
96C0
96C0
96C0
90C0
9F40
90C0
8700
FE00
E000
ENDCHAR
STARTCHAR pi
ENCODING 960
SWIDTH 821 0
DWIDTH 12 0
BBX 10 11 1 -2
BITMAP
7FC0
8F40
90C0
96C0
96C0
96C0
96C0
96C0
8640
FF80
E700
ENDCHAR
STARTCHAR Ddotbelow
ENCODING 7692
SWIDTH 846 0
DWIDTH 12 0
BBX 10 17 1 -6
BITMAP
7F80
C040
DF40
D0C0
D6C0
D6C0
D6C0
D6C0
D6C0
DF40
C040
FF80
F100
3500
3100
3E00
3C00
ENDCHAR
STARTCHAR ddotbelow
ENCODING 7693
SWIDTH 846 0
DWIDTH 12 0
BBX 10 17 1 -6
BITMAP
7F80
C040
DF40
D0C0
D6C0
D6C0
D6C0
D6C0
D6C0
DF40
C040
FF80
F100
3500
3100
3E00
3C00
ENDCHAR
STARTCHAR Dlinebelow
ENCODING 7694
SWIDTH 846 0
DWIDTH 12 0
BBX 10 16 1 -5
BITMAP
7F80
C040
DF40
D0C0
D6C0
D6C0
D6C0
D6C0
D6C0
DF40
C040
FF80
E080
6E80
7F00
7E00
ENDCHAR
STARTCHAR dlinebelow
ENCODING 7695
SWIDTH 846 0
DWIDTH 12 0
BBX 10 16 1 -5
BITMAP
7F80
C040
DF40
D0C0
D6C0
D6C0
D6C0
D6C0
D6C0
DF40
C040
FF80
E080
6E80
7F00
7E00
ENDCHAR
STARTCHAR Gmacron
ENCODING 7712
SWIDTH 808 0
DWIDTH 11 0
BBX 11 16 0 -2
BITMAP
0FC0
17C0
3040
3FC0
2040
27C0
4B80
4B00
CCE0
CB20
CB60
C860
E7A0
6020
7FC0
3F80
ENDCHAR
STARTCHAR gmacron
ENCODING 7713
SWIDTH 808 0
DWIDTH 11 0
BBX 11 16 0 -2
BITMAP
0FC0
17C0
3040
3FC0
2040
27C0
4B80
4B00
CCE0
CB20
CB60
C860
E7A0
6020
7FC0
3F80
ENDCHAR
STARTCHAR Hdotbelow
ENCODING 7716
SWIDTH 859 0
DWIDTH 12 0
BBX 10 17 1 -6
BITMAP
7BC0
CA40
D6C0
D6C0
D6C0
DFC0
D0C0
D6C0
D6C0
D6C0
C640
FFC0
F080
3500
3100
3E00
3C00
ENDCHAR
STARTCHAR hdotbelow
ENCODING 7717
SWIDTH 859 0
DWIDTH 12 0
BBX 10 17 1 -6
BITMAP
7BC0
CA40
D6C0
D6C0
D6C0
DFC0
D0C0
D6C0
D6C0
D6C0
C640
FFC0
F080
3500
3100
3E00
3C00
ENDCHAR
STARTCHAR Hbrevebelow
ENCODING 7722
SWIDTH 859 0
DWIDTH 12 0
BBX 10 17 1 -6
BITMAP
7BC0
CA40
D6C0
D6C0
D6C0
DFC0
D0C0
D6C0
D6C0
D6C0
C640
FFC0
E640
6980
6680
7F00
3C00
ENDCHAR
STARTCHAR hbrevebelow
ENCODING 7723
SWIDTH 859 0
DWIDTH 12 0
BBX 10 17 1 -6
BITMAP
7BC0
CA40
D6C0
D6C0
D6C0
DFC0
D0C0
D6C0
D6C0
D6C0
C640
FFC0
E640
6980
6680
7F00
3C00
ENDCHAR
STARTCHAR Ldotbelow
ENCODING 7734
SWIDTH 795 0
DWIDTH 11 0
BBX 10 17 1 -6
BITMAP
7800
C800
D800
D800
D800
D9C0
DA40
D6C0
D0C0
DF40
C040
FF80
F100
3500
3100
3E00
3C00
ENDCHAR
STARTCHAR ldotbelow
ENCODING 7735
SWIDTH 795 0
DWIDTH 11 0
BBX 10 17 1 -6
BITMAP
7800
C800
D800
D800
D800
D9C0
DA40
D6C0
D0C0
DF40
C040
FF80
F100
3500
3100
3E00
3C00
ENDCHAR
STARTCHAR Ldotbelowmacron
ENCODING 7736
SWIDTH 795 0
DWIDTH 11 0
BBX 10 20 1 -6
BITMAP
1F00
2E80
6080
7F00
4600
D800
D800
D800
D9C0
DA40
D6C0
D0C0
DF40
C040
FF80
F100
3500
3100
3E00
3C00
ENDCHAR
STARTCHAR ldotbelowmacron
ENCODING 7737
SWIDTH 795 0
DWIDTH 11 0
BBX 10 20 1 -6
BITMAP
1F00
2E80
6080
7F00
4600
D800
D800
D800
D9C0
DA40
D6C0
D0C0
DF40
C040
FF80
F100
3500
3100
3E00
3C00
ENDCHAR
STARTCHAR Llinebelow
ENCODING 7738
SWIDTH 795 0
DWIDTH 11 0
BBX 10 16 1 -5
BITMAP
7800
C800
D800
D800
D800
D9C0
DA40
D6C0
D0C0
DF40
C040
FF80
EE80
6080
7F00
7E00
ENDCHAR
STARTCHAR llinebelow
ENCODING 7739
SWIDTH 795 0
DWIDTH 11 0
BBX 10 16 1 -5
BITMAP
7800
C800
D800
D800
D800
D9C0
DA40
D6C0
D0C0
DF40
C040
FF80
EE80
6080
7F00
7E00
ENDCHAR
STARTCHAR Mdotbelow
ENCODING 7746
SWIDTH 949 0
DWIDTH 13 0
BBX 12 17 1 -6
BITMAP
78F0
C510
D250
DAD0
D550
DAD0
D8D0
D550
D750
DB50
CB10
F7E0
E8C0
1A80
1880
1F00
1C00
ENDCHAR
STARTCHAR mdotbelow
ENCODING 7747
SWIDTH 949 0
DWIDTH 13 0
BBX 12 17 1 -6
BITMAP
78F0
C510
D250
DAD0
D550
DAD0
D8D0
D550
D750
DB50
CB10
F7E0
E8C0
1A80
1880
1F00
1C00
ENDCHAR
STARTCHAR Ndotaccent
ENCODING 7748
SWIDTH 853 0
DWIDTH 12 0
BBX 10 16 1 -2
BITMAP
0E00
1500
3100
4EC0
C640
D2C0
DAC0
D4C0
D2C0
D9C0
D5C0
D6C0
D6C0
C640
FFC0
E780
ENDCHAR
STARTCHAR ndotaccent
ENCODING 7749
SWIDTH 853 0
DWIDTH 12 0
BBX 10 16 1 -2
BITMAP
0E00
1500
3100
4EC0
C640
D2C0
DAC0
D4C0
D2C0
D9C0
D5C0
D6C0
D6C0
C640
FFC0
E780
ENDCHAR
STARTCHAR Ndotbelow
ENCODING 7750
SWIDTH 853 0
DWIDTH 12 0
BBX 10 17 1 -6
BITMAP
7BC0
C640
D2C0
DAC0
D4C0
D2C0
D9C0
D5C0
D6C0
D6C0
C640
FFC0
F180
3500
3100
3E00
3C00
ENDCHAR
STARTCHAR ndotbelow
ENCODING 7751
SWIDTH 853 0
DWIDTH 12 0
BBX 10 17 1 -6
BITMAP
7BC0
C640
D2C0
DAC0
D4C0
D2C0
D9C0
D5C0
D6C0
D6C0
C640
FFC0
F180
3500
3100
3E00
3C00
ENDCHAR
STARTCHAR Nlinebelow
ENCODING 7752
SWIDTH 853 0
DWIDTH 12 0
BBX 10 16 1 -5
BITMAP
7BC0
C640
D2C0
DAC0
D4C0
D2C0
D9C0
D5C0
D6C0
D6C0
C640
FFC0
EF80
6080
7F00
7E00
ENDCHAR
STARTCHAR nlinebelow
ENCODING 7753
SWIDTH 853 0
DWIDTH 12 0
BBX 10 16 1 -5
BITMAP
7BC0
C640
D2C0
DAC0
D4C0
D2C0
D9C0
D5C0
D6C0
D6C0
C640
FFC0
EF80
6080
7F00
7E00
ENDCHAR
STARTCHAR Rdotbelow
ENCODING 7770
SWIDTH 843 0
DWIDTH 12 0
BBX 11 17 1 -6
BITMAP
7F80
C040
DE40
D540
D540
D140
DF20
D0A0
D6A0
D6A0
C620
FFC0
F080
1300
3100
3E00
1C00
ENDCHAR
STARTCHAR rdotbelow
ENCODING 7771
SWIDTH 843 0
DWIDTH 12 0
BBX 11 17 1 -6
BITMAP
7F80
C040
DE40
D540
D540
D140
DF20
D0A0
D6A0
D6A0
C620
FFC0
F080
1300
3100
3E00
1C00
ENDCHAR
STARTCHAR Rdotbelowmacron
ENCODING 7772
SWIDTH 843 0
DWIDTH 12 0
BBX 11 20 1 -6
BITMAP
3F00
4E80
C080
FF80
C040
DE40
D540
D540
D140
DF20
D0A0
D6A0
D6A0
C620
FFC0
F080
1300
3100
3E00
1C00
ENDCHAR
STARTCHAR rdotbelowmacron
ENCODING 7773
SWIDTH 843 0
DWIDTH 12 0
BBX 11 20 1 -6
BITMAP
3F00
4E80
C080
FF80
C040
DE40
D540
D540
D140
DF20
D0A0
D6A0
D6A0
C620
FFC0
F080
1300
3100
3E00
1C00
ENDCHAR
STARTCHAR Rlinebelow
ENCODING 7774
SWIDTH 843 0
DWIDTH 12 0
BBX 11 16 1 -5
BITMAP
7F80
DE40
D140
D540
D540
D140
DF20
D0A0
D6A0
D6A0
C620
FFC0
EE80
6080
7F00
7E00
ENDCHAR
STARTCHAR rlinebelow
ENCODING 7775
SWIDTH 843 0
DWIDTH 12 0
BBX 11 16 1 -5
BITMAP
7F80
DE40
D140
D540
D540
D140
DF20
D0A0
D6A0
D6A0
C620
FFC0
EE80
6080
7F00
7E00
ENDCHAR
STARTCHAR Sdotaccent
ENCODING 7776
SWIDTH 750 0
DWIDTH 11 0
BBX 10 16 0 -2
BITMAP
0700
0B00
1900
16C0
2040
4F40
5380
D080
EC40
F3C0
7EC0
20C0
4F40
C040
FF80
FE00
ENDCHAR
STARTCHAR sdotaccent
ENCODING 7777
SWIDTH 750 0
DWIDTH 11 0
BBX 10 16 0 -2
BITMAP
0700
0B00
1900
16C0
2040
4F40
5380
D080
EC40
F3C0
7EC0
20C0
4F40
C040
FF80
FE00
ENDCHAR
STARTCHAR Sdotbelow
ENCODING 7778
SWIDTH 750 0
DWIDTH 11 0
BBX 10 17 0 -6
BITMAP
1FC0
2040
4F40
D380
D040
EC40
F3C0
7EC0
20C0
4F40
C040
FF80
F900
1B00
1900
1E00
1C00
ENDCHAR
STARTCHAR sdotbelow
ENCODING 7779
SWIDTH 750 0
DWIDTH 11 0
BBX 10 17 0 -6
BITMAP
1FC0
2040
4F40
D380
D040
EC40
F3C0
7EC0
20C0
4F40
C040
FF80
F900
1B00
1900
1E00
1C00
ENDCHAR
STARTCHAR Tdotbelow
ENCODING 7788
SWIDTH 756 0
DWIDTH 11 0
BBX 11 17 0 -6
BITMAP
7FE0
4020
DFA0
FAC0
FA80
1B00
1B00
1B00
1B00
1B00
1900
1E00
1900
1B00
1900
1E00
1C00
ENDCHAR
STARTCHAR tdotbelow
ENCODING 7789
SWIDTH 756 0
DWIDTH 11 0
BBX 11 17 0 -6
BITMAP
7FE0
4020
DFA0
FAC0
FA80
1B00
1B00
1B00
1B00
1B00
1900
1E00
1900
1B00
1900
1E00
1C00
ENDCHAR
STARTCHAR Tlinebelow
ENCODING 7790
SWIDTH 756 0
DWIDTH 11 0
BBX 11 16 0 -5
BITMAP
7FE0
5FA0
C220
FAC0
FA80
1B00
1B00
1B00
1B00
1B00
1900
1F80
2740
6040
7F80
7F00
ENDCHAR
STARTCHAR tlinebelow
ENCODING 7791
SWIDTH 756 0
DWIDTH 11 0
BBX 11 16 0 -5
BITMAP
7FE0
5FA0
C220
FAC0
FA80
1B00
1B00
1B00
1B00
1B00
1900
1F80
2740
6040
7F80
7F00
ENDCHAR
STARTCHAR Wgrave
ENCODING 7808
SWIDTH 931 0
DWIDTH 13 0
BBX 13 16 0 -2
BITMAP
1FC0
3020
3820
27D8
4588
CDA8
CDA8
CFA8
CC68
CD68
CAA8
6D68
6950
6110
7FE0
3BC0
ENDCHAR
STARTCHAR wgrave
ENCODING 7809
SWIDTH 931 0
DWIDTH 13 0
BBX 13 16 0 -2
BITMAP
1FC0
3020
3820
27D8
4588
CDA8
CDA8
CFA8
CC68
CD68
CAA8
6D68
6950
6110
7FE0
3BC0
ENDCHAR
STARTCHAR Wacute
ENCODING 7810
SWIDTH 931 0
DWIDTH 13 0
BBX 13 16 0 -2
BITMAP
07E0
1820
1820
27D8
4488
CDA8
CDA8
CFA8
CC68
CD68
CAA8
6D68
6950
6110
7FE0
3BC0
ENDCHAR
STARTCHAR wacute
ENCODING 7811
SWIDTH 931 0
DWIDTH 13 0
BBX 13 16 0 -2
BITMAP
07E0
1820
1820
27D8
4488
CDA8
CDA8
CFA8
CC68
CD68
CAA8
6D68
6950
6110
7FE0
3BC0
ENDCHAR
STARTCHAR Wdieresis
ENCODING 7812
SWIDTH 931 0
DWIDTH 13 0
BBX 13 16 0 -2
BITMAP
0EE0
1560
3120
3FF8
4388
4DA8
CDA8
CFA8
CC68
CD68
CAA8
ED68
6950
6110
7FE0
3BC0
ENDCHAR
STARTCHAR wdieresis
ENCODING 7813
SWIDTH 931 0
DWIDTH 13 0
BBX 13 16 0 -2
BITMAP
0EE0
1560
3120
3FF8
4388
4DA8
CDA8
CFA8
CC68
CD68
CAA8
ED68
6950
6110
7FE0
3BC0
ENDCHAR
STARTCHAR Ydotaccent
ENCODING 7822
SWIDTH 805 0
DWIDTH 11 0
BBX 11 16 0 -2
BITMAP
0700
1A80
1880
2760
4720
D760
D760
D260
EAA0
E540
7240
3A80
3A80
1880
1F00
1E00
ENDCHAR
STARTCHAR ydotaccent
ENCODING 7823
SWIDTH 805 0
DWIDTH 11 0
BBX 11 16 0 -2
BITMAP
0700
1A80
1880
2760
4720
D760
D760
D260
EAA0
E540
7240
3A80
3A80
1880
1F00
1E00
ENDCHAR
STARTCHAR Zdotbelow
ENCODING 7826
SWIDTH 760 0
DWIDTH 11 0
BBX 10 17 0 -6
BITMAP
3FC0
6040
6F40
7CC0
7940
1280
1500
2900
4BC0
CFC0
C040
FFC0
F880
1A80
1880
1F00
1C00
ENDCHAR
STARTCHAR zdotbelow
ENCODING 7827
SWIDTH 760 0
DWIDTH 11 0
BBX 10 17 0 -6
BITMAP
3FC0
6040
6F40
7CC0
7940
1280
1500
2900
4BC0
CFC0
C040
FFC0
F880
1A80
1880
1F00
1C00
ENDCHAR
STARTCHAR tdieresis
ENCODING 7831
SWIDTH 756 0
DWIDTH 11 0
BBX 11 16 0 -2
BITMAP
1D80
2AC0
6240
5DA0
4020
DFA0
FAC0
FA80
1B00
1B00
1B00
1B00
1B00
1900
1E00
1C00
ENDCHAR
STARTCHAR Germandbls
ENCODING 7838
SWIDTH 859 0
DWIDTH 12 0
BBX 11 13 1 -2
BITMAP
7F80
C040
DE40
D140
D540
D5A0
D460
D760
D460
D5A0
C420
FFC0
EF00
ENDCHAR
STARTCHAR Adotbelow
ENCODING 7840
SWIDTH 830 0
DWIDTH 12 0
BBX 11 17 0 -6
BITMAP
0FC0
1040
1720
2AA0
2AA0
6B60
5060
4FE0
D060
D760
C720
FFE0
F8C0
1A80
1880
1F00
1E00
ENDCHAR
STARTCHAR adotbelow
ENCODING 7841
SWIDTH 830 0
DWIDTH 12 0
BBX 11 17 0 -6
BITMAP
0FC0
1040
1720
2AA0
2AA0
6B60
5060
4FE0
D060
D760
C720
FFE0
F8C0
1A80
1880
1F00
1E00
ENDCHAR
STARTCHAR Ahookabove
ENCODING 7842
SWIDTH 830 0
DWIDTH 12 0
BBX 11 17 0 -2
BITMAP
0700
1F80
1F80
0880
1740
1040
1720
2AA0
2AA0
6B60
5060
4FE0
D060
D760
C720
FBE0
F3C0
ENDCHAR
STARTCHAR ahookabove
ENCODING 7843
SWIDTH 830 0
DWIDTH 12 0
BBX 11 17 0 -2
BITMAP
0700
1F80
1F80
0880
1740
1040
1720
2AA0
2AA0
6B60
5060
4FE0
D060
D760
C720
FBE0
F3C0
ENDCHAR
STARTCHAR Acircumflexacute
ENCODING 7844
SWIDTH 830 0
DWIDTH 12 0
BBX 11 19 0 -2
BITMAP
01E0
02A0
0640
0980
1240
3FC0
3040
3040
1720
2AA0
2AA0
6B60
5060
4FE0
D060
D760
C720
FBE0
F3C0
ENDCHAR
STARTCHAR acircumflexacute
ENCODING 7845
SWIDTH 830 0
DWIDTH 12 0
BBX 11 19 0 -2
BITMAP
01E0
02A0
0640
0980
1240
3FC0
3040
3040
1720
2AA0
2AA0
6B60
5060
4FE0
D060
D760
C720
FBE0
F3C0
ENDCHAR
STARTCHAR Acircumflexgrave
ENCODING 7846
SWIDTH 830 0
DWIDTH 12 0
BBX 11 19 0 -2
BITMAP
0180
02C0
0640
09C0
1240
3FC0
3040
3040
1720
2AA0
2AA0
6B60
5060
4FE0
D060
D760
C720
FBE0
F3C0
ENDCHAR
STARTCHAR acircumflexgrave
ENCODING 7847
SWIDTH 830 0
DWIDTH 12 0
BBX 11 19 0 -2
BITMAP
0180
02C0
0640
09C0
1240
3FC0
3040
3040
1720
2AA0
2AA0
6B60
5060
4FE0
D060
D760
C720
FBE0
F3C0
ENDCHAR
STARTCHAR Acircumflexhookabove
ENCODING 7848
SWIDTH 830 0
DWIDTH 12 0
BBX 12 21 0 -2
BITMAP
01E0
02D0
07F0
0770
0320
0CC0
1240
3FC0
3040
3040
1720
2AA0
2AA0
6B60
5050
4FD0
D050
D750
C710
FBE0
F3C0
ENDCHAR
STARTCHAR acircumflexhookabove
ENCODING 7849
SWIDTH 830 0
DWIDTH 12 0
BBX 12 21 0 -2
BITMAP
01E0
02D0
07F0
0770
0320
0CC0
1240
3FC0
3040
3040
1720
2AA0
2AA0
6B60
5050
4FD0
D050
D750
C710
FBE0
F3C0
ENDCHAR
STARTCHAR Acircumflextilde
ENCODING 7850
SWIDTH 830 0
DWIDTH 12 0
BBX 11 20 0 -2
BITMAP
0FC0
1440
3340
3F40
3880
3240
3FC0
3040
3040
1720
2AA0
2AA0
6B60
5060
4FE0
D060
D760
C720
FBE0
F3C0
ENDCHAR
STARTCHAR acircumflextilde
ENCODING 7851
SWIDTH 830 0
DWIDTH 12 0
BBX 11 20 0 -2
BITMAP
0FC0
1440
3340
3F40
3880
3240
3FC0
3040
3040
1720
2AA0
2AA0
6B60
5060
4FE0
D060
D760
C720
FBE0
F3C0
ENDCHAR
STARTCHAR Acircumflexdotbelow
ENCODING 7852
SWIDTH 830 0
DWIDTH 12 0
BBX 11 21 0 -6
BITMAP
0700
18C0
1240
3FC0
3040
3040
1720
2AA0
2AA0
6B60
5060
4FE0
D060
D760
C720
FFE0
F8C0
1A80
1880
1F00
1E00
ENDCHAR
STARTCHAR acircumflexdotbelow
ENCODING 7853
SWIDTH 830 0
DWIDTH 12 0
BBX 11 21 0 -6
BITMAP
0700
18C0
1240
3FC0
3040
3040
1720
2AA0
2AA0
6B60
5060
4FE0
D060
D760
C720
FFE0
F8C0
1A80
1880
1F00
1E00
ENDCHAR
STARTCHAR Abreveacute
ENCODING 7854
SWIDTH 830 0
DWIDTH 12 0
BBX 11 20 0 -2
BITMAP
0180
0780
0C80
0CC0
1340
38C0
3780
3F80
3040
1740
2AA0
2AA0
6B60
5060
4FE0
D060
D760
C720
FBE0
F3C0
ENDCHAR
STARTCHAR abreveacute
ENCODING 7855
SWIDTH 830 0
DWIDTH 12 0
BBX 11 20 0 -2
BITMAP
0180
0780
0C80
0CC0
1340
38C0
3780
3F80
3040
1740
2AA0
2AA0
6B60
5060
4FE0
D060
D760
C720
FBE0
F3C0
ENDCHAR
STARTCHAR Abrevegrave
ENCODING 7856
SWIDTH 830 0
DWIDTH 12 0
BBX 11 20 0 -2
BITMAP
0C00
1F00
1900
1DC0
1340
38C0
3780
3F80
3040
1740
2AA0
2AA0
6B60
5060
4FE0
D060
D760
C720
FBE0
F3C0
ENDCHAR
STARTCHAR abrevegrave
ENCODING 7857
SWIDTH 830 0
DWIDTH 12 0
BBX 11 20 0 -2
BITMAP
0C00
1F00
1900
1DC0
1340
38C0
3780
3F80
3040
1740
2AA0
2AA0
6B60
5060
4FE0
D060
D760
C720
FBE0
F3C0
ENDCHAR
STARTCHAR Abrevehookabove
ENCODING 7858
SWIDTH 830 0
DWIDTH 12 0
BBX 11 21 0 -2
BITMAP
0780
0B40
1C80
1D40
0FC0
1340
38C0
3780
3F80
3040
1740
2AA0
2AA0
6B60
5060
4FE0
D060
D760
C720
FBE0
F3C0
ENDCHAR
STARTCHAR abrevehookabove
ENCODING 7859
SWIDTH 830 0
DWIDTH 12 0
BBX 11 21 0 -2
BITMAP
0780
0B40
1C80
1D40
0FC0
1340
38C0
3780
3F80
3040
1740
2AA0
2AA0
6B60
5060
4FE0
D060
D760
C720
FBE0
F3C0
ENDCHAR
STARTCHAR Abrevetilde
ENCODING 7860
SWIDTH 830 0
DWIDTH 12 0
BBX 11 20 0 -2
BITMAP
0EC0
1740
3040
3FC0
3340
38C0
3780
3F80
3040
1740
2AA0
2AA0
6B60
5060
4FE0
D060
D760
C720
FBE0
F3C0
ENDCHAR
STARTCHAR abrevetilde
ENCODING 7861
SWIDTH 830 0
DWIDTH 12 0
BBX 11 20 0 -2
BITMAP
0EC0
1740
3040
3FC0
3340
38C0
3780
3F80
3040
1740
2AA0
2AA0
6B60
5060
4FE0
D060
D760
C720
FBE0
F3C0
ENDCHAR
STARTCHAR Abrevedotbelow
ENCODING 7862
SWIDTH 830 0
DWIDTH 12 0
BBX 11 21 0 -6
BITMAP
0CC0
1340
38C0
3780
3F80
3040
1740
2AA0
2AA0
6B60
5060
4FE0
D060
D760
C720
FFE0
F8C0
1A80
1880
1F00
1E00
ENDCHAR
STARTCHAR abrevedotbelow
ENCODING 7863
SWIDTH 830 0
DWIDTH 12 0
BBX 11 21 0 -6
BITMAP
0CC0
1340
38C0
3780
3F80
3040
1740
2AA0
2AA0
6B60
5060
4FE0
D060
D760
C720
FFE0
F8C0
1A80
1880
1F00
1E00
ENDCHAR
STARTCHAR Edotbelow
ENCODING 7864
SWIDTH 754 0
DWIDTH 11 0
BBX 9 17 1 -6
BITMAP
7F80
C080
DF80
D700
D100
DE80
D080
D700
D780
DF80
C080
FF80
F100
3500
3100
3E00
3800
ENDCHAR
STARTCHAR edotbelow
ENCODING 7865
SWIDTH 754 0
DWIDTH 11 0
BBX 9 17 1 -6
BITMAP
7F80
C080
DF80
D700
D100
DE80
D080
D700
D780
DF80
C080
FF80
F100
3500
3100
3E00
3800
ENDCHAR
STARTCHAR Ehookabove
ENCODING 7866
SWIDTH 754 0
DWIDTH 11 0
BBX 9 17 1 -2
BITMAP
1E00
2D00
7F00
3100
4E80
C080
DF80
D700
D100
DE80
D080
D700
D780
DF80
C080
FF80
FF00
ENDCHAR
STARTCHAR ehookabove
ENCODING 7867
SWIDTH 754 0
DWIDTH 11 0
BBX 9 17 1 -2
BITMAP
1E00
2D00
7F00
3100
4E80
C080
DF80
D700
D100
DE80
D080
D700
D780
DF80
C080
FF80
FF00
ENDCHAR
STARTCHAR Etilde
ENCODING 7868
SWIDTH 754 0
DWIDTH 11 0
BBX 9 16 1 -2
BITMAP
3F00
4E80
D880
E780
C080
DF80
D700
D100
DE80
D080
D700
D780
DF80
C080
FF80
FF00
ENDCHAR
STARTCHAR etilde
ENCODING 7869
SWIDTH 754 0
DWIDTH 11 0
BBX 9 16 1 -2
BITMAP
3F00
4E80
D880
E780
C080
DF80
D700
D100
DE80
D080
D700
D780
DF80
C080
FF80
FF00
ENDCHAR
STARTCHAR Ecircumflexacute
ENCODING 7870
SWIDTH 754 0
DWIDTH 11 0
BBX 9 19 1 -2
BITMAP
0380
0580
0C80
1300
2480
7F80
C080
C080
DF80
D700
D100
DE80
D080
D700
D780
DF80
C080
FF80
FF00
ENDCHAR
STARTCHAR ecircumflexacute
ENCODING 7871
SWIDTH 754 0
DWIDTH 11 0
BBX 9 19 1 -2
BITMAP
0380
0580
0C80
1300
2480
7F80
C080
C080
DF80
D700
D100
DE80
D080
D700
D780
DF80
C080
FF80
FF00
ENDCHAR
STARTCHAR Ecircumflexgrave
ENCODING 7872
SWIDTH 754 0
DWIDTH 11 0
BBX 9 19 1 -2
BITMAP
0700
0F80
0C80
1300
2480
7F80
C080
C080
DF80
D700
D100
DE80
D080
D700
D780
DF80
C080
FF80
FF00
ENDCHAR
STARTCHAR ecircumflexgrave
ENCODING 7873
SWIDTH 754 0
DWIDTH 11 0
BBX 9 19 1 -2
BITMAP
0700
0F80
0C80
1300
2480
7F80
C080
C080
DF80
D700
D100
DE80
D080
D700
D780
DF80
C080
FF80
FF00
ENDCHAR
STARTCHAR Ecircumflexhookabove
ENCODING 7874
SWIDTH 754 0
DWIDTH 11 0
BBX 10 21 1 -2
BITMAP
0380
05C0
0F40
0C40
07C0
1980
2480
7F80
C040
C040
DF40
D780
D100
DE80
D080
D700
D780
DF40
C040
FF80
FF00
ENDCHAR
STARTCHAR ecircumflexhookabove
ENCODING 7875
SWIDTH 754 0
DWIDTH 11 0
BBX 10 21 1 -2
BITMAP
0380
05C0
0F40
0C40
07C0
1980
2480
7F80
C040
C040
DF40
D780
D100
DE80
D080
D700
D780
DF40
C040
FF80
FF00
ENDCHAR
STARTCHAR Ecircumflextilde
ENCODING 7876
SWIDTH 754 0
DWIDTH 11 0
BBX 9 20 1 -2
BITMAP
1F00
2880
4680
FF00
F100
A480
7F80
C080
C080
DF80
D700
D100
DE80
D080
D700
D780
DF80
C080
FF80
FF00
ENDCHAR
STARTCHAR ecircumflextilde
ENCODING 7877
SWIDTH 754 0
DWIDTH 11 0
BBX 9 20 1 -2
BITMAP
1F00
2880
4680
FF00
F100
A480
7F80
C080
C080
DF80
D700
D100
DE80
D080
D700
D780
DF80
C080
FF80
FF00
ENDCHAR
STARTCHAR Ecircumflexdotbelow
ENCODING 7878
SWIDTH 754 0
DWIDTH 11 0
BBX 9 21 1 -6
BITMAP
0E00
3180
4480
FF80
C080
C080
DF80
D700
D100
DE80
D080
D700
D780
DF80
C080
FF80
F100
3600
3200
3C00
3800
ENDCHAR
STARTCHAR ecircumflexdotbelow
ENCODING 7879
SWIDTH 754 0
DWIDTH 11 0
BBX 9 21 1 -6
BITMAP
0E00
3180
4480
FF80
C080
C080
DF80
D700
D100
DE80
D080
D700
D780
DF80
C080
FF80
F100
3600
3200
3C00
3800
ENDCHAR
STARTCHAR Ihookabove
ENCODING 7880
SWIDTH 705 0
DWIDTH 10 0
BBX 9 17 0 -2
BITMAP
0E00
3F00
3D00
1300
2E80
4080
CF80
E480
F500
3500
3500
3500
3580
4F80
C080
FF80
FF00
ENDCHAR
STARTCHAR ihookabove
ENCODING 7881
SWIDTH 705 0
DWIDTH 10 0
BBX 9 17 0 -2
BITMAP
0E00
3F00
3D00
1300
2E80
4080
CF80
E480
F500
3500
3500
3500
3580
4F80
C080
FF80
FF00
ENDCHAR
STARTCHAR Idotbelow
ENCODING 7882
SWIDTH 705 0
DWIDTH 10 0
BBX 9 17 0 -6
BITMAP
3F80
4080
CF80
E480
F500
3500
3500
3500
3580
4F80
C080
FF80
F100
3500
3100
3E00
3C00
ENDCHAR
STARTCHAR idotbelow
ENCODING 7883
SWIDTH 705 0
DWIDTH 10 0
BBX 9 17 0 -6
BITMAP
3F80
4080
CF80
E480
F500
3500
3500
3500
3580
4F80
C080
FF80
F100
3500
3100
3E00
3C00
ENDCHAR
STARTCHAR Odotbelow
ENCODING 7884
SWIDTH 837 0
DWIDTH 12 0
BBX 11 16 0 -5
BITMAP
1FC0
27A0
4860
4B60
CB60
CB60
CB60
CB60
C860
E7A0
E020
7FC0
7880
0A80
1F00
1E00
ENDCHAR
STARTCHAR odotbelow
ENCODING 7885
SWIDTH 837 0
DWIDTH 12 0
BBX 11 16 0 -5
BITMAP
1FC0
27A0
4860
4B60
CB60
CB60
CB60
CB60
C860
E7A0
E020
7FC0
7880
0A80
1F00
1E00
ENDCHAR
STARTCHAR Ohookabove
ENCODING 7886
SWIDTH 837 0
DWIDTH 12 0
BBX 11 18 0 -2
BITMAP
0700
0F80
1F80
1980
0F00
10C0
27A0
4860
4B60
CB60
CB60
CB60
CB60
C860
E7A0
6020
7FC0
3F00
ENDCHAR
STARTCHAR ohookabove
ENCODING 7887
SWIDTH 837 0
DWIDTH 12 0
BBX 11 18 0 -2
BITMAP
0700
0F80
1F80
1980
0F00
10C0
27A0
4860
4B60
CB60
CB60
CB60
CB60
C860
E7A0
6020
7FC0
3F00
ENDCHAR
STARTCHAR Ocircumflexacute
ENCODING 7888
SWIDTH 837 0
DWIDTH 12 0
BBX 11 20 0 -2
BITMAP
00C0
01C0
0620
06C0
1F40
1040
3FC0
3040
27A0
4860
4B60
CB60
CB60
CB60
CB60
C860
E7A0
6020
7FC0
3F00
ENDCHAR
STARTCHAR ocircumflexacute
ENCODING 7889
SWIDTH 837 0
DWIDTH 12 0
BBX 11 20 0 -2
BITMAP
00C0
01C0
0620
06C0
1F40
1040
3FC0
3040
27A0
4860
4B60
CB60
CB60
CB60
CB60
C860
E7A0
6020
7FC0
3F00
ENDCHAR
STARTCHAR Ocircumflexgrave
ENCODING 7890
SWIDTH 837 0
DWIDTH 12 0
BBX 11 20 0 -2
BITMAP
0100
03C0
0620
0640
1FC0
1040
3FC0
3040
27A0
4860
4B60
CB60
CB60
CB60
CB60
C860
E7A0
6020
7FC0
3F00
ENDCHAR
STARTCHAR ocircumflexgrave
ENCODING 7891
SWIDTH 837 0
DWIDTH 12 0
BBX 11 20 0 -2
BITMAP
0100
03C0
0620
0640
1FC0
1040
3FC0
3040
27A0
4860
4B60
CB60
CB60
CB60
CB60
C860
E7A0
6020
7FC0
3F00
ENDCHAR
STARTCHAR Ocircumflexhookabove
ENCODING 7892
SWIDTH 837 0
DWIDTH 12 0
BBX 12 21 0 -2
BITMAP
01E0
02D0
07F0
0750
05E0
1F40
1040
3FC0
3040
27A0
4850
4B50
CB50
CB50
CB50
CB50
C850
E7A0
6020
7FC0
3F00
ENDCHAR
STARTCHAR ocircumflexhookabove
ENCODING 7893
SWIDTH 837 0
DWIDTH 12 0
BBX 12 21 0 -2
BITMAP
01E0
02D0
07F0
0750
05E0
1F40
1040
3FC0
3040
27A0
4850
4B50
CB50
CB50
CB50
CB50
C850
E7A0
6020
7FC0
3F00
ENDCHAR
STARTCHAR Ocircumflextilde
ENCODING 7894
SWIDTH 837 0
DWIDTH 12 0
BBX 11 20 0 -2
BITMAP
0CC0
1740
3040
3F80
3740
3040
3FC0
3040
27A0
4860
4B60
CB60
CB60
CB60
CB60
C860
E7A0
6020
7FC0
3F00
ENDCHAR
STARTCHAR ocircumflextilde
ENCODING 7895
SWIDTH 837 0
DWIDTH 12 0
BBX 11 20 0 -2
BITMAP
0CC0
1740
3040
3F80
3740
3040
3FC0
3040
27A0
4860
4B60
CB60
CB60
CB60
CB60
C860
E7A0
6020
7FC0
3F00
ENDCHAR
STARTCHAR Ocircumflexdotbelow
ENCODING 7896
SWIDTH 837 0
DWIDTH 12 0
BBX 11 20 0 -5
BITMAP
0200
1FC0
1040
3FC0
3040
27A0
4860
4B60
CB60
CB60
CB60
CB60
C860
E7A0
6060
7F80
0A80
1880
1F00
1E00
ENDCHAR
STARTCHAR ocircumflexdotbelow
ENCODING 7897
SWIDTH 837 0
DWIDTH 12 0
BBX 11 20 0 -5
BITMAP
0200
1FC0
1040
3FC0
3040
27A0
4860
4B60
CB60
CB60
CB60
CB60
C860
E7A0
6060
7F80
0A80
1880
1F00
1E00
ENDCHAR
STARTCHAR Ohornacute
ENCODING 7898
SWIDTH 847 0
DWIDTH 12 0
BBX 12 16 0 -2
BITMAP
1F80
2740
6070
7FB0
27D0
4850
4B50
CB50
CB50
CB50
CB50
C850
E7A0
6020
7FC0
3F00
ENDCHAR
STARTCHAR ohornacute
ENCODING 7899
SWIDTH 847 0
DWIDTH 12 0
BBX 12 16 0 -2
BITMAP
1F80
2740
6070
7FB0
27D0
4850
4B50
CB50
CB50
CB50
CB50
C850
E7A0
6020
7FC0
3F00
ENDCHAR
STARTCHAR Ohorngrave
ENCODING 7900
SWIDTH 847 0
DWIDTH 12 0
BBX 12 16 0 -2
BITMAP
3F80
6740
6070
7FB0
27D0
4850
4B50
CB50
CB50
CB50
CB50
C850
E7A0
6020
7FC0
3F00
ENDCHAR
STARTCHAR ohorngrave
ENCODING 7901
SWIDTH 847 0
DWIDTH 12 0
BBX 12 16 0 -2
BITMAP
3F80
6740
6070
7FB0
27D0
4850
4B50
CB50
CB50
CB50
CB50
C850
E7A0
6020
7FC0
3F00
ENDCHAR
STARTCHAR Ohornhookabove
ENCODING 7902
SWIDTH 847 0
DWIDTH 12 0
BBX 12 18 0 -2
BITMAP
0700
0F80
1F80
1980
0F70
10B0
27D0
4850
4B50
CB50
CB50
CB50
CB50
C850
E7A0
6020
7FC0
3F00
ENDCHAR
STARTCHAR ohornhookabove
ENCODING 7903
SWIDTH 847 0
DWIDTH 12 0
BBX 12 18 0 -2
BITMAP
0700
0F80
1F80
1980
0F70
10B0
27D0
4850
4B50
CB50
CB50
CB50
CB50
C850
E7A0
6020
7FC0
3F00
ENDCHAR
STARTCHAR Ohorntilde
ENCODING 7904
SWIDTH 847 0
DWIDTH 12 0
BBX 12 17 0 -2
BITMAP
0F80
1040
2740
6EF0
7130
27D0
4850
4B50
CB50
CB50
CB50
CB50
C850
E7A0
6020
7FC0
3F00
ENDCHAR
STARTCHAR ohorntilde
ENCODING 7905
SWIDTH 847 0
DWIDTH 12 0
BBX 12 17 0 -2
BITMAP
0F80
1040
2740
6EF0
7130
27D0
4850
4B50
CB50
CB50
CB50
CB50
C850
E7A0
6020
7FC0
3F00
ENDCHAR
STARTCHAR Ohorndotbelow
ENCODING 7906
SWIDTH 847 0
DWIDTH 12 0
BBX 12 18 0 -5
BITMAP
0030
0050
1FB0
27D0
4850
4B50
CB50
CB50
CB50
CB50
C850
E7A0
6060
7F80
0A80
1880
1F00
1E00
ENDCHAR
STARTCHAR ohorndotbelow
ENCODING 7907
SWIDTH 847 0
DWIDTH 12 0
BBX 12 18 0 -5
BITMAP
0030
0050
1FB0
27D0
4850
4B50
CB50
CB50
CB50
CB50
C850
E7A0
6060
7F80
0A80
1880
1F00
1E00
ENDCHAR
STARTCHAR Udotbelow
ENCODING 7908
SWIDTH 846 0
DWIDTH 12 0
BBX 10 16 1 -5
BITMAP
7BC0
DAC0
D6C0
D6C0
D6C0
D6C0
D6C0
D6C0
D0C0
CF40
C0C0
FF00
1500
3100
3E00
3C00
ENDCHAR
STARTCHAR udotbelow
ENCODING 7909
SWIDTH 846 0
DWIDTH 12 0
BBX 10 16 1 -5
BITMAP
7BC0
DAC0
D6C0
D6C0
D6C0
D6C0
D6C0
D6C0
D0C0
CF40
C0C0
FF00
1500
3100
3E00
3C00
ENDCHAR
STARTCHAR Uhookabove
ENCODING 7910
SWIDTH 846 0
DWIDTH 12 0
BBX 10 18 1 -2
BITMAP
0F00
1680
3E80
3900
1B00
66C0
DAC0
D6C0
D6C0
D6C0
D6C0
D6C0
D6C0
D0C0
CF40
E040
FF80
7E00
ENDCHAR
STARTCHAR uhookabove
ENCODING 7911
SWIDTH 846 0
DWIDTH 12 0
BBX 10 18 1 -2
BITMAP
0F00
1680
3E80
3900
1B00
66C0
DAC0
D6C0
D6C0
D6C0
D6C0
D6C0
D6C0
D0C0
CF40
E040
FF80
7E00
ENDCHAR
STARTCHAR Uhornacute
ENCODING 7912
SWIDTH 856 0
DWIDTH 12 0
BBX 11 16 1 -2
BITMAP
3F00
4E80
C1E0
FF60
DAA0
D6A0
D6A0
D6A0
D6A0
D6A0
D6A0
D0A0
CF20
E040
FF80
7E00
ENDCHAR
STARTCHAR uhornacute
ENCODING 7913
SWIDTH 856 0
DWIDTH 12 0
BBX 11 16 1 -2
BITMAP
3F00
4E80
C1E0
FF60
DAA0
D6A0
D6A0
D6A0
D6A0
D6A0
D6A0
D0A0
CF20
E040
FF80
7E00
ENDCHAR
STARTCHAR Uhorngrave
ENCODING 7914
SWIDTH 856 0
DWIDTH 12 0
BBX 11 16 1 -2
BITMAP
3F00
5E80
C0E0
FF60
DAA0
D6A0
D6A0
D6A0
D6A0
D6A0
D6A0
D0A0
CF20
E040
FF80
7E00
ENDCHAR
STARTCHAR uhorngrave
ENCODING 7915
SWIDTH 856 0
DWIDTH 12 0
BBX 11 16 1 -2
BITMAP
3F00
5E80
C0E0
FF60
DAA0
D6A0
D6A0
D6A0
D6A0
D6A0
D6A0
D0A0
CF20
E040
FF80
7E00
ENDCHAR
STARTCHAR Uhornhookabove
ENCODING 7916
SWIDTH 856 0
DWIDTH 12 0
BBX 11 18 1 -2
BITMAP
0F00
1680
3500
3900
1FE0
6760
DAA0
D6A0
D6A0
D6A0
D6A0
D6A0
D6A0
D0A0
CF20
E040
FF80
7E00
ENDCHAR
STARTCHAR uhornhookabove
ENCODING 7917
SWIDTH 856 0
DWIDTH 12 0
BBX 11 18 1 -2
BITMAP
0F00
1680
3500
3900
1FE0
6760
DAA0
D6A0
D6A0
D6A0
D6A0
D6A0
D6A0
D0A0
CF20
E040
FF80
7E00
ENDCHAR
STARTCHAR Uhorntilde
ENCODING 7918
SWIDTH 856 0
DWIDTH 12 0
BBX 11 16 1 -2
BITMAP
3F00
4480
DAE0
E760
DAA0
D6A0
D6A0
D6A0
D6A0
D6A0
D6A0
D0A0
CF20
E040
FF80
7E00
ENDCHAR
STARTCHAR uhorntilde
ENCODING 7919
SWIDTH 856 0
DWIDTH 12 0
BBX 11 16 1 -2
BITMAP
3F00
4480
DAE0
E760
DAA0
D6A0
D6A0
D6A0
D6A0
D6A0
D6A0
D0A0
CF20
E040
FF80
7E00
ENDCHAR
STARTCHAR Uhorndotbelow
ENCODING 7920
SWIDTH 856 0
DWIDTH 12 0
BBX 11 18 1 -5
BITMAP
0060
01A0
7A60
DAA0
D6A0
D6A0
D6A0
D6A0
D6A0
D6A0
D0A0
CF40
C0C0
FF00
1500
3100
3E00
3C00
ENDCHAR
STARTCHAR uhorndotbelow
ENCODING 7921
SWIDTH 856 0
DWIDTH 12 0
BBX 11 18 1 -5
BITMAP
0060
01A0
7A60
DAA0
D6A0
D6A0
D6A0
D6A0
D6A0
D6A0
D0A0
CF40
C0C0
FF00
1500
3100
3E00
3C00
ENDCHAR
STARTCHAR Ygrave
ENCODING 7922
SWIDTH 805 0
DWIDTH 11 0
BBX 11 16 0 -2
BITMAP
1F80
2040
3040
4FA0
4720
D760
D760
D260
EAA0
E540
7240
3A80
3A80
1880
1F00
1E00
ENDCHAR
STARTCHAR ygrave
ENCODING 7923
SWIDTH 805 0
DWIDTH 11 0
BBX 11 16 0 -2
BITMAP
1F80
2040
3040
4FA0
4720
D760
D760
D260
EAA0
E540
7240
3A80
3A80
1880
1F00
1E00
ENDCHAR
STARTCHAR Ydotbelow
ENCODING 7924
SWIDTH 805 0
DWIDTH 11 0
BBX 11 17 0 -6
BITMAP
3DE0
4720
D760
D760
D260
EAA0
E540
7240
3A80
3A80
1880
1F00
1880
1A80
1880
1F00
1C00
ENDCHAR
STARTCHAR ydotbelow
ENCODING 7925
SWIDTH 805 0
DWIDTH 11 0
BBX 11 17 0 -6
BITMAP
3DE0
4720
D760
D760
D260
EAA0
E540
7240
3A80
3A80
1880
1F00
1880
1A80
1880
1F00
1C00
ENDCHAR
STARTCHAR Yhookabove
ENCODING 7926
SWIDTH 805 0
DWIDTH 11 0
BBX 11 17 0 -2
BITMAP
0700
1F80
1F80
1880
2760
4720
D760
D760
D260
EAA0
E540
7240
3A80
3A80
1880
1F00
1E00
ENDCHAR
STARTCHAR yhookabove
ENCODING 7927
SWIDTH 805 0
DWIDTH 11 0
BBX 11 17 0 -2
BITMAP
0700
1F80
1F80
1880
2760
4720
D760
D760
D260
EAA0
E540
7240
3A80
3A80
1880
1F00
1E00
ENDCHAR
STARTCHAR Ytilde
ENCODING 7928
SWIDTH 805 0
DWIDTH 11 0
BBX 11 16 0 -2
BITMAP
1F80
3740
3840
47A0
4720
D760
D760
D260
EAA0
E540
7240
3A80
3A80
1880
1F00
1E00
ENDCHAR
STARTCHAR ytilde
ENCODING 7929
SWIDTH 805 0
DWIDTH 11 0
BBX 11 16 0 -2
BITMAP
1F80
3740
3840
47A0
4720
D760
D760
D260
EAA0
E540
7240
3A80
3A80
1880
1F00
1E00
ENDCHAR
STARTCHAR enspace
ENCODING 8192
SWIDTH 500 0
DWIDTH 7 0
BBX 1 1 0 0
BITMAP
00
ENDCHAR
STARTCHAR emspace
ENCODING 8193
SWIDTH 1000 0
DWIDTH 14 0
BBX 1 1 0 0
BITMAP
00
ENDCHAR
STARTCHAR uni2002
ENCODING 8194
SWIDTH 500 0
DWIDTH 7 0
BBX 1 1 0 0
BITMAP
00
ENDCHAR
STARTCHAR uni2003
ENCODING 8195
SWIDTH 1000 0
DWIDTH 14 0
BBX 1 1 0 0
BITMAP
00
ENDCHAR
STARTCHAR space.tab_en
ENCODING 8199
SWIDTH 1100 0
DWIDTH 15 0
BBX 1 1 0 0
BITMAP
00
ENDCHAR
STARTCHAR uni2010
ENCODING 8208
SWIDTH 520 0
DWIDTH 7 0
BBX 7 5 0 2
BITMAP
3E
5E
C2
FE
FC
ENDCHAR
STARTCHAR figuredash
ENCODING 8210
SWIDTH 834 0
DWIDTH 12 0
BBX 10 5 1 2
BITMAP
3FC0
DFC0
C040
FFC0
FF80
ENDCHAR
STARTCHAR endash
ENCODING 8211
SWIDTH 834 0
DWIDTH 12 0
BBX 10 5 1 2
BITMAP
3FC0
DFC0
C040
FFC0
FF80
ENDCHAR
STARTCHAR emdash
ENCODING 8212
SWIDTH 1234 0
DWIDTH 17 0
BBX 16 5 1 2
BITMAP
3FFE
DFFD
C001
FFFE
FFFC
ENDCHAR
STARTCHAR horizontalbar
ENCODING 8213
SWIDTH 1234 0
DWIDTH 17 0
BBX 16 5 1 2
BITMAP
3FFE
DFFD
C001
FFFE
FFFC
ENDCHAR
STARTCHAR quoteleft
ENCODING 8216
SWIDTH 484 0
DWIDTH 7 0
BBX 6 8 0 3
BITMAP
1C
2C
5C
D4
DC
C4
FC
70
ENDCHAR
STARTCHAR quoteright
ENCODING 8217
SWIDTH 484 0
DWIDTH 7 0
BBX 6 8 0 3
BITMAP
3C
5C
C4
F4
FC
64
78
60
ENDCHAR
STARTCHAR quotesinglbase
ENCODING 8218
SWIDTH 484 0
DWIDTH 7 0
BBX 6 8 0 -3
BITMAP
3C
44
DC
C4
F4
FC
78
70
ENDCHAR
STARTCHAR quotedblleft
ENCODING 8220
SWIDTH 784 0
DWIDTH 11 0
BBX 11 8 0 3
BITMAP
3DE0
2AE0
5F40
D320
DAE0
C220
FFC0
F780
ENDCHAR
STARTCHAR quotedblright
ENCODING 8221
SWIDTH 784 0
DWIDTH 11 0
BBX 11 8 0 3
BITMAP
3FE0
5AE0
C660
FBE0
D2A0
6E40
F780
6700
ENDCHAR
STARTCHAR quotedblbase
ENCODING 8222
SWIDTH 784 0
DWIDTH 11 0
BBX 11 8 0 -3
BITMAP
3DC0
4220
DAE0
C660
FBE0
D2A0
7FC0
F700
ENDCHAR
STARTCHAR dagger
ENCODING 8224
SWIDTH 818 0
DWIDTH 11 0
BBX 11 13 0 -2
BITMAP
0F80
0880
1A80
2260
4FE0
C220
FAE0
FAC0
1A80
1A80
1880
1F00
1E00
ENDCHAR
STARTCHAR daggerdbl
ENCODING 8225
SWIDTH 818 0
DWIDTH 11 0
BBX 11 13 0 -2
BITMAP
0F80
38C0
4220
4FE0
C220
FAC0
FAC0
4220
CFE0
C220
F8C0
1F00
1E00
ENDCHAR
STARTCHAR bullet
ENCODING 8226
SWIDTH 543 0
DWIDTH 8 0
BBX 7 8 0 1
BITMAP
3E
42
DE
D6
DE
C2
FE
FC
ENDCHAR
STARTCHAR ellipsis
ENCODING 8230
SWIDTH 1210 0
DWIDTH 17 0
BBX 17 6 0 -2
BITMAP
3DE700
421880
CA5A80
C21880
FFFF00
FBDE00
ENDCHAR
STARTCHAR perthousand
ENCODING 8240
SWIDTH 1517 0
DWIDTH 21 0
BBX 21 13 0 -2
BITMAP
3EF000
4D9000
536000
DB6000
DB7E70
CD6DB8
E1B348
FEB768
7EF768
06F348
066D38
07FFF0
0679E0
ENDCHAR
STARTCHAR minute
ENCODING 8242
SWIDTH 456 0
DWIDTH 6 0
BBX 6 8 0 3
BITMAP
3C
64
4C
4C
4C
C4
F8
70
ENDCHAR
STARTCHAR second
ENCODING 8243
SWIDTH 766 0
DWIDTH 11 0
BBX 10 8 0 3
BITMAP
3FC0
6240
4AC0
4AC0
4AC0
C240
FF80
7700
ENDCHAR
STARTCHAR guilsinglleft
ENCODING 8249
SWIDTH 663 0
DWIDTH 9 0
BBX 9 9 0 0
BITMAP
0F80
3280
2C80
5700
5100
EE80
7080
7F00
1E00
ENDCHAR
STARTCHAR guilsinglright
ENCODING 8250
SWIDTH 663 0
DWIDTH 9 0
BBX 8 9 1 0
BITMAP
7C
D3
CD
FB
C3
5D
C2
FC
F0
ENDCHAR
STARTCHAR fraction
ENCODING 8260
SWIDTH 417 0
DWIDTH 6 0
BBX 6 13 0 -2
BITMAP
1C
24
6C
6C
6C
74
54
58
D8
D8
C8
F0
E0
ENDCHAR
STARTCHAR zero.sups
ENCODING 8304
SWIDTH 656 0
DWIDTH 9 0
BBX 7 9 1 2
BITMAP
7E
9A
BE
BE
BE
BE
A6
DA
FC
ENDCHAR
STARTCHAR foursuperior
ENCODING 8308
SWIDTH 608 0
DWIDTH 9 0
BBX 8 10 0 1
BITMAP
7F
5F
DF
D3
CF
E3
FF
7D
0E
0C
ENDCHAR
STARTCHAR five.sups
ENCODING 8309
SWIDTH 593 0
DWIDTH 8 0
BBX 8 10 0 1
BITMAP
3F
4F
56
4D
43
7F
5D
C1
FE
F8
ENDCHAR
STARTCHAR six.sups
ENCODING 8310
SWIDTH 628 0
DWIDTH 9 0
BBX 8 10 0 1
BITMAP
1F
2F
56
DF
D1
D5
D1
EF
7E
38
ENDCHAR
STARTCHAR seven.sups
ENCODING 8311
SWIDTH 577 0
DWIDTH 8 0
BBX 8 10 0 1
BITMAP
7F
5D
FB
F3
25
6A
6C
64
78
70
ENDCHAR
STARTCHAR eight.sups
ENCODING 8312
SWIDTH 638 0
DWIDTH 9 0
BBX 9 10 0 1
BITMAP
1F00
2C80
7680
7300
4E80
5D80
D180
EF80
7E00
3800
ENDCHAR
STARTCHAR nine.sups
ENCODING 8313
SWIDTH 628 0
DWIDTH 9 0
BBX 8 10 0 1
BITMAP
3F
4F
55
D1
EF
FD
2F
61
7E
78
ENDCHAR
STARTCHAR parenleft.sups
ENCODING 8317
SWIDTH 434 0
DWIDTH 6 0
BBX 5 11 0 2
BITMAP
38
48
58
E8
E8
E8
E8
E8
E8
F8
78
ENDCHAR
STARTCHAR parenright.sups
ENCODING 8318
SWIDTH 435 0
DWIDTH 6 0
BBX 5 11 0 2
BITMAP
30
48
D8
E8
28
28
28
28
48
F8
F0
ENDCHAR
STARTCHAR n.sups
ENCODING 8319
SWIDTH 673 0
DWIDTH 9 0
BBX 7 9 1 2
BITMAP
7E
9E
AA
BA
AA
AA
AA
9A
EE
ENDCHAR
STARTCHAR zero.sinf
ENCODING 8320
SWIDTH 656 0
DWIDTH 9 0
BBX 7 9 1 -1
BITMAP
7E
9A
BE
BE
BE
BE
A6
DA
FC
ENDCHAR
STARTCHAR one.sinf
ENCODING 8321
SWIDTH 557 0
DWIDTH 8 0
BBX 8 10 0 -2
BITMAP
3E
5A
7A
7A
3A
3A
5F
C1
FE
FC
ENDCHAR
STARTCHAR two.sinf
ENCODING 8322
SWIDTH 585 0
DWIDTH 8 0
BBX 8 10 0 -2
BITMAP
3F
7D
7B
77
3A
5F
DF
C1
FE
FC
ENDCHAR
STARTCHAR three.sinf
ENCODING 8323
SWIDTH 584 0
DWIDTH 8 0
BBX 8 10 0 -2
BITMAP
3E
5D
FA
2D
63
7F
5D
C1
FE
F8
ENDCHAR
STARTCHAR four.sinf
ENCODING 8324
SWIDTH 620 0
DWIDTH 9 0
BBX 8 10 0 -2
BITMAP
7F
5F
DF
D3
CF
C3
FF
7D
0E
0C
ENDCHAR
STARTCHAR five.sinf
ENCODING 8325
SWIDTH 593 0
DWIDTH 8 0
BBX 8 10 0 -2
BITMAP
3F
4F
56
4D
43
7F
5D
C1
FE
F8
ENDCHAR
STARTCHAR six.sinf
ENCODING 8326
SWIDTH 628 0
DWIDTH 9 0
BBX 8 10 0 -2
BITMAP
1F
2F
56
DF
D1
D5
D1
EF
7E
38
ENDCHAR
STARTCHAR seven.sinf
ENCODING 8327
SWIDTH 577 0
DWIDTH 8 0
BBX 8 10 0 -2
BITMAP
7F
5D
FB
F3
25
6A
6C
64
78
70
ENDCHAR
STARTCHAR eight.sinf
ENCODING 8328
SWIDTH 638 0
DWIDTH 9 0
BBX 9 10 0 -2
BITMAP
1F00
2C80
7680
7300
4E80
5D80
D180
EF80
7E00
3800
ENDCHAR
STARTCHAR nine.sinf
ENCODING 8329
SWIDTH 628 0
DWIDTH 9 0
BBX 8 10 0 -2
BITMAP
3F
4F
55
D1
EF
FD
2F
61
7E
78
ENDCHAR
STARTCHAR parenleft.sinf
ENCODING 8333
SWIDTH 434 0
DWIDTH 6 0
BBX 5 11 0 -1
BITMAP
38
48
58
E8
E8
E8
E8
E8
E8
F8
78
ENDCHAR
STARTCHAR parenright.sinf
ENCODING 8334
SWIDTH 435 0
DWIDTH 6 0
BBX 5 11 0 -1
BITMAP
30
48
D8
E8
28
28
28
28
48
F8
F0
ENDCHAR
STARTCHAR colonsign
ENCODING 8353
SWIDTH 728 0
DWIDTH 10 0
BBX 10 14 0 -2
BITMAP
0580
0A40
17C0
2840
4BC0
4B00
CC00
CC00
CBC0
E7C0
7540
7A80
1F00
1E00
ENDCHAR
STARTCHAR lira
ENCODING 8356
SWIDTH 795 0
DWIDTH 11 0
BBX 11 13 0 -2
BITMAP
1FC0
2040
2740
6B80
4900
5E00
EAE0
DD20
EB60
6FA0
6020
7FC0
7F80
ENDCHAR
STARTCHAR naira
ENCODING 8358
SWIDTH 853 0
DWIDTH 12 0
BBX 12 13 0 -2
BITMAP
3DF0
6510
6B50
6D50
6AD0
5130
ED50
DAF0
EB50
EB50
6310
7FE0
73C0
ENDCHAR
STARTCHAR peseta
ENCODING 8359
SWIDTH 812 0
DWIDTH 11 0
BBX 12 13 0 -2
BITMAP
3FC0
6020
6FA0
6860
5350
CB50
EFA0
6820
6BC0
6B00
6400
7800
7000
ENDCHAR
STARTCHAR dong
ENCODING 8363
SWIDTH 782 0
DWIDTH 11 0
BBX 11 16 0 -5
BITMAP
03C0
0620
0BE0
18A0
1EC0
2F40
50C0
56C0
D6C0
D0C0
EF80
FF80
6F40
6040
7F80
7E00
ENDCHAR
STARTCHAR Euro
ENCODING 8364
SWIDTH 748 0
DWIDTH 10 0
BBX 10 13 0 -2
BITMAP
1FC0
2040
27C0
6BC0
5F80
EB00
C880
5F80
EBC0
67C0
7040
7FC0
3F80
ENDCHAR
STARTCHAR peso
ENCODING 8369
SWIDTH 812 0
DWIDTH 11 0
BBX 12 13 0 -2
BITMAP
3FC0
6020
6FA0
5050
EB60
D050
EFA0
E840
6B80
6B00
6400
7800
7000
ENDCHAR
STARTCHAR guarani
ENCODING 8370
SWIDTH 788 0
DWIDTH 11 0
BBX 11 14 0 -2
BITMAP
0700
08C0
17C0
2840
5780
57C0
D620
D6A0
C8A0
E7A0
7220
78C0
3F80
1E00
ENDCHAR
STARTCHAR cedi
ENCODING 8373
SWIDTH 728 0
DWIDTH 10 0
BBX 10 14 0 -2
BITMAP
0700
08C0
17C0
2840
4BC0
4B00
CC00
CC00
CBC0
E7C0
7240
7880
1F00
1E00
ENDCHAR
STARTCHAR indianrupee
ENCODING 8377
SWIDTH 713 0
DWIDTH 10 0
BBX 10 13 0 -2
BITMAP
3FC0
5F40
C240
FA80
5F40
FA80
C280
5E40
FD40
FD40
0C40
0F80
0F00
ENDCHAR
STARTCHAR turkishlira
ENCODING 8378
SWIDTH 795 0
DWIDTH 11 0
BBX 11 13 0 -2
BITMAP
3C00
4400
CA00
DE00
CC00
CEE0
DB20
CB60
CA60
CFA0
C040
FF80
FE00
ENDCHAR
STARTCHAR ruble
ENCODING 8381
SWIDTH 782 0
DWIDTH 11 0
BBX 11 13 0 -2
BITMAP
3FC0
6020
6FA0
6B60
6B60
6860
6FA0
6BC0
4980
5D00
E200
FC00
7000
ENDCHAR
STARTCHAR liter
ENCODING 8467
SWIDTH 749 0
DWIDTH 10 0
BBX 10 13 0 -2
BITMAP
1F80
2740
48C0
4EC0
CEC0
C9C0
CE40
CF80
C880
E780
7080
7F00
3E00
ENDCHAR
STARTCHAR uni2117
ENCODING 8471
SWIDTH 967 0
DWIDTH 14 0
BBX 13 15 0 -3
BITMAP
1FF0
2BB8
3FE8
59B8
5A58
DBD8
DA58
DBB8
DBF8
D938
EE28
75B8
7E50
7FE0
1F80
ENDCHAR
STARTCHAR uni2120
ENCODING 8480
SWIDTH 1003 0
DWIDTH 14 0
BBX 14 9 0 2
BITMAP
3FDC
5DAC
5FDC
C9AC
F5DC
DDBC
C374
FFB8
7220
ENDCHAR
STARTCHAR trademark
ENCODING 8482
SWIDTH 1003 0
DWIDTH 14 0
BBX 14 9 0 2
BITMAP
7FDC
7DAC
EFDC
EFAC
6FDC
6FBC
6774
7BB8
2220
ENDCHAR
STARTCHAR Omega
ENCODING 8486
SWIDTH 877 0
DWIDTH 12 0
BBX 12 13 0 -2
BITMAP
1FE0
2790
2850
6B50
6B50
6B50
6B50
6B50
4950
5DF0
C110
FFE0
FBC0
ENDCHAR
STARTCHAR estimated
ENCODING 8494
SWIDTH 815 0
DWIDTH 11 0
BBX 11 13 0 -2
BITMAP
1FC0
27A0
4860
5760
D060
DFE0
D020
D7C0
D040
EFC0
6040
7F80
3F00
ENDCHAR
STARTCHAR onethird
ENCODING 8531
SWIDTH 1269 0
DWIDTH 18 0
BBX 18 13 0 -2
BITMAP
3E7000
5A9000
4BB000
7BBF00
3BD680
3B5180
3B5F80
5F5B40
FF5EC0
FF70C0
033740
03FF80
03BE00
ENDCHAR
STARTCHAR twothirds
ENCODING 8532
SWIDTH 1269 0
DWIDTH 18 0
BBX 18 13 0 -2
BITMAP
3F7000
7C9000
62B000
7ABF00
2DD680
535180
DF5F80
C16B40
FF5EC0
FF70C0
033740
03FF80
03BE00
ENDCHAR
STARTCHAR oneeighth
ENCODING 8539
SWIDTH 1283 0
DWIDTH 18 0
BBX 18 13 0 -2
BITMAP
3E7000
5A9000
6BB000
7BBF00
3BD780
3B5A80
495880
5F5740
FF6AC0
FF68C0
033740
03FF80
03BE00
ENDCHAR
STARTCHAR threeeighths
ENCODING 8540
SWIDTH 1293 0
DWIDTH 18 0
BBX 18 13 0 -2
BITMAP
3E7800
5D9000
C2B000
FBBF80
2CB740
7EDA80
42D880
5D5740
FF5AC0
FF68C0
033740
03FF80
03BE00
ENDCHAR
STARTCHAR fiveeighths
ENCODING 8541
SWIDTH 1303 0
DWIDTH 18 0
BBX 18 13 0 -2
BITMAP
3F7800
4E8800
57B000
51B780
4CBB40
7EB680
42DC80
5D5740
FF5BC0
FF58C0
033640
03FF80
03BE00
ENDCHAR
STARTCHAR seveneighths
ENCODING 8542
SWIDTH 1241 0
DWIDTH 17 0
BBX 17 13 0 -2
BITMAP
7FF000
5C9000
FB5000
FB6F00
257680
2B6D80
6FB900
67AF80
7AB780
76B180
062E80
07FF00
077C00
ENDCHAR
STARTCHAR arrowleft
ENCODING 8592
SWIDTH 1100 0
DWIDTH 15 0
BBX 11 11 2 -1
BITMAP
0100
0680
0880
3660
4BE0
6620
F2E0
7880
1E80
0F00
0400
ENDCHAR
STARTCHAR arrowup
ENCODING 8593
SWIDTH 1100 0
DWIDTH 15 0
BBX 10 11 3 -1
BITMAP
0E00
1100
1500
2A80
4B40
4440
F580
F500
1100
3E00
3C00
ENDCHAR
STARTCHAR arrowright
ENCODING 8594
SWIDTH 1100 0
DWIDTH 15 0
BBX 11 11 2 -1
BITMAP
0600
0900
1880
2360
5EA0
C3A0
FA40
F980
1A00
1C00
1000
ENDCHAR
STARTCHAR arrowdown
ENCODING 8595
SWIDTH 1100 0
DWIDTH 15 0
BBX 10 11 3 -1
BITMAP
1F00
1500
3780
4440
CF40
EA80
E500
7100
3A00
3C00
1800
ENDCHAR
STARTCHAR arrowupleft
ENCODING 8598
SWIDTH 1100 0
DWIDTH 15 0
BBX 9 9 3 0
BITMAP
7F00
DC80
D280
D500
EA80
6580
6480
7F00
6600
ENDCHAR
STARTCHAR arrowupright
ENCODING 8599
SWIDTH 1100 0
DWIDTH 15 0
BBX 9 9 3 0
BITMAP
3F80
4780
6980
F580
6A80
5480
6680
FF00
6600
ENDCHAR
STARTCHAR arrowdownright
ENCODING 8600
SWIDTH 1100 0
DWIDTH 15 0
BBX 9 9 3 0
BITMAP
3B80
4480
6980
F780
6580
2F80
6080
FF80
1F00
ENDCHAR
STARTCHAR arrowdownleft
ENCODING 8601
SWIDTH 1100 0
DWIDTH 15 0
BBX 9 9 3 0
BITMAP
3B80
2580
6A80
6D00
5280
5C80
C080
DF00
F800
ENDCHAR
STARTCHAR uni21AA
ENCODING 8618
SWIDTH 1100 0
DWIDTH 15 0
BBX 12 13 2 -2
BITMAP
3FE0
5FA0
D7C0
DF80
DD80
DC40
D2A0
CF50
E090
7E60
3C80
0F00
0C00
ENDCHAR
STARTCHAR uni21AB
ENCODING 8619
SWIDTH 1100 0
DWIDTH 15 0
BBX 12 13 2 -2
BITMAP
3FE0
6FD0
7FB0
7FB0
05B0
09B0
3430
4FD0
E420
F1C0
7900
3F00
0C00
ENDCHAR
STARTCHAR uni21B0
ENCODING 8624
SWIDTH 1100 0
DWIDTH 15 0
BBX 11 13 2 -2
BITMAP
0200
0500
1900
24C0
4FA0
E460
F1E0
79E0
3FE0
0DE0
01A0
01C0
0180
ENDCHAR
STARTCHAR uni21B1
ENCODING 8625
SWIDTH 1100 0
DWIDTH 15 0
BBX 12 13 2 -2
BITMAP
0200
0500
0CC0
1120
2FD0
51A0
D440
D480
D700
D400
C800
F000
E000
ENDCHAR
STARTCHAR uni21B2
ENCODING 8626
SWIDTH 1100 0
DWIDTH 15 0
BBX 11 12 2 -2
BITMAP
00E0
01E0
07E0
09E0
11E0
6FE0
4420
E1C0
F900
3D00
1E00
0400
ENDCHAR
STARTCHAR uni21B3
ENCODING 8627
SWIDTH 1100 0
DWIDTH 15 0
BBX 11 12 2 -2
BITMAP
7800
D000
D700
DC80
DC40
D120
EFA0
FC40
7C80
0D00
0E00
0800
ENDCHAR
STARTCHAR partialdiff
ENCODING 8706
SWIDTH 792 0
DWIDTH 11 0
BBX 11 13 0 -2
BITMAP
1FC0
2720
60A0
7EA0
70A0
2FA0
50A0
D6A0
D2A0
CFA0
E040
7F80
3E00
ENDCHAR
STARTCHAR Delta
ENCODING 8710
SWIDTH 830 0
DWIDTH 12 0
BBX 11 13 0 -2
BITMAP
0FC0
1340
34C0
2AA0
2AA0
6AA0
6B60
5760
5060
DFE0
C020
FFC0
7F80
ENDCHAR
STARTCHAR product
ENCODING 8719
SWIDTH 859 0
DWIDTH 12 0
BBX 10 13 1 -2
BITMAP
7FC0
CF40
D0C0
D6C0
D6C0
D6C0
D6C0
D6C0
D6C0
D6C0
C640
FFC0
E780
ENDCHAR
STARTCHAR summation
ENCODING 8721
SWIDTH 750 0
DWIDTH 11 0
BBX 10 14 0 -3
BITMAP
3FC0
6FC0
7040
6B80
6500
7280
3A80
1480
2900
4BC0
5FC0
C040
FFC0
FF80
ENDCHAR
STARTCHAR minus
ENCODING 8722
SWIDTH 834 0
DWIDTH 12 0
BBX 10 5 1 2
BITMAP
7FC0
DFC0
C040
FF80
FF00
ENDCHAR
STARTCHAR uni2215
ENCODING 8725
SWIDTH 417 0
DWIDTH 6 0
BBX 6 13 0 -2
BITMAP
1C
24
6C
6C
6C
74
54
58
D8
D8
C8
F0
E0
ENDCHAR
STARTCHAR uni2219
ENCODING 8729
SWIDTH 464 0
DWIDTH 7 0
BBX 6 6 0 1
BITMAP
3C
44
CC
C4
FC
F8
ENDCHAR
STARTCHAR radical
ENCODING 8730
SWIDTH 841 0
DWIDTH 12 0
BBX 12 14 0 -2
BITMAP
00F0
01B0
0150
0150
3F60
4360
DB60
CAA0
F4A0
34C0
37C0
3840
1F80
1E00
ENDCHAR
STARTCHAR infinity
ENCODING 8734
SWIDTH 978 0
DWIDTH 14 0
BBX 13 10 0 0
BITMAP
14F0
2F68
5198
D578
D578
D778
D198
EE68
FFF0
7FE0
ENDCHAR
STARTCHAR integral
ENCODING 8747
SWIDTH 574 0
DWIDTH 8 0
BBX 8 15 0 -3
BITMAP
0F
17
29
2A
6A
6A
6A
6A
6A
6A
4A
5A
C4
F8
F0
ENDCHAR
STARTCHAR approxequal
ENCODING 8776
SWIDTH 834 0
DWIDTH 12 0
BBX 10 9 1 0
BITMAP
7FC0
DFC0
C040
FF80
C140
5FC0
C040
FF80
FF00
ENDCHAR
STARTCHAR notequal
ENCODING 8800
SWIDTH 834 0
DWIDTH 12 0
BBX 10 11 1 -1
BITMAP
0F00
72C0
DFC0
CC40
F580
F5C0
5FC0
C440
F1C0
F700
3800
ENDCHAR
STARTCHAR lessequal
ENCODING 8804
SWIDTH 814 0
DWIDTH 11 0
BBX 9 13 1 -2
BITMAP
0380
1C80
2780
5880
D700
D100
CE80
F180
CC80
DF80
C080
FF80
FF00
ENDCHAR
STARTCHAR greaterequal
ENCODING 8805
SWIDTH 814 0
DWIDTH 11 0
BBX 10 13 1 -2
BITMAP
7800
C700
DEC0
E140
FEC0
30C0
4740
D980
C640
DF40
C040
FF80
FF00
ENDCHAR
STARTCHAR block
ENCODING 9608
SWIDTH 1000 0
DWIDTH 14 0
BBX 16 16 -1 -3
BITMAP
FFFF
FFFF
FFFF
FFFF
FFFF
FFFF
FFFF
FFFF
FFFF
FFFF
FFFF
FFFF
FFFF
FFFF
FFFF
FFFF
ENDCHAR
STARTCHAR blacksquare
ENCODING 9632
SWIDTH 1100 0
DWIDTH 15 0
BBX 8 9 4 0
BITMAP
7F
C1
DD
D5
DD
C1
C1
FE
FC
ENDCHAR
STARTCHAR blackuppointingtriangle
ENCODING 9650
SWIDTH 1100 0
DWIDTH 15 0
BBX 10 9 3 0
BITMAP
0400
0A00
1100
2480
2A80
4440
4040
FF80
FF00
ENDCHAR
STARTCHAR whiteuppointingtriangle
ENCODING 9651
SWIDTH 1100 0
DWIDTH 15 0
BBX 8 7 5 2
BITMAP
10
28
44
44
82
81
FF
ENDCHAR
STARTCHAR blackrightpointingtriangle
ENCODING 9654
SWIDTH 1100 0
DWIDTH 15 0
BBX 8 10 4 0
BITMAP
60
90
8C
92
99
91
86
88
F0
C0
ENDCHAR
STARTCHAR whiterightpointingtriangle
ENCODING 9655
SWIDTH 1100 0
DWIDTH 15 0
BBX 7 9 5 1
BITMAP
C0
A0
98
84
82
86
88
B0
C0
ENDCHAR
STARTCHAR blackdownpointingtriangle
ENCODING 9660
SWIDTH 1100 0
DWIDTH 15 0
BBX 10 9 3 0
BITMAP
7FC0
C440
EA80
E480
7100
3200
3A00
1C00
1000
ENDCHAR
STARTCHAR whitedownpointingtriangle
ENCODING 9661
SWIDTH 1100 0
DWIDTH 15 0
BBX 8 7 5 2
BITMAP
FF
81
82
44
44
28
38
ENDCHAR
STARTCHAR blackleftpointingtriangle
ENCODING 9664
SWIDTH 1100 0
DWIDTH 15 0
BBX 8 10 4 0
BITMAP
03
05
19
25
4B
C5
F1
79
3F
0E
ENDCHAR
STARTCHAR whiteleftpointingtriangle
ENCODING 9665
SWIDTH 1100 0
DWIDTH 15 0
BBX 7 9 5 1
BITMAP
06
0A
32
42
82
42
22
1A
06
ENDCHAR
STARTCHAR blackdiamond
ENCODING 9670
SWIDTH 1100 0
DWIDTH 15 0
BBX 10 11 3 -1
BITMAP
0600
0900
1100
2680
4940
CA40
E480
F100
7A00
3C00
1000
ENDCHAR
STARTCHAR lozenge
ENCODING 9674
SWIDTH 831 0
DWIDTH 12 0
BBX 10 13 1 -2
BITMAP
1F00
2680
6980
5540
5540
D6C0
D6C0
D540
E980
E680
6080
7F00
3C00
ENDCHAR
STARTCHAR uni25D6
ENCODING 9686
SWIDTH 546 0
DWIDTH 8 0
BBX 8 16 0 -3
BITMAP
0F
1F
3F
7F
7F
FF
FF
FF
FF
FF
FF
7F
7F
3F
1F
03
ENDCHAR
STARTCHAR uni25D7
ENCODING 9687
SWIDTH 546 0
DWIDTH 8 0
BBX 9 16 -1 -3
BITMAP
F800
FC00
FE00
FF00
FF00
FF00
FF80
FF80
FF80
FF00
FF00
FF00
FE00
FC00
F800
E000
ENDCHAR
STARTCHAR uni25DC
ENCODING 9692
SWIDTH 1280 0
DWIDTH 18 0
BBX 16 16 1 -3
BITMAP
00FF
03FF
0FFF
1FFF
3FFF
3FFF
7FFF
7FFF
7FFF
7FFF
7FFF
FFFF
FFFF
FFFF
FFFF
7FFE
ENDCHAR
STARTCHAR uni25DD
ENCODING 9693
SWIDTH 1280 0
DWIDTH 18 0
BBX 16 16 1 -3
BITMAP
FF00
FFE0
FFF0
FFF8
FFF8
FFFC
FFFC
FFFE
FFFE
FFFE
FFFE
FFFE
FFFF
FFFF
FFFF
7FFE
ENDCHAR
STARTCHAR uni25DE
ENCODING 9694
SWIDTH 1280 0
DWIDTH 18 0
BBX 16 16 1 -3
BITMAP
FFFF
FFFF
FFFF
FFFE
FFFE
FFFE
FFFE
FFFE
FFFE
FFFC
FFFC
FFF8
FFF0
FFE0
FF80
7800
ENDCHAR
STARTCHAR uni25DF
ENCODING 9695
SWIDTH 1280 0
DWIDTH 18 0
BBX 16 16 1 -3
BITMAP
FFFF
FFFF
FFFF
FFFF
7FFF
7FFF
7FFF
7FFF
7FFF
3FFF
3FFF
1FFF
0FFF
07FF
01FF
001E
ENDCHAR
STARTCHAR uni261A
ENCODING 9754
SWIDTH 1100 0
DWIDTH 15 0
BBX 13 9 1 0
BITMAP
1FF8
2028
7E28
FE28
1828
1E28
0F28
0FF0
0060
ENDCHAR
STARTCHAR uni261B
ENCODING 9755
SWIDTH 1100 0
DWIDTH 15 0
BBX 12 9 2 0
BITMAP
7FE0
D010
D0E0
D140
D080
D180
CB00
FE00
C000
ENDCHAR
STARTCHAR uni261C
ENCODING 9756
SWIDTH 1100 0
DWIDTH 15 0
BBX 11 8 3 1
BITMAP
7FE0
80A0
78A0
18A0
10A0
18A0
0FA0
0040
ENDCHAR
STARTCHAR uni261D
ENCODING 9757
SWIDTH 1100 0
DWIDTH 15 0
BBX 7 11 5 0
BITMAP
40
A0
A0
BC
BA
82
82
82
42
BE
FE
ENDCHAR
STARTCHAR uni261E
ENCODING 9758
SWIDTH 1100 0
DWIDTH 15 0
BBX 10 8 4 1
BITMAP
FF80
C040
C380
C600
C200
C600
FC00
C000
ENDCHAR
STARTCHAR uni261F
ENCODING 9759
SWIDTH 1100 0
DWIDTH 15 0
BBX 7 11 5 0
BITMAP
FE
82
7E
82
82
82
B2
76
0E
06
06
ENDCHAR
STARTCHAR uni27A1
ENCODING 10145
SWIDTH 650 0
DWIDTH 9 0
BBX 10 22 -1 -6
BITMAP
6000
7000
7800
F800
FC00
FE00
FF00
FF00
FF80
FFC0
FFC0
FFC0
FF80
FF80
FF00
FE00
FC00
FC00
B800
7000
7000
2000
ENDCHAR
STARTCHAR uni2B1B
ENCODING 11035
SWIDTH 1280 0
DWIDTH 18 0
BBX 16 16 1 -3
BITMAP
FFFF
FFFF
FFFF
FFFF
FFFF
FFFF
FFFF
FFFF
FFFF
FFFF
FFFF
FFFF
FFFF
FFFF
FFFF
7FFE
ENDCHAR
STARTCHAR uni2B24
ENCODING 11044
SWIDTH 1280 0
DWIDTH 18 0
BBX 16 17 1 -3
BITMAP
0180
0FF0
3FF8
3FFC
7FFE
7FFE
FFFF
FFFF
FFFF
FFFF
FFFF
FFFF
7FFE
7FFE
3FFC
1FF8
0FF0
ENDCHAR
STARTCHAR A.salt
ENCODING 57600
SWIDTH 836 0
DWIDTH 12 0
BBX 10 13 1 -2
BITMAP
3F80
4F40
D0C0
D6C0
D6C0
D6C0
DFC0
D0C0
D6C0
D6C0
CE40
F780
E700
ENDCHAR
STARTCHAR Agrave.salt
ENCODING 57601
SWIDTH 836 0
DWIDTH 12 0
BBX 10 16 1 -2
BITMAP
3F80
6E80
7E80
6180
4F40
D0C0
D6C0
D6C0
D6C0
DFC0
D0C0
D6C0
D6C0
CE40
F780
E700
ENDCHAR
STARTCHAR Aacute.salt
ENCODING 57602
SWIDTH 836 0
DWIDTH 12 0
BBX 10 16 1 -2
BITMAP
1F80
2F80
6F00
7080
4F40
D0C0
D6C0
D6C0
D6C0
DFC0
D0C0
D6C0
D6C0
CE40
F780
E700
ENDCHAR
STARTCHAR Acircumflex.salt
ENCODING 57603
SWIDTH 836 0
DWIDTH 12 0
BBX 10 17 1 -2
BITMAP
0E00
3580
2A80
6F80
7080
4F40
D0C0
D6C0
D6C0
D6C0
DFC0
D0C0
D6C0
D6C0
CE40
F780
E700
ENDCHAR
STARTCHAR Atilde.salt
ENCODING 57604
SWIDTH 836 0
DWIDTH 12 0
BBX 10 16 1 -2
BITMAP
3F80
2C80
6E80
7180
4F40
D0C0
D6C0
D6C0
D6C0
DFC0
D0C0
D6C0
D6C0
CE40
F780
E700
ENDCHAR
STARTCHAR Adieresis.salt
ENCODING 57605
SWIDTH 836 0
DWIDTH 12 0
BBX 10 16 1 -2
BITMAP
3FC0
5540
6E40
7180
4F40
D0C0
D6C0
D6C0
D6C0
DFC0
D0C0
D6C0
D6C0
CE40
F780
E700
ENDCHAR
STARTCHAR Aring.salt
ENCODING 57606
SWIDTH 836 0
DWIDTH 12 0
BBX 10 17 1 -2
BITMAP
0500
3E80
3180
7780
7180
4F40
D0C0
D6C0
D6C0
D6C0
DFC0
D0C0
D6C0
D6C0
CE40
F780
E700
ENDCHAR
STARTCHAR Amacron.salt
ENCODING 57607
SWIDTH 836 0
DWIDTH 12 0
BBX 10 16 1 -2
BITMAP
3F80
2E80
6E80
7180
4F40
D0C0
D6C0
D6C0
D6C0
DFC0
D0C0
D6C0
D6C0
CE40
F780
E700
ENDCHAR
STARTCHAR Abreve.salt
ENCODING 57608
SWIDTH 836 0
DWIDTH 12 0
BBX 10 17 1 -2
BITMAP
1980
2680
6F80
7900
6680
4F40
D0C0
D6C0
D6C0
D6C0
DFC0
D0C0
D6C0
D6C0
CE40
F780
E700
ENDCHAR
STARTCHAR Aogonek.salt
ENCODING 57609
SWIDTH 836 0
DWIDTH 12 0
BBX 10 16 1 -5
BITMAP
3F80
4F40
D0C0
D6C0
D6C0
D6C0
DFC0
D0C0
D6C0
D6C0
CF40
F740
E7C0
0640
0780
0300
ENDCHAR
STARTCHAR E.salt
ENCODING 57610
SWIDTH 743 0
DWIDTH 10 0
BBX 10 13 0 -2
BITMAP
1FC0
27C0
6840
53C0
D480
DF80
D080
D700
C8C0
E7C0
7040
7F80
3F00
ENDCHAR
STARTCHAR Egrave.salt
ENCODING 57611
SWIDTH 743 0
DWIDTH 10 0
BBX 10 16 0 -2
BITMAP
3FC0
2740
7E40
79C0
27C0
6840
53C0
D480
DF80
D080
D700
C8C0
E7C0
7040
7F80
3F00
ENDCHAR
STARTCHAR Eacute.salt
ENCODING 57612
SWIDTH 743 0
DWIDTH 10 0
BBX 10 16 0 -2
BITMAP
1FC0
1740
3380
3C40
27C0
6840
53C0
D480
DF80
D080
D700
C8C0
E7C0
7040
7F80
3F00
ENDCHAR
STARTCHAR Ecircumflex.salt
ENCODING 57613
SWIDTH 743 0
DWIDTH 10 0
BBX 10 17 0 -2
BITMAP
0700
1AC0
3540
3740
38C0
27C0
6840
53C0
D480
DF80
D080
D700
C8C0
E7C0
7040
7F80
3F00
ENDCHAR
STARTCHAR Edieresis.salt
ENCODING 57614
SWIDTH 743 0
DWIDTH 10 0
BBX 10 16 0 -2
BITMAP
1FC0
2AC0
6240
7DC0
27C0
6840
53C0
D480
DF80
D080
D700
C8C0
E7C0
7040
7F80
3F00
ENDCHAR
STARTCHAR Emacron.salt
ENCODING 57615
SWIDTH 743 0
DWIDTH 10 0
BBX 10 16 0 -2
BITMAP
1FC0
3740
3040
3FC0
27C0
6840
53C0
D480
DF80
D080
D700
C8C0
E7C0
7040
7F80
3F00
ENDCHAR
STARTCHAR Ebreve.salt
ENCODING 57616
SWIDTH 743 0
DWIDTH 10 0
BBX 10 17 0 -2
BITMAP
0DC0
1240
37C0
3880
3F40
27C0
6840
53C0
D480
DF80
D080
D700
C8C0
E7C0
7040
7F80
3F00
ENDCHAR
STARTCHAR Edotaccent.salt
ENCODING 57617
SWIDTH 743 0
DWIDTH 10 0
BBX 10 16 0 -2
BITMAP
0F80
1A80
1880
1F40
27C0
6840
53C0
D480
DF80
D080
D700
C8C0
E7C0
7040
7F80
3F00
ENDCHAR
STARTCHAR Eogonek.salt
ENCODING 57618
SWIDTH 743 0
DWIDTH 10 0
BBX 10 16 0 -5
BITMAP
1FC0
27C0
6840
53C0
D480
DF80
D080
D700
C8C0
E6C0
7140
7F40
3DC0
0640
0780
0300
ENDCHAR
STARTCHAR Ecaron.salt
ENCODING 57619
SWIDTH 743 0
DWIDTH 10 0
BBX 10 17 0 -2
BITMAP
1CC0
3340
3740
3C80
3B40
27C0
6840
53C0
D480
DF80
D080
D700
C8C0
E7C0
7040
7F80
3F00
ENDCHAR
STARTCHAR I.salt
ENCODING 57620
SWIDTH 471 0
DWIDTH 7 0
BBX 5 13 1 -2
BITMAP
78
C8
D8
D8
D8
D8
D8
D8
D8
D8
C8
F0
E0
ENDCHAR
STARTCHAR Igrave.salt
ENCODING 57621
SWIDTH 471 0
DWIDTH 7 0
BBX 7 16 0 -2
BITMAP
7E
DE
FA
E4
64
6C
6C
6C
6C
6C
6C
6C
6C
64
78
70
ENDCHAR
STARTCHAR Iacute.salt
ENCODING 57622
SWIDTH 471 0
DWIDTH 7 0
BBX 7 16 0 -2
BITMAP
3E
5E
CE
F4
64
6C
6C
6C
6C
6C
6C
6C
6C
64
78
70
ENDCHAR
STARTCHAR Icircumflex.salt
ENCODING 57623
SWIDTH 471 0
DWIDTH 7 0
BBX 7 17 0 -2
BITMAP
1C
6A
D2
DE
E4
64
6C
6C
6C
6C
6C
6C
6C
6C
64
78
70
ENDCHAR
STARTCHAR Idieresis.salt
ENCODING 57624
SWIDTH 471 0
DWIDTH 7 0
BBX 8 16 0 -2
BITMAP
7F
AB
C9
F6
64
6C
6C
6C
6C
6C
6C
6C
6C
64
78
70
ENDCHAR
STARTCHAR Itilde.salt
ENCODING 57625
SWIDTH 471 0
DWIDTH 7 0
BBX 7 16 0 -2
BITMAP
7E
DE
C2
FC
64
6C
6C
6C
6C
6C
6C
6C
6C
64
78
70
ENDCHAR
STARTCHAR Imacron.salt
ENCODING 57626
SWIDTH 471 0
DWIDTH 7 0
BBX 7 16 0 -2
BITMAP
7E
5A
C2
FC
E4
6C
6C
6C
6C
6C
6C
6C
6C
64
78
70
ENDCHAR
STARTCHAR Ibreve.salt
ENCODING 57627
SWIDTH 471 0
DWIDTH 7 0
BBX 7 17 0 -2
BITMAP
36
4A
FE
C2
FC
64
6C
6C
6C
6C
6C
6C
6C
6C
64
78
70
ENDCHAR
STARTCHAR Iogonek.salt
ENCODING 57628
SWIDTH 471 0
DWIDTH 7 0
BBX 6 16 0 -5
BITMAP
3C
64
6C
6C
6C
6C
6C
6C
6C
6C
74
54
5C
E4
78
30
ENDCHAR
STARTCHAR Idotaccent.salt
ENCODING 57629
SWIDTH 471 0
DWIDTH 7 0
BBX 5 16 1 -2
BITMAP
78
D8
C8
F8
C8
D8
D8
D8
D8
D8
D8
D8
D8
C8
F0
E0
ENDCHAR
STARTCHAR L.salt
ENCODING 57630
SWIDTH 715 0
DWIDTH 10 0
BBX 9 13 1 -2
BITMAP
7800
C800
D800
D800
D800
D800
D800
D800
D780
DF80
C080
FF00
FE00
ENDCHAR
STARTCHAR Lacute.salt
ENCODING 57631
SWIDTH 715 0
DWIDTH 10 0
BBX 9 16 1 -2
BITMAP
7F00
DD00
CE00
F400
C800
D800
D800
D800
D800
D800
D800
D780
DF80
C080
FF00
FE00
ENDCHAR
STARTCHAR Lcommaaccent.salt
ENCODING 57632
SWIDTH 715 0
DWIDTH 10 0
BBX 9 18 1 -7
BITMAP
7800
C800
D800
D800
D800
D800
D800
D800
D780
DF80
C080
FF00
F200
3E00
3A00
3E00
3C00
3800
ENDCHAR
STARTCHAR Lcaron.salt
ENCODING 57633
SWIDTH 715 0
DWIDTH 10 0
BBX 9 13 1 -2
BITMAP
7B80
C480
D580
D480
D700
D600
D800
D800
D780
DF80
C080
FF00
FE00
ENDCHAR
STARTCHAR Ldot.salt
ENCODING 57634
SWIDTH 715 0
DWIDTH 10 0
BBX 9 13 1 -2
BITMAP
7800
C800
D800
DF80
D580
D480
D780
D600
D180
DF80
C080
FF00
FE00
ENDCHAR
STARTCHAR Lslash.salt
ENCODING 57635
SWIDTH 725 0
DWIDTH 10 0
BBX 10 13 0 -2
BITMAP
3C00
6400
6C00
6A00
4D00
D900
CA00
EC00
EBC0
6FC0
6040
7F80
7F00
ENDCHAR
STARTCHAR M.salt
ENCODING 57636
SWIDTH 1170 0
DWIDTH 16 0
BBX 15 13 1 -2
BITMAP
3FFC
4E72
D18A
D6B6
D6B6
D6B6
D6B6
D6B6
D6B6
D6B6
CE32
F7FC
E738
ENDCHAR
STARTCHAR N.salt
ENCODING 57637
SWIDTH 846 0
DWIDTH 12 0
BBX 10 13 1 -2
BITMAP
3F80
4F40
D0C0
D6C0
D6C0
D6C0
D6C0
D6C0
D6C0
D6C0
CE40
F7C0
E700
ENDCHAR
STARTCHAR Ntilde.salt
ENCODING 57638
SWIDTH 846 0
DWIDTH 12 0
BBX 10 16 1 -2
BITMAP
3F80
2C80
6E80
7180
4F40
D0C0
D6C0
D6C0
D6C0
D6C0
D6C0
D6C0
D6C0
CE40
F7C0
E700
ENDCHAR
STARTCHAR Nacute.salt
ENCODING 57639
SWIDTH 846 0
DWIDTH 12 0
BBX 10 16 1 -2
BITMAP
1F80
2F80
6F80
7080
4F40
D0C0
D6C0
D6C0
D6C0
D6C0
D6C0
D6C0
D6C0
CE40
F7C0
E700
ENDCHAR
STARTCHAR Ncommaaccent.salt
ENCODING 57640
SWIDTH 846 0
DWIDTH 12 0
BBX 10 18 1 -7
BITMAP
3F80
4F40
D0C0
D6C0
D6C0
D6C0
D6C0
D6C0
D6C0
D6C0
CE40
F7C0
F100
3700
3F00
3500
1E00
3800
ENDCHAR
STARTCHAR Ncaron.salt
ENCODING 57641
SWIDTH 846 0
DWIDTH 12 0
BBX 10 17 1 -2
BITMAP
1980
2680
6E80
7B00
6480
4F40
D0C0
D6C0
D6C0
D6C0
D6C0
D6C0
D6C0
D6C0
CE40
F7C0
E700
ENDCHAR
STARTCHAR W.salt
ENCODING 57642
SWIDTH 1170 0
DWIDTH 16 0
BBX 15 13 1 -2
BITMAP
7BDE
C632
E6B6
E6B6
E6B6
E6B6
E6B6
E6B6
D086
DF7A
C084
FFF8
7DF0
ENDCHAR
STARTCHAR Wcircumflex.salt
ENCODING 57643
SWIDTH 1170 0
DWIDTH 16 0
BBX 15 17 1 -2
BITMAP
01C0
06A0
0B50
1990
667E
C632
E6B6
E6B6
E6B6
E6B6
E6B6
E6B6
D086
DF7A
C084
FFF8
7DF0
ENDCHAR
STARTCHAR Wgrave.salt
ENCODING 57644
SWIDTH 1170 0
DWIDTH 16 0
BBX 15 16 1 -2
BITMAP
0FE0
1BE0
1F20
66DE
C632
E6B6
E6B6
E6B6
E6B6
E6B6
E6B6
D086
DF7A
C084
FFF8
7DF0
ENDCHAR
STARTCHAR Wacute.salt
ENCODING 57645
SWIDTH 1170 0
DWIDTH 16 0
BBX 15 16 1 -2
BITMAP
07F0
09D0
18E0
675E
C632
E6B6
E6B6
E6B6
E6B6
E6B6
E6B6
D086
DF7A
C084
FFF8
7DF0
ENDCHAR
STARTCHAR Wdieresis.salt
ENCODING 57646
SWIDTH 1170 0
DWIDTH 16 0
BBX 15 16 1 -2
BITMAP
0FF0
1AD0
1890
677E
C632
E6B6
E6B6
E6B6
E6B6
E6B6
E6B6
D086
DF7A
C084
FFF8
7DF0
ENDCHAR
STARTCHAR X.salt
ENCODING 57647
SWIDTH 837 0
DWIDTH 12 0
BBX 11 13 0 -2
BITMAP
3DE0
6320
6AA0
6AA0
74A0
27A0
4860
4B60
CB60
CB60
C720
FBC0
7380
ENDCHAR
STARTCHAR Y.salt
ENCODING 57648
SWIDTH 806 0
DWIDTH 11 0
BBX 11 13 0 -2
BITMAP
3DE0
4720
D760
D760
D760
D060
EDA0
E240
7A80
3A80
1880
1F00
1C00
ENDCHAR
STARTCHAR Yacute.salt
ENCODING 57649
SWIDTH 806 0
DWIDTH 11 0
BBX 11 16 0 -2
BITMAP
1FC0
1740
3180
2F60
4720
D760
D760
D760
D060
EDA0
E240
7A80
3A80
1880
1F00
1C00
ENDCHAR
STARTCHAR Ycircumflex.salt
ENCODING 57650
SWIDTH 806 0
DWIDTH 11 0
BBX 11 17 0 -2
BITMAP
0700
1AC0
1540
3740
2FA0
4720
D760
D760
D760
D060
EDA0
E240
7A80
3A80
1880
1F00
1C00
ENDCHAR
STARTCHAR Ydieresis.salt
ENCODING 57651
SWIDTH 806 0
DWIDTH 11 0
BBX 11 16 0 -2
BITMAP
1FC0
2AC0
6240
5FA0
4720
D760
D760
D760
D060
EDA0
E240
7A80
3A80
1880
1F00
1C00
ENDCHAR
STARTCHAR Ygrave.salt
ENCODING 57652
SWIDTH 806 0
DWIDTH 11 0
BBX 11 16 0 -2
BITMAP
1FC0
2740
3C40
47A0
4720
D760
D760
D760
D060
EDA0
E240
7A80
3A80
1880
1F00
1C00
ENDCHAR
STARTCHAR AE.salt
ENCODING 57653
SWIDTH 1113 0
DWIDTH 16 0
BBX 14 13 1 -2
BITMAP
3FFC
4F7C
5084
D6BC
D688
D6F4
DF84
D0B8
D68C
D6FC
CE04
F7F8
E7F0
ENDCHAR
STARTCHAR IJ.salt
ENCODING 57654
SWIDTH 1133 0
DWIDTH 16 0
BBX 14 13 1 -2
BITMAP
783C
C824
D86C
D86C
D86C
DFEC
D46C
D56C
D50C
D4F4
C604
FFF8
E3E0
ENDCHAR
STARTCHAR IJ.stack
ENCODING 57655
SWIDTH 1363 0
DWIDTH 19 0
BBX 19 13 0 -2
BITMAP
3FC1E0
4B4220
C446A0
F586A0
F506A0
353EA0
3546A0
35D6A0
2450A0
4F4F20
C06040
FFFF80
FF3E00
ENDCHAR
STARTCHAR quoteleft.salt
ENCODING 57656
SWIDTH 407 0
DWIDTH 6 0
BBX 5 6 0 5
BITMAP
18
28
58
C8
F8
F0
ENDCHAR
STARTCHAR quoteright.salt
ENCODING 57657
SWIDTH 407 0
DWIDTH 6 0
BBX 5 6 0 5
BITMAP
38
58
D8
E8
70
60
ENDCHAR
STARTCHAR ampersand.salt
ENCODING 57658
SWIDTH 732 0
DWIDTH 10 0
BBX 10 15 0 -3
BITMAP
0F80
0A40
17C0
2840
6B80
7880
6E80
5080
D700
D0C0
CDC0
E240
7880
3F00
1E00
ENDCHAR
STARTCHAR caron.2
ENCODING 57659
SWIDTH 600 0
DWIDTH 8 0
BBX 6 6 1 5
BITMAP
3C
24
74
44
78
F0
ENDCHAR
STARTCHAR indexup
ENCODING 57660
SWIDTH 1100 0
DWIDTH 15 0
BBX 9 13 3 -2
BITMAP
3800
2800
6800
6F00
6E80
6080
6080
6080
7F80
4080
C080
FF80
FE00
ENDCHAR
STARTCHAR indexdown
ENCODING 57661
SWIDTH 1100 0
DWIDTH 15 0
BBX 9 13 3 -2
BITMAP
7F80
4080
FF80
E080
6080
6080
6680
6D00
6E00
6800
6800
7000
4000
ENDCHAR
STARTCHAR indexupleft
ENCODING 57662
SWIDTH 1100 0
DWIDTH 15 0
BBX 11 13 2 -2
BITMAP
3800
6400
7A00
3500
2880
30E0
40A0
E120
7240
3C80
1900
1E00
1800
ENDCHAR
STARTCHAR indexupright
ENCODING 57663
SWIDTH 1100 0
DWIDTH 15 0
BBX 11 13 2 -2
BITMAP
00E0
0140
0280
0540
08A0
3860
4820
6440
F240
7980
3C80
1F00
0C00
ENDCHAR
STARTCHAR indexdownleft
ENCODING 57664
SWIDTH 1100 0
DWIDTH 15 0
BBX 13 11 1 -1
BITMAP
0180
0240
07A0
0450
0848
1028
2410
4AA0
5F40
FF80
8600
ENDCHAR
STARTCHAR indexdownright
ENCODING 57665
SWIDTH 1100 0
DWIDTH 15 0
BBX 13 11 1 -1
BITMAP
0300
0480
0980
1240
2420
4850
F0A8
F968
1CF8
0F70
0420
ENDCHAR
STARTCHAR indexdownleft.outline
ENCODING 57666
SWIDTH 1100 0
DWIDTH 15 0
BBX 11 10 3 0
BITMAP
0200
0500
0680
1940
20A0
4060
50A0
BD00
CA00
0400
ENDCHAR
STARTCHAR indexdownright.outline
ENCODING 57667
SWIDTH 1100 0
DWIDTH 15 0
BBX 11 10 3 0
BITMAP
0C00
1400
2600
6900
D080
A140
62A0
1560
0A20
0400
ENDCHAR
STARTCHAR indexupleft.outline
ENCODING 57668
SWIDTH 1100 0
DWIDTH 15 0
BBX 9 12 4 -1
BITMAP
E000
5000
2800
5400
6200
C100
8280
4500
2A00
1400
2C00
1800
ENDCHAR
STARTCHAR indexupright.outline
ENCODING 57669
SWIDTH 1100 0
DWIDTH 15 0
BBX 9 12 4 -1
BITMAP
0380
0500
0A00
1500
1280
E180
A080
5100
2A00
1400
0A00
0400
ENDCHAR
STARTCHAR uni261A.salt
ENCODING 57670
SWIDTH 1100 0
DWIDTH 15 0
BBX 13 9 1 0
BITMAP
1FF8
2028
7E28
FD28
0D28
0F68
0EF0
0760
0600
ENDCHAR
STARTCHAR uni261B.salt
ENCODING 57671
SWIDTH 1100 0
DWIDTH 15 0
BBX 12 9 2 0
BITMAP
7FE0
D010
D1E0
D2C0
D280
CB00
FD00
DE00
0C00
ENDCHAR
STARTCHAR indexdown.salt
ENCODING 57672
SWIDTH 1100 0
DWIDTH 15 0
BBX 9 13 3 -2
BITMAP
1F80
2080
7F80
7080
2080
4C80
FA80
FE80
1E80
0680
0680
0700
0600
ENDCHAR
STARTCHAR indexdownleft.salt
ENCODING 57673
SWIDTH 1100 0
DWIDTH 15 0
BBX 13 11 1 -1
BITMAP
00C0
0120
0390
0448
0828
1228
1530
26A0
5FA0
E7C0
4080
ENDCHAR
STARTCHAR indexdownright.salt
ENCODING 57674
SWIDTH 1100 0
DWIDTH 15 0
BBX 13 11 1 -1
BITMAP
0600
0900
1300
14C0
2420
6890
F950
5A48
1BF8
1E70
1020
ENDCHAR
STARTCHAR indexup.salt
ENCODING 57675
SWIDTH 1100 0
DWIDTH 15 0
BBX 9 13 3 -2
BITMAP
3800
6800
6800
4800
4E00
CF80
C080
E100
FF00
4080
C080
FF00
FC00
ENDCHAR
STARTCHAR indexupleft.salt
ENCODING 57676
SWIDTH 1100 0
DWIDTH 15 0
BBX 11 13 2 -2
BITMAP
3800
6400
7200
7900
3480
14C0
38A0
6120
6240
FC80
4D00
0E00
0C00
ENDCHAR
STARTCHAR indexupright.salt
ENCODING 57677
SWIDTH 1100 0
DWIDTH 15 0
BBX 11 13 2 -2
BITMAP
0060
01A0
0240
0480
0940
1940
28C0
6420
F220
79C0
3D80
1E00
0800
ENDCHAR
STARTCHAR uni261C.salt
ENCODING 57678
SWIDTH 1100 0
DWIDTH 15 0
BBX 11 8 3 1
BITMAP
7FE0
80A0
78A0
14A0
0CA0
05A0
0640
0400
ENDCHAR
STARTCHAR uni261D.salt
ENCODING 57679
SWIDTH 1100 0
DWIDTH 15 0
BBX 7 11 5 0
BITMAP
40
A0
A0
A0
B8
B6
8A
84
48
B4
FC
ENDCHAR
STARTCHAR uni261E.salt
ENCODING 57680
SWIDTH 1100 0
DWIDTH 15 0
BBX 10 8 4 1
BITMAP
FF80
C040
C780
CA00
CA00
EC00
9400
0800
ENDCHAR
STARTCHAR uni261F.salt
ENCODING 57681
SWIDTH 1100 0
DWIDTH 15 0
BBX 7 11 5 0
BITMAP
7E
42
3E
62
82
FA
26
1E
06
06
06
ENDCHAR
STARTCHAR indexdownleft.salt_outline
ENCODING 57682
SWIDTH 1100 0
DWIDTH 15 0
BBX 11 9 3 1
BITMAP
0200
0500
0680
1940
20A0
2CC0
5280
AA80
C580
ENDCHAR
STARTCHAR indexdownright.salt_outline
ENCODING 57683
SWIDTH 1100 0
DWIDTH 15 0
BBX 11 9 3 1
BITMAP
0800
1400
2C00
5300
A080
6240
2540
2AA0
3460
ENDCHAR
STARTCHAR indexupleft.salt_outline
ENCODING 57684
SWIDTH 1100 0
DWIDTH 15 0
BBX 9 11 4 0
BITMAP
E000
9000
4800
2400
3200
5300
6280
4580
FB00
1200
1C00
ENDCHAR
STARTCHAR indexupright.salt_outline
ENCODING 57685
SWIDTH 1100 0
DWIDTH 15 0
BBX 9 11 4 0
BITMAP
0180
0680
0900
1200
1500
6500
A300
5080
2F80
1400
1C00
ENDCHAR
STARTCHAR block.v
ENCODING 57687
SWIDTH 1000 0
DWIDTH 14 0
BBX 16 16 -1 -3
BITMAP
FFFF
FFFF
FFFF
FFFF
FFFF
FFFF
FFFF
FFFF
FFFF
FFFF
FFFF
FFFF
FFFF
FFFF
FFFF
FFFF
ENDCHAR
STARTCHAR uni25D6.v
ENCODING 57688
SWIDTH 1335 0
DWIDTH 19 0
BBX 15 9 2 1
BITMAP
0380
1FE0
3FF8
7FFC
7FFC
FFFC
FFFE
FFFE
FFFE
ENDCHAR
STARTCHAR uni25D7.v
ENCODING 57689
SWIDTH 1335 0
DWIDTH 19 0
BBX 15 9 2 1
BITMAP
FFFE
FFFE
FFFE
FFFE
FFFC
7FFC
3FF8
1FF0
0FC0
ENDCHAR
STARTCHAR uni27A1.w
ENCODING 57690
SWIDTH 650 0
DWIDTH 9 0
BBX 10 22 0 -6
BITMAP
0180
0380
0780
07C0
0FC0
1FC0
3FC0
3FC0
7FC0
FFC0
FFC0
FFC0
7FC0
3FC0
3FC0
1FC0
0FC0
0FC0
07C0
0380
0180
0080
ENDCHAR
STARTCHAR uni27A1.n
ENCODING 57691
SWIDTH 1000 0
DWIDTH 14 0
BBX 20 10 -3 0
BITMAP
FFFFF0
FFFFF0
FFFFF0
7FFFE0
1FFF80
0FFF00
07FE00
03FC00
00F000
006000
ENDCHAR
STARTCHAR uni27A1.s
ENCODING 57692
SWIDTH 1000 0
DWIDTH 14 0
BBX 20 10 -3 0
BITMAP
00F000
01F800
03FC00
0FFF00
1FFF80
3FFFC0
7FFFE0
FFFFF0
FFFFF0
3FFFC0
ENDCHAR
STARTCHAR uni2B24.salt
ENCODING 57693
SWIDTH 1280 0
DWIDTH 18 0
BBX 16 17 1 -3
BITMAP
03C0
1FF8
3FFC
7FFE
FFFF
FFFF
FFFF
FFFF
FFFF
FFFF
FFFF
FFFF
FFFF
FFFF
7FFE
1FF8
0FE0
ENDCHAR
STARTCHAR uni25DD.curve
ENCODING 57694
SWIDTH 1280 0
DWIDTH 18 0
BBX 16 16 1 -3
BITMAP
FFF0
FFFC
FFFC
FFFE
FFFE
FFFE
FFFF
FFFF
FFFF
FFFF
FFFF
FFFF
FFFF
FFFF
FFFF
7FFE
ENDCHAR
STARTCHAR uni2B1B.trapezoid_e
ENCODING 57695
SWIDTH 1280 0
DWIDTH 18 0
BBX 17 16 1 -3
BITMAP
FFFF80
FFFF80
FFFF00
FFFF00
FFFF00
FFFF00
FFFF00
FFFF00
FFFE00
FFFE00
FFFE00
FFFE00
FFFE00
FFFC00
FFFC00
7FFC00
ENDCHAR
STARTCHAR uni2B1B.trapezoid_w
ENCODING 57696
SWIDTH 1280 0
DWIDTH 18 0
BBX 17 16 0 -3
BITMAP
FFFF80
FFFF80
FFFF80
7FFF80
7FFF80
7FFF80
7FFF80
7FFF80
3FFF80
3FFF80
3FFF80
3FFF80
3FFF80
1FFF80
1FFF80
1FFF00
ENDCHAR
STARTCHAR arrowleft.chevron
ENCODING 57697
SWIDTH 1330 0
DWIDTH 19 0
BBX 19 21 0 -5
BITMAP
018000
018000
038000
07FFE0
07FFC0
0FFFC0
1FFF80
3FFF80
7FFF80
7FFF00
FFFF00
FFFF00
7FFF00
3FFF80
1FFF80
0FFFC0
0FFFC0
07FFC0
037FE0
018000
018000
ENDCHAR
STARTCHAR arrowup.chevron
ENCODING 57698
SWIDTH 1280 0
DWIDTH 18 0
BBX 20 21 -1 -5
BITMAP
002000
00F000
01F800
03FC00
07FE00
0FFF00
1FFFC0
7FFFE0
FFFFF0
FFFFF0
3FFFC0
3FFFC0
3FFFC0
3FFFC0
3FFFC0
3FFFC0
3FFFC0
3FFFC0
3FDFC0
3E07C0
3801C0
ENDCHAR
STARTCHAR arrowright.chevron
ENCODING 57699
SWIDTH 1330 0
DWIDTH 19 0
BBX 19 21 0 -5
BITMAP
006000
003000
003800
FFF800
7FFC00
7FFE00
7FFF00
3FFF00
3FFF80
3FFFC0
1FFFE0
1FFFC0
3FFF80
3FFF80
7FFF00
7FFE00
7FFC00
FFFC00
FFF800
003000
002000
ENDCHAR
STARTCHAR arrowdown.chevron
ENCODING 57700
SWIDTH 1280 0
DWIDTH 18 0
BBX 20 21 -1 -5
BITMAP
200040
3C03C0
3F0FC0
3FFFC0
3FFFC0
3FFFC0
3FFFC0
3FFFC0
3FFFC0
3FFFC0
3FFFC0
3FFFC0
FFFFF0
7FFFE0
3FFFC0
1FFF80
0FFF00
07FE00
01FC00
00F000
006000
ENDCHAR
STARTCHAR uni25D6.deco
ENCODING 57701
SWIDTH 560 0
DWIDTH 8 0
BBX 7 19 1 -4
BITMAP
0C
1C
1E
3E
7E
FE
FE
FE
FE
FE
FE
FE
FE
FE
FE
7E
3E
1E
0C
ENDCHAR
STARTCHAR uni25D7.deco
ENCODING 57702
SWIDTH 560 0
DWIDTH 8 0
BBX 8 19 -1 -4
BITMAP
20
70
F8
FC
FE
FF
FF
FF
FF
FF
FF
FF
FF
FF
FE
FE
F8
F8
70
ENDCHAR
STARTCHAR uni25D6.v_deco
ENCODING 57703
SWIDTH 1280 0
DWIDTH 18 0
BBX 18 8 0 1
BITMAP
03F000
0FFC00
1FFE00
3FFF00
7FFF80
FFFFC0
FFFFC0
7FFF80
ENDCHAR
STARTCHAR uni25D7.v_deco
ENCODING 57704
SWIDTH 1280 0
DWIDTH 18 0
BBX 18 8 0 2
BITMAP
7FFF80
BFFF40
FFFFC0
7FFF80
7FFF80
1FFE00
1FFE00
0FF800
ENDCHAR
STARTCHAR uni25D6.bevel
ENCODING 57705
SWIDTH 350 0
DWIDTH 5 0
BBX 4 16 1 -3
BITMAP
10
70
70
F0
F0
F0
F0
F0
F0
F0
F0
F0
F0
70
30
10
ENDCHAR
STARTCHAR uni25D7.bevel
ENCODING 57706
SWIDTH 350 0
DWIDTH 5 0
BBX 5 16 -1 -3
BITMAP
C0
F0
F0
F8
F8
F8
F8
F8
F8
F8
F8
F8
F8
F0
E0
C0
ENDCHAR
STARTCHAR uni25D6.v_bevel
ENCODING 57707
SWIDTH 1280 0
DWIDTH 18 0
BBX 16 5 1 3
BITMAP
1FF8
2FFC
7FFE
FFFE
FFFF
ENDCHAR
STARTCHAR uni25D7.v_bevel
ENCODING 57708
SWIDTH 1280 0
DWIDTH 18 0
BBX 16 5 1 3
BITMAP
FFFF
FFFF
7FFE
3FFC
1FF8
ENDCHAR
STARTCHAR uni25D6.spike
ENCODING 57709
SWIDTH 350 0
DWIDTH 5 0
BBX 5 17 0 -3
BITMAP
60
38
38
38
18
18
38
78
F8
78
38
18
18
38
38
38
78
ENDCHAR
STARTCHAR uni25D7.spike
ENCODING 57710
SWIDTH 350 0
DWIDTH 5 0
BBX 5 17 -1 -3
BITMAP
18
F0
F0
F0
E0
E0
F0
F8
F8
F8
F0
E0
E0
E0
F0
F0
F8
ENDCHAR
STARTCHAR uni25D6.v_spike
ENCODING 57711
SWIDTH 1280 0
DWIDTH 18 0
BBX 16 5 1 3
BITMAP
0180
C3C3
FFFF
FFFF
FFFF
ENDCHAR
STARTCHAR uni25D7.v_spike
ENCODING 57712
SWIDTH 1280 0
DWIDTH 18 0
BBX 16 5 1 3
BITMAP
FFFF
FFFF
FFFF
E3C7
8181
ENDCHAR
STARTCHAR uni25D6.square
ENCODING 57713
SWIDTH 350 0
DWIDTH 5 0
BBX 4 16 1 -3
BITMAP
F0
F0
F0
F0
F0
F0
F0
F0
F0
F0
F0
F0
F0
F0
F0
70
ENDCHAR
STARTCHAR uni25D7.square
ENCODING 57714
SWIDTH 350 0
DWIDTH 5 0
BBX 5 16 -1 -3
BITMAP
F0
F8
F8
F8
F8
F8
F8
F8
F8
F8
F8
F8
F8
F8
F8
F0
ENDCHAR
STARTCHAR uni25D6.v_square
ENCODING 57715
SWIDTH 1280 0
DWIDTH 18 0
BBX 16 4 1 3
BITMAP
FFFF
FFFF
FFFF
FFFF
ENDCHAR
STARTCHAR uni25D7.v_square
ENCODING 57716
SWIDTH 1280 0
DWIDTH 18 0
BBX 16 4 1 3
BITMAP
FFFF
FFFF
FFFF
FFFF
ENDCHAR
STARTCHAR uni25D6.rounded
ENCODING 57717
SWIDTH 350 0
DWIDTH 5 0
BBX 4 16 1 -3
BITMAP
30
70
70
F0
F0
F0
F0
F0
F0
F0
F0
F0
F0
70
70
10
ENDCHAR
STARTCHAR uni25D7.rounded
ENCODING 57718
SWIDTH 350 0
DWIDTH 5 0
BBX 5 16 -1 -3
BITMAP
E0
F0
F0
F8
F8
F8
F8
F8
F8
F8
F8
F8
F0
F0
F0
C0
ENDCHAR
STARTCHAR uni25D6.v_rounded
ENCODING 57719
SWIDTH 1280 0
DWIDTH 18 0
BBX 16 5 1 3
BITMAP
07E0
7FFC
7FFE
FFFE
FFFF
ENDCHAR
STARTCHAR uni25D7.v_rounded
ENCODING 57720
SWIDTH 1280 0
DWIDTH 18 0
BBX 16 5 1 3
BITMAP
FFFF
FFFF
7FFE
7FFE
1FF8
ENDCHAR
STARTCHAR uni21AB.arrow
ENCODING 57721
SWIDTH 1000 0
DWIDTH 14 0
BBX 18 27 -1 -14
BITMAP
7F8000
7FE000
7FF000
7FF800
7FF800
7FFC00
7FFC00
7FFE00
7FFE00
7FFE00
7FFE00
7FFE00
7FFE00
7FFE00
7FFE00
7FFE00
3FFE00
FFFFC0
FFFF80
7FFF00
3FFE00
1FFC00
0FF800
07F000
03E000
01C000
008000
ENDCHAR
STARTCHAR uni21AC.arrow
ENCODING 57722
SWIDTH 1000 0
DWIDTH 14 0
BBX 18 27 -1 -3
BITMAP
00C000
01E000
03F000
07F800
0FFC00
1FFE00
3FFF00
7FFF80
FFFFC0
3FFE00
3FFE00
7FFE00
7FFE00
7FFE00
7FFE00
7FFE00
7FFE00
7FFE00
7FFE00
7FFC00
7FFC00
7FFC00
7FF800
7FF000
7FE000
7FC000
7E0000
ENDCHAR
STARTCHAR uni21AB.v_arrow
ENCODING 57723
SWIDTH 1335 0
DWIDTH 19 0
BBX 25 19 -8 -5
BITMAP
01000000
033FFF80
073FFF80
0FFFFF80
0FFFFF80
1FFFFF80
3FFFFF80
7FFFFF80
FFFFFF80
FFFFFF00
FFFFFF00
7FFFFE00
3FFFFE00
1FFFFC00
0FFFF000
07FFC000
03000000
03000000
01000000
ENDCHAR
STARTCHAR uni21AC.v_arrow
ENCODING 57724
SWIDTH 1335 0
DWIDTH 19 0
BBX 25 19 2 -5
BITMAP
0000C000
FFFEC000
FFFEE000
FFFFF000
FFFFF800
FFFFFC00
FFFFFE00
FFFFFF00
FFFFFF80
FFFFFF80
7FFFFF80
7FFFFF00
3FFFFE00
1FFFFC00
0FFFF800
01FFF000
0000E000
0000C000
00008000
ENDCHAR
STARTCHAR uni25D6.wings
ENCODING 57725
SWIDTH 900 0
DWIDTH 13 0
BBX 13 21 0 -5
BITMAP
1FC0
1FE0
1FF0
FFF8
FFF8
FFF8
FFF8
FFF8
FFF8
FFF8
FFF8
FFF8
FFF8
FFF8
FFF8
FFF8
FFF8
FFF8
FFF8
1FE0
1FC0
ENDCHAR
STARTCHAR uni25D7.wings
ENCODING 57726
SWIDTH 900 0
DWIDTH 13 0
BBX 13 21 -1 -5
BITMAP
1FE0
1FE0
3FE0
FFF8
FFF8
FFF8
FFF8
FFF8
FFF8
FFF8
FFF8
FFF8
FFF8
FFF8
FFF8
FFF8
FFF8
FFF8
FFD8
1FE0
1FE0
ENDCHAR
STARTCHAR uni25D6.v_wings
ENCODING 57727
SWIDTH 1280 0
DWIDTH 18 0
BBX 20 13 -1 -1
BITMAP
3FFFC0
3FFFC0
FFFFF0
FFFFF0
FFFFF0
FFFFF0
FFFFF0
FFFFF0
FFFFF0
FFFFF0
FFFFF0
3FFFC0
3FFFC0
ENDCHAR
STARTCHAR uni25D7.v_wings
ENCODING 57728
SWIDTH 1280 0
DWIDTH 18 0
BBX 20 13 -1 -1
BITMAP
3FFFC0
3FFFC0
7FFFC0
FFFFF0
FFFFF0
FFFFF0
FFFFF0
FFFFF0
FFFFF0
FFFFF0
DFFFB0
3FFFC0
3FFFC0
ENDCHAR
STARTCHAR uni2B1B.chevron_e
ENCODING 57729
SWIDTH 1280 0
DWIDTH 18 0
BBX 18 16 0 -3
BITMAP
FFFE00
7FFF00
7FFF00
7FFF00
3FFF80
3FFF80
3FFFC0
1FFFC0
1FFFC0
3FFF80
3FFF80
7FFF80
7FFF00
7FFF00
FFFE00
FFFE00
ENDCHAR
STARTCHAR uni2B1B.chevron_n
ENCODING 57730
SWIDTH 1280 0
DWIDTH 18 0
BBX 16 19 1 -4
BITMAP
0180
07E0
3FFC
FFFE
FFFF
FFFF
FFFF
FFFF
FFFF
FFFF
FFFF
FFFF
FFFF
FFFF
FFFF
FFFF
FE7F
F81F
C007
ENDCHAR
STARTCHAR uni2B1B.chevron_s
ENCODING 57731
SWIDTH 1280 0
DWIDTH 18 0
BBX 16 19 1 -4
BITMAP
C002
F00F
FE7F
FFFF
FFFF
FFFF
FFFF
FFFF
FFFF
FFFF
FFFF
FFFF
FFFF
FFFF
FFFF
FFFF
3FFC
0FF0
0380
ENDCHAR
STARTCHAR uni2B1B.chevron_w
ENCODING 57732
SWIDTH 1280 0
DWIDTH 18 0
BBX 18 16 0 -3
BITMAP
1FFFC0
3FFF80
3FFF80
3FFF80
7FFF00
7FFF00
FFFF00
FFFE00
FFFE00
7FFF00
7FFF00
7FFF80
3FFF80
3FFF80
1FFFC0
1FFFC0
ENDCHAR
STARTCHAR uni2B1B.semichevron_e
ENCODING 57733
SWIDTH 650 0
DWIDTH 9 0
BBX 10 16 0 -3
BITMAP
FFC0
7FC0
7FC0
7FC0
3FC0
3FC0
3FC0
1FC0
1FC0
3FC0
3FC0
7FC0
7FC0
7FC0
FFC0
FFC0
ENDCHAR
STARTCHAR uni2B1B.semichevron_w
ENCODING 57734
SWIDTH 650 0
DWIDTH 9 0
BBX 10 16 -1 -3
BITMAP
FFC0
FFC0
FF80
FF80
FF80
FF00
FF00
FE00
FF00
FF00
FF00
FF80
FF80
FFC0
FFC0
FFC0
ENDCHAR
STARTCHAR uni2B1B.semichevron_n
ENCODING 57735
SWIDTH 1000 0
DWIDTH 14 0
BBX 16 10 -1 0
BITMAP
E007
FC3F
FFFF
FFFF
FFFF
FFFF
FFFF
FFFF
FFFF
FFFF
ENDCHAR
STARTCHAR uni2B1B.semichevron_s
ENCODING 57736
SWIDTH 1000 0
DWIDTH 14 0
BBX 16 10 -1 0
BITMAP
FFFF
FFFF
FFFF
FFFF
FFFF
FFFF
FFFF
FE7F
F00F
C003
ENDCHAR
STARTCHAR space.v
ENCODING 57737
SWIDTH 1000 0
DWIDTH 14 0
BBX 1 1 0 0
BITMAP
00
ENDCHAR
STARTCHAR Agrave.v
ENCODING 57738
SWIDTH 1000 0
DWIDTH 14 0
BBX 10 16 2 -2
BITMAP
3B00
2C80
6380
7F80
6080
2E80
6940
5540
56C0
D0C0
DFC0
D0C0
D6C0
C640
FFC0
E700
ENDCHAR
STARTCHAR Aacute.v
ENCODING 57739
SWIDTH 1000 0
DWIDTH 14 0
BBX 10 16 2 -2
BITMAP
1F80
2380
6C80
7F00
6080
2E80
6940
5540
56C0
D0C0
DFC0
D0C0
D6C0
C640
FFC0
E700
ENDCHAR
STARTCHAR Acircumflex.v
ENCODING 57740
SWIDTH 1000 0
DWIDTH 14 0
BBX 10 16 2 -2
BITMAP
1F00
2F80
6080
7F80
6080
2E80
6940
5540
56C0
D0C0
DFC0
D0C0
D6C0
C640
FFC0
E700
ENDCHAR
STARTCHAR Atilde.v
ENCODING 57741
SWIDTH 1000 0
DWIDTH 14 0
BBX 10 15 2 -2
BITMAP
3F80
6780
7F00
6080
2E80
6940
5540
56C0
D0C0
DFC0
D0C0
D6C0
C640
FFC0
E700
ENDCHAR
STARTCHAR Adieresis.v
ENCODING 57742
SWIDTH 1000 0
DWIDTH 14 0
BBX 10 16 2 -2
BITMAP
1B80
2440
6440
7F80
6080
2E80
6940
5540
56C0
D0C0
DFC0
D0C0
D6C0
C640
FFC0
E700
ENDCHAR
STARTCHAR Aring.v
ENCODING 57743
SWIDTH 1000 0
DWIDTH 14 0
BBX 10 16 2 -2
BITMAP
1F00
2F80
7740
6F40
6A80
6D40
6940
54C0
D6C0
D0C0
DFC0
D0C0
D6C0
C640
FFC0
E700
ENDCHAR
STARTCHAR Amacron.v
ENCODING 57744
SWIDTH 1000 0
DWIDTH 14 0
BBX 10 15 2 -2
BITMAP
3F80
6F80
7F80
6080
2E80
6940
5540
56C0
D0C0
DFC0
D0C0
D6C0
C640
FFC0
E700
ENDCHAR
STARTCHAR Abreve.v
ENCODING 57745
SWIDTH 1000 0
DWIDTH 14 0
BBX 10 16 2 -2
BITMAP
3FC0
6940
6680
7F00
6080
2E80
6940
5540
56C0
D0C0
DFC0
D0C0
D6C0
C640
FFC0
E700
ENDCHAR
STARTCHAR Aogonek.v
ENCODING 57746
SWIDTH 1000 0
DWIDTH 14 0
BBX 10 15 2 -4
BITMAP
1F80
2680
6940
5540
56C0
D0C0
DFC0
D0C0
D6C0
C6C0
FF40
E740
06C0
07C0
0780
ENDCHAR
STARTCHAR Ccedilla.v
ENCODING 57747
SWIDTH 1000 0
DWIDTH 14 0
BBX 10 14 2 -3
BITMAP
1FC0
6FC0
5040
D7C0
D700
D800
D800
D7C0
D840
C7C0
FBC0
7180
1E00
3C00
ENDCHAR
STARTCHAR Cacute.v
ENCODING 57748
SWIDTH 1000 0
DWIDTH 14 0
BBX 10 16 2 -2
BITMAP
1D80
2340
2C40
7F80
6040
4FC0
D040
D780
D700
D800
D800
D7C0
CFC0
E040
FF80
3F00
ENDCHAR
STARTCHAR Ccircumflex.v
ENCODING 57749
SWIDTH 1000 0
DWIDTH 14 0
BBX 10 16 2 -2
BITMAP
1F80
2F40
2040
7F80
6040
4FC0
D040
D780
D700
D800
D800
D7C0
CFC0
E040
FF80
3F00
ENDCHAR
STARTCHAR Cdotaccent.v
ENCODING 57750
SWIDTH 1000 0
DWIDTH 14 0
BBX 10 16 2 -2
BITMAP
0F00
1300
1100
1F80
2040
4FC0
D040
D780
D700
D800
D800
D7C0
CFC0
E040
FF80
3F00
ENDCHAR
STARTCHAR Ccaron.v
ENCODING 57751
SWIDTH 1000 0
DWIDTH 14 0
BBX 10 16 2 -2
BITMAP
3FC0
2940
6680
7F80
2040
4FC0
D040
D780
D700
D800
D800
D7C0
CFC0
E040
FF80
3F00
ENDCHAR
STARTCHAR Dcaron.v
ENCODING 57752
SWIDTH 1000 0
DWIDTH 14 0
BBX 10 16 2 -2
BITMAP
3F80
6980
6680
7F00
40C0
DF40
D0C0
D6C0
D6C0
D6C0
D6C0
D0C0
DF40
C0C0
FF00
FE00
ENDCHAR
STARTCHAR Egrave.v
ENCODING 57753
SWIDTH 1000 0
DWIDTH 14 0
BBX 10 16 2 -2
BITMAP
3B00
2C80
6380
7F80
4040
DFC0
D040
D780
DF80
D080
D700
D0C0
DFC0
C040
FF80
FF00
ENDCHAR
STARTCHAR Eacute.v
ENCODING 57754
SWIDTH 1000 0
DWIDTH 14 0
BBX 10 16 2 -2
BITMAP
1F80
2380
6C80
7F80
4040
DFC0
D040
D780
DF80
D080
D700
D0C0
DFC0
C040
FF80
FF00
ENDCHAR
STARTCHAR Ecircumflex.v
ENCODING 57755
SWIDTH 1000 0
DWIDTH 14 0
BBX 10 16 2 -2
BITMAP
1F00
2F80
6080
7F80
4040
DFC0
D040
D780
DF80
D080
D700
D0C0
DFC0
C040
FF80
FF00
ENDCHAR
STARTCHAR Edieresis.v
ENCODING 57756
SWIDTH 1000 0
DWIDTH 14 0
BBX 10 16 2 -2
BITMAP
1B80
2440
6440
7F80
4040
DFC0
D040
D780
DF80
D080
D700
D0C0
DFC0
C040
FF80
FF00
ENDCHAR
STARTCHAR Emacron.v
ENCODING 57757
SWIDTH 1000 0
DWIDTH 14 0
BBX 10 15 2 -2
BITMAP
3F80
6F80
7F80
4040
DFC0
D040
D780
DF80
D080
D700
D0C0
DFC0
C040
FF80
FF00
ENDCHAR
STARTCHAR Ebreve.v
ENCODING 57758
SWIDTH 1000 0
DWIDTH 14 0
BBX 10 16 2 -2
BITMAP
3FC0
6940
6680
7F80
4040
DFC0
D040
D780
DF80
D080
D700
D0C0
DFC0
C040
FF80
FF00
ENDCHAR
STARTCHAR Edotaccent.v
ENCODING 57759
SWIDTH 1000 0
DWIDTH 14 0
BBX 10 16 2 -2
BITMAP
0F00
1500
3100
3F80
4040
DFC0
D040
D780
DF80
D080
D700
D0C0
DFC0
C040
FF80
FF00
ENDCHAR
STARTCHAR Eogonek.v
ENCODING 57760
SWIDTH 1000 0
DWIDTH 14 0
BBX 10 15 2 -4
BITMAP
7FC0
CFC0
D040
D780
D080
DF80
D080
D780
D040
CFC0
FF40
FF40
06C0
07C0
0700
ENDCHAR
STARTCHAR Ecaron.v
ENCODING 57761
SWIDTH 1000 0
DWIDTH 14 0
BBX 10 16 2 -2
BITMAP
3F80
6980
6680
7F80
4040
DFC0
D040
D780
DF80
D080
D700
D0C0
DFC0
C040
FF80
FF00
ENDCHAR
STARTCHAR Gcircumflex.v
ENCODING 57762
SWIDTH 1000 0
DWIDTH 14 0
BBX 10 16 2 -2
BITMAP
1F00
2F80
6080
7F80
6040
4F40
D040
D780
D780
DA40
D6C0
D0C0
CFC0
E040
FF80
3F00
ENDCHAR
STARTCHAR Gbreve.v
ENCODING 57763
SWIDTH 1000 0
DWIDTH 14 0
BBX 10 16 2 -2
BITMAP
3FC0
6940
6680
7F80
6040
4F40
D040
D780
D780
DA40
D6C0
D0C0
CFC0
E040
FF80
3F00
ENDCHAR
STARTCHAR Gdotaccent.v
ENCODING 57764
SWIDTH 1000 0
DWIDTH 14 0
BBX 10 16 2 -2
BITMAP
0F00
1500
3100
3F80
2040
4F40
D040
D780
D780
DA40
D6C0
D0C0
CFC0
E040
FF80
3F00
ENDCHAR
STARTCHAR Gcommaaccent.v
ENCODING 57765
SWIDTH 1000 0
DWIDTH 14 0
BBX 10 17 2 -6
BITMAP
3FC0
4F40
5040
D780
D700
DAC0
D6C0
D6C0
D8C0
C740
FFC0
7080
1700
3F00
3200
1E00
1800
ENDCHAR
STARTCHAR Hcircumflex.v
ENCODING 57766
SWIDTH 1000 0
DWIDTH 14 0
BBX 10 16 2 -2
BITMAP
1F00
2F80
6080
7F80
4640
D6C0
D6C0
D0C0
DFC0
D0C0
D6C0
D6C0
D6C0
C640
FF80
E700
ENDCHAR
STARTCHAR Igrave.v
ENCODING 57767
SWIDTH 1000 0
DWIDTH 14 0
BBX 10 16 2 -2
BITMAP
3B00
2C80
6380
7F80
4040
DFC0
C440
F480
F500
3500
3500
44C0
DFC0
C040
FF80
FF00
ENDCHAR
STARTCHAR Iacute.v
ENCODING 57768
SWIDTH 1000 0
DWIDTH 14 0
BBX 10 16 2 -2
BITMAP
1F80
2380
6C80
7F80
4040
DFC0
C440
F480
F500
3500
3500
44C0
DFC0
C040
FF80
FF00
ENDCHAR
STARTCHAR Icircumflex.v
ENCODING 57769
SWIDTH 1000 0
DWIDTH 14 0
BBX 10 16 2 -2
BITMAP
1F00
2F80
6080
7F80
4040
DFC0
C440
F480
F500
3500
3500
44C0
DFC0
C040
FF80
FF00
ENDCHAR
STARTCHAR Idieresis.v
ENCODING 57770
SWIDTH 1000 0
DWIDTH 14 0
BBX 10 16 2 -2
BITMAP
1B80
2440
6440
7F80
4040
DFC0
C440
F480
F500
3500
3500
44C0
DFC0
C040
FF80
FF00
ENDCHAR
STARTCHAR Itilde.v
ENCODING 57771
SWIDTH 1000 0
DWIDTH 14 0
BBX 10 15 2 -2
BITMAP
3F80
6780
7F80
4040
DFC0
C440
F480
F500
3500
3500
44C0
DFC0
C040
FF80
FF00
ENDCHAR
STARTCHAR Imacron.v
ENCODING 57772
SWIDTH 1000 0
DWIDTH 14 0
BBX 10 15 2 -2
BITMAP
3F80
6F80
7F80
4040
DFC0
C440
F480
F500
3500
3500
44C0
DFC0
C040
FF80
FF00
ENDCHAR
STARTCHAR Ibreve.v
ENCODING 57773
SWIDTH 1000 0
DWIDTH 14 0
BBX 10 16 2 -2
BITMAP
3FC0
6940
6680
7F80
4040
DFC0
C440
F480
F500
3500
3500
44C0
DFC0
C040
FF80
FF00
ENDCHAR
STARTCHAR Iogonek.v
ENCODING 57774
SWIDTH 1000 0
DWIDTH 14 0
BBX 10 15 2 -4
BITMAP
7FC0
5BC0
C440
F4C0
F480
3500
3500
34C0
4440
DBC0
FF40
FF40
06C0
07C0
0700
ENDCHAR
STARTCHAR Idotaccent.v
ENCODING 57775
SWIDTH 1000 0
DWIDTH 14 0
BBX 10 16 2 -2
BITMAP
0F00
1500
3100
3F80
4040
DFC0
C440
F480
F500
3500
3500
44C0
DFC0
C040
FF80
FF00
ENDCHAR
STARTCHAR Jcircumflex.v
ENCODING 57776
SWIDTH 1000 0
DWIDTH 14 0
BBX 10 16 2 -2
BITMAP
0780
0FC0
1040
3FC0
3E40
06C0
06C0
06C0
7EC0
C6C0
D6C0
D0C0
CF40
E040
FF80
7E00
ENDCHAR
STARTCHAR Kcommaaccent.v
ENCODING 57777
SWIDTH 1000 0
DWIDTH 14 0
BBX 10 17 2 -6
BITMAP
7BC0
CC40
D540
D580
D240
DD40
D0C0
D6C0
D6C0
C640
FFC0
F080
1700
3F00
3200
1E00
1800
ENDCHAR
STARTCHAR Lacute.v
ENCODING 57778
SWIDTH 1000 0
DWIDTH 14 0
BBX 10 16 2 -2
BITMAP
3700
4D00
D100
FE00
C400
D800
D800
D800
D9C0
DA40
D6C0
D0C0
DFC0
C040
FF80
FF00
ENDCHAR
STARTCHAR Lcommaaccent.v
ENCODING 57779
SWIDTH 1000 0
DWIDTH 14 0
BBX 10 17 2 -6
BITMAP
7800
C800
D800
D800
D980
DA40
D6C0
D6C0
D0C0
CF40
FFC0
F080
1700
3F00
3200
1E00
1800
ENDCHAR
STARTCHAR Lcaron.v
ENCODING 57780
SWIDTH 1000 0
DWIDTH 14 0
BBX 11 13 2 -2
BITMAP
79E0
CA20
D6A0
D640
D780
D660
DA20
D6A0
D0A0
DFA0
C020
FFC0
FF00
ENDCHAR
STARTCHAR Ntilde.v
ENCODING 57781
SWIDTH 1000 0
DWIDTH 14 0
BBX 10 15 2 -2
BITMAP
3F80
6780
7F80
4640
D6C0
DAC0
D4C0
D2C0
DAC0
D5C0
D6C0
D6C0
C640
FFC0
E700
ENDCHAR
STARTCHAR Nacute.v
ENCODING 57782
SWIDTH 1000 0
DWIDTH 14 0
BBX 10 16 2 -2
BITMAP
1F80
2380
6C80
7F80
4640
D6C0
DAC0
D4C0
D2C0
DAC0
D5C0
D6C0
D6C0
C640
FF80
E700
ENDCHAR
STARTCHAR Ncommaaccent.v
ENCODING 57783
SWIDTH 1000 0
DWIDTH 14 0
BBX 10 17 2 -6
BITMAP
79C0
C640
D2C0
DAC0
D4C0
D2C0
D5C0
D4C0
D6C0
C640
FFC0
F080
1700
3F00
3200
1E00
1800
ENDCHAR
STARTCHAR Ncaron.v
ENCODING 57784
SWIDTH 1000 0
DWIDTH 14 0
BBX 10 16 2 -2
BITMAP
3F80
6980
6680
7F80
4640
D6C0
DAC0
D4C0
D2C0
DAC0
D5C0
D6C0
D6C0
C640
FF80
E700
ENDCHAR
STARTCHAR Ograve.v
ENCODING 57785
SWIDTH 1000 0
DWIDTH 14 0
BBX 10 16 2 -2
BITMAP
3B00
2C80
6380
7F80
6040
4F40
D0C0
D6C0
D6C0
D6C0
D6C0
D0C0
CF40
E040
FF80
7E00
ENDCHAR
STARTCHAR Oacute.v
ENCODING 57786
SWIDTH 1000 0
DWIDTH 14 0
BBX 10 16 2 -2
BITMAP
1F80
2380
6C80
7F00
60C0
4F40
D0C0
D6C0
D6C0
D6C0
D6C0
D0C0
CF40
E040
FF80
7E00
ENDCHAR
STARTCHAR Ocircumflex.v
ENCODING 57787
SWIDTH 1000 0
DWIDTH 14 0
BBX 10 16 2 -2
BITMAP
1F00
2F80
6080
7F80
6040
4F40
D0C0
D6C0
D6C0
D6C0
D6C0
D0C0
CF40
E040
FF80
7E00
ENDCHAR
STARTCHAR Otilde.v
ENCODING 57788
SWIDTH 1000 0
DWIDTH 14 0
BBX 10 15 2 -2
BITMAP
3F80
6780
7F00
60C0
4F40
D0C0
D6C0
D6C0
D6C0
D6C0
D0C0
CF40
E040
FF80
7E00
ENDCHAR
STARTCHAR Odieresis.v
ENCODING 57789
SWIDTH 1000 0
DWIDTH 14 0
BBX 10 16 2 -2
BITMAP
1B80
2440
6440
7F80
6040
4F40
D0C0
D6C0
D6C0
D6C0
D6C0
D0C0
CF40
E040
FF80
7E00
ENDCHAR
STARTCHAR Omacron.v
ENCODING 57790
SWIDTH 1000 0
DWIDTH 14 0
BBX 10 15 2 -2
BITMAP
3F80
6F80
7F80
6040
4F40
D0C0
D6C0
D6C0
D6C0
D6C0
D0C0
CF40
E040
FF80
7E00
ENDCHAR
STARTCHAR Obreve.v
ENCODING 57791
SWIDTH 1000 0
DWIDTH 14 0
BBX 10 16 2 -2
BITMAP
3FC0
6940
6680
7F00
60C0
4F40
D0C0
D6C0
D6C0
D6C0
D6C0
D0C0
CF40
E040
FF80
7E00
ENDCHAR
STARTCHAR Ohungarumlaut.v
ENCODING 57792
SWIDTH 1000 0
DWIDTH 14 0
BBX 10 17 2 -2
BITMAP
1FC0
2240
2A80
6640
7F80
6040
4F40
D0C0
D6C0
D6C0
D6C0
D6C0
D0C0
CF40
E040
FF80
7E00
ENDCHAR
STARTCHAR Racute.v
ENCODING 57793
SWIDTH 1000 0
DWIDTH 14 0
BBX 10 16 2 -2
BITMAP
1B80
2680
6880
7F00
4080
DF40
D140
D540
D140
DF40
D0C0
D6C0
D6C0
C640
FFC0
E700
ENDCHAR
STARTCHAR Rcommaaccent.v
ENCODING 57794
SWIDTH 1000 0
DWIDTH 14 0
BBX 10 17 2 -6
BITMAP
7F80
CE40
D140
D540
D540
DF40
D0C0
D6C0
D6C0
C640
FFC0
F080
1700
3F00
3200
1E00
1800
ENDCHAR
STARTCHAR Rcaron.v
ENCODING 57795
SWIDTH 1000 0
DWIDTH 14 0
BBX 10 16 2 -2
BITMAP
3F80
6980
6680
7F00
4080
DF40
D140
D540
D140
DF40
D0C0
D6C0
D6C0
C640
FFC0
E700
ENDCHAR
STARTCHAR Sacute.v
ENCODING 57796
SWIDTH 1000 0
DWIDTH 14 0
BBX 10 16 2 -2
BITMAP
1F80
2380
6C80
7F80
6040
5FC0
D040
D780
DC40
C3C0
FEC0
40C0
DF40
C040
FF80
FE00
ENDCHAR
STARTCHAR Scircumflex.v
ENCODING 57797
SWIDTH 1000 0
DWIDTH 14 0
BBX 10 16 2 -2
BITMAP
1F00
2F80
6080
7F80
6040
5FC0
D040
D780
DC40
C3C0
FEC0
40C0
DF40
C040
FF80
FE00
ENDCHAR
STARTCHAR Scedilla.v
ENCODING 57798
SWIDTH 1000 0
DWIDTH 14 0
BBX 10 14 2 -3
BITMAP
3FC0
4FC0
5040
D780
D040
CF40
E0C0
FEC0
41C0
DE40
F580
F100
3E00
3800
ENDCHAR
STARTCHAR Scaron.v
ENCODING 57799
SWIDTH 1000 0
DWIDTH 14 0
BBX 10 16 2 -2
BITMAP
3F80
6980
6680
7F80
2040
5FC0
D040
D780
DC40
C3C0
FEC0
40C0
DF40
C040
FF80
FE00
ENDCHAR
STARTCHAR Scommaaccent.v
ENCODING 57800
SWIDTH 1000 0
DWIDTH 14 0
BBX 10 17 2 -6
BITMAP
3FC0
4FC0
5040
D780
D040
CF40
E0C0
FEC0
41C0
DE40
FF80
F100
1700
3F00
3200
1E00
1800
ENDCHAR
STARTCHAR Tcommaaccent.v
ENCODING 57801
SWIDTH 1000 0
DWIDTH 14 0
BBX 10 16 2 -5
BITMAP
7FC0
DBC0
C440
F4C0
F480
3500
3500
3500
3100
3E00
3500
3300
3D00
3200
3C00
1800
ENDCHAR
STARTCHAR Tcaron.v
ENCODING 57802
SWIDTH 1000 0
DWIDTH 14 0
BBX 10 16 2 -2
BITMAP
3F80
6980
6680
7F80
4040
DFC0
C440
F480
F500
3500
3500
3500
3500
3100
3E00
3C00
ENDCHAR
STARTCHAR Ugrave.v
ENCODING 57803
SWIDTH 1000 0
DWIDTH 14 0
BBX 10 16 2 -2
BITMAP
3B00
2C80
6380
7F80
4640
D6C0
D6C0
D6C0
D6C0
D6C0
D6C0
D0C0
CF40
E040
FF80
3E00
ENDCHAR
STARTCHAR Uacute.v
ENCODING 57804
SWIDTH 1000 0
DWIDTH 14 0
BBX 10 16 2 -2
BITMAP
0DC0
1340
2440
7F80
4640
D6C0
D6C0
D6C0
D6C0
D6C0
D6C0
D0C0
CF40
E040
FF80
3E00
ENDCHAR
STARTCHAR Ucircumflex.v
ENCODING 57805
SWIDTH 1000 0
DWIDTH 14 0
BBX 10 16 2 -2
BITMAP
1F00
2F80
6080
7F80
4640
D6C0
D6C0
D6C0
D6C0
D6C0
D6C0
D0C0
CF40
E040
FF80
3E00
ENDCHAR
STARTCHAR Udieresis.v
ENCODING 57806
SWIDTH 1000 0
DWIDTH 14 0
BBX 10 16 2 -2
BITMAP
1B80
2440
6440
7F80
4640
D6C0
D6C0
D6C0
D6C0
D6C0
D6C0
D0C0
CF40
E040
FF80
3E00
ENDCHAR
STARTCHAR Utilde.v
ENCODING 57807
SWIDTH 1000 0
DWIDTH 14 0
BBX 10 15 2 -2
BITMAP
3F80
6780
7F80
4640
D6C0
D6C0
D6C0
D6C0
D6C0
D6C0
D0C0
CF40
E040
FF80
3E00
ENDCHAR
STARTCHAR Umacron.v
ENCODING 57808
SWIDTH 1000 0
DWIDTH 14 0
BBX 10 15 2 -2
BITMAP
3F80
6F80
7F80
4640
D6C0
D6C0
D6C0
D6C0
D6C0
D6C0
D0C0
CF40
E040
FF80
3E00
ENDCHAR
STARTCHAR Ubreve.v
ENCODING 57809
SWIDTH 1000 0
DWIDTH 14 0
BBX 10 16 2 -2
BITMAP
3FC0
6940
6680
7F80
4640
D6C0
D6C0
D6C0
D6C0
D6C0
D6C0
D0C0
CF40
E040
FF80
3E00
ENDCHAR
STARTCHAR Uring.v
ENCODING 57810
SWIDTH 1000 0
DWIDTH 14 0
BBX 10 18 2 -2
BITMAP
1F80
2980
6F40
6940
6680
7F80
4640
D6C0
D6C0
D6C0
D6C0
D6C0
D6C0
D0C0
CF40
E040
FF80
3E00
ENDCHAR
STARTCHAR Uhungarumlaut.v
ENCODING 57811
SWIDTH 1000 0
DWIDTH 14 0
BBX 10 17 2 -2
BITMAP
1FC0
2240
2A80
6640
7F80
4640
D6C0
D6C0
D6C0
D6C0
D6C0
D6C0
D0C0
CF40
E040
FF80
3E00
ENDCHAR
STARTCHAR Uogonek.v
ENCODING 57812
SWIDTH 1000 0
DWIDTH 14 0
BBX 10 15 2 -4
BITMAP
7BC0
CA40
D6C0
D6C0
D6C0
D6C0
D6C0
D6C0
D1C0
CE40
FC80
7500
1B00
3F00
1C00
ENDCHAR
STARTCHAR Wcircumflex.v
ENCODING 57813
SWIDTH 1000 0
DWIDTH 14 0
BBX 12 16 1 -2
BITMAP
0F80
17C0
3040
3FE0
2790
55D0
D7D0
D4D0
D4D0
D350
6D50
6ED0
6B60
6320
7FC0
7380
ENDCHAR
STARTCHAR Wgrave.v
ENCODING 57814
SWIDTH 1000 0
DWIDTH 14 0
BBX 12 16 1 -2
BITMAP
1D80
1640
31C0
3FE0
2790
55D0
D7D0
D4D0
D4D0
D350
6D50
6ED0
6B60
6320
7FC0
7380
ENDCHAR
STARTCHAR Wacute.v
ENCODING 57815
SWIDTH 1000 0
DWIDTH 14 0
BBX 12 16 1 -2
BITMAP
0EC0
11A0
1620
3FE0
2790
55D0
D7D0
D4D0
D4D0
D350
6D50
6ED0
6B60
6320
7FC0
7380
ENDCHAR
STARTCHAR Wdieresis.v
ENCODING 57816
SWIDTH 1000 0
DWIDTH 14 0
BBX 12 16 1 -2
BITMAP
0EC0
1120
3120
3FE0
2790
55D0
D7D0
D4D0
D4D0
D350
6D50
6ED0
6B60
6320
7FC0
7380
ENDCHAR
STARTCHAR Yacute.v
ENCODING 57817
SWIDTH 1000 0
DWIDTH 14 0
BBX 10 16 2 -2
BITMAP
0DC0
1340
2440
7F80
4640
D6C0
D6C0
D6C0
C940
E940
E680
7500
3500
3100
3E00
3C00
ENDCHAR
STARTCHAR Ycircumflex.v
ENCODING 57818
SWIDTH 1000 0
DWIDTH 14 0
BBX 10 16 2 -2
BITMAP
1F00
2F80
6080
7F80
4640
D6C0
D6C0
D6C0
C940
E940
E680
7500
3500
3100
3E00
3C00
ENDCHAR
STARTCHAR Ydieresis.v
ENCODING 57819
SWIDTH 1000 0
DWIDTH 14 0
BBX 10 16 2 -2
BITMAP
1B80
2440
6440
7F80
4640
D6C0
D6C0
D6C0
C940
E940
E680
7500
3500
3100
3E00
3C00
ENDCHAR
STARTCHAR Ygrave.v
ENCODING 57820
SWIDTH 1000 0
DWIDTH 14 0
BBX 10 16 2 -2
BITMAP
3B00
2C80
6380
7F80
4640
D6C0
D6C0
D6C0
C940
E940
E680
7500
3500
3100
3E00
3C00
ENDCHAR
STARTCHAR Zacute.v
ENCODING 57821
SWIDTH 1000 0
DWIDTH 14 0
BBX 10 16 2 -2
BITMAP
0DC0
1340
2440
7F80
4040
DFC0
C0C0
FD40
F280
1500
6A00
51C0
DFC0
C040
FF80
FF00
ENDCHAR
STARTCHAR Zdotaccent.v
ENCODING 57822
SWIDTH 1000 0
DWIDTH 14 0
BBX 10 16 2 -2
BITMAP
0F00
1500
3100
3F80
4040
DFC0
C0C0
FD40
F280
1500
6A00
51C0
DFC0
C040
FF80
FF00
ENDCHAR
STARTCHAR Zcaron.v
ENCODING 57823
SWIDTH 1000 0
DWIDTH 14 0
BBX 10 16 2 -2
BITMAP
3F80
6980
6680
7F80
4040
DFC0
C0C0
FD40
F280
1500
6A00
51C0
DFC0
C040
FF80
FF00
ENDCHAR
STARTCHAR AE.v
ENCODING 57824
SWIDTH 1000 0
DWIDTH 14 0
BBX 11 13 1 -2
BITMAP
0FE0
16E0
2920
2B60
6B20
55E0
5120
DF60
D520
D5E0
C420
FFE0
E7C0
ENDCHAR
STARTCHAR Eth.v
ENCODING 57825
SWIDTH 1000 0
DWIDTH 14 0
BBX 11 13 1 -2
BITMAP
3FC0
67A0
6860
6B60
4960
5D60
C960
EB60
E860
6FA0
6060
7F80
7F00
ENDCHAR
STARTCHAR Oslash.v
ENCODING 57826
SWIDTH 1000 0
DWIDTH 14 0
BBX 10 15 2 -3
BITMAP
01C0
3E40
4F40
5140
D6C0
D4C0
DDC0
D6C0
D6C0
DCC0
CF40
F040
C780
7E00
E000
ENDCHAR
STARTCHAR Thorn.v
ENCODING 57827
SWIDTH 1000 0
DWIDTH 14 0
BBX 10 13 2 -2
BITMAP
7800
CF00
D0C0
DF40
D0C0
D6C0
D6C0
D0C0
DF40
D780
C700
F800
E000
ENDCHAR
STARTCHAR Dcroat.v
ENCODING 57828
SWIDTH 1000 0
DWIDTH 14 0
BBX 11 13 1 -2
BITMAP
3FC0
67A0
6860
6B60
4960
5D60
C960
EB60
E860
6FA0
6060
7F80
7F00
ENDCHAR
STARTCHAR Hbar.v
ENCODING 57829
SWIDTH 1000 0
DWIDTH 14 0
BBX 12 13 1 -2
BITMAP
3DF0
6710
4850
5FF0
C850
EB50
6850
6FD0
6850
6B50
6310
7FE0
7380
ENDCHAR
STARTCHAR IJ.v
ENCODING 57830
SWIDTH 1000 0
DWIDTH 14 0
BBX 10 13 2 -2
BITMAP
7BC0
CA40
D6C0
D6C0
D6C0
C6C0
FEC0
E6C0
58C0
DF40
C0C0
FF00
FE00
ENDCHAR
STARTCHAR Ldot.v
ENCODING 57831
SWIDTH 1000 0
DWIDTH 14 0
BBX 10 16 2 -5
BITMAP
7800
C800
D800
D800
D980
DA40
D6C0
D6C0
D0C0
CF40
FFC0
F880
1B00
1900
1E00
1C00
ENDCHAR
STARTCHAR Lslash.v
ENCODING 57832
SWIDTH 1000 0
DWIDTH 14 0
BBX 11 13 1 -2
BITMAP
3C00
6400
6C00
6B00
4900
5DE0
CB20
EB60
6860
6FE0
6020
7FE0
7F80
ENDCHAR
STARTCHAR Eng.v
ENCODING 57833
SWIDTH 1000 0
DWIDTH 14 0
BBX 10 14 2 -3
BITMAP
1F80
2F40
50C0
D6C0
D6C0
D6C0
D6C0
D6C0
D6C0
D4C0
C5C0
FC40
EF80
0E00
ENDCHAR
STARTCHAR OE.v
ENCODING 57834
SWIDTH 1000 0
DWIDTH 14 0
BBX 12 13 1 -2
BITMAP
1FF0
2750
6890
56E0
D690
D6D0
D690
D6E0
D090
EFD0
7010
7FE0
1FC0
ENDCHAR
STARTCHAR Tbar.v
ENCODING 57835
SWIDTH 1000 0
DWIDTH 14 0
BBX 10 13 2 -2
BITMAP
7FC0
C040
DFC0
C440
F480
3480
2F40
6440
7480
7500
3100
3E00
3C00
ENDCHAR
STARTCHAR Germandbls.v
ENCODING 57836
SWIDTH 1000 0
DWIDTH 14 0
BBX 10 13 2 -2
BITMAP
7F80
CE40
D140
D540
D540
D540
D4C0
D6C0
D4C0
D540
C440
FF80
EE00
ENDCHAR
STARTCHAR A.salt_v
ENCODING 57837
SWIDTH 1000 0
DWIDTH 14 0
BBX 10 13 2 -2
BITMAP
3F80
4F40
50C0
D6C0
D6C0
D6C0
DFC0
D0C0
D6C0
D6C0
C640
FF80
E700
ENDCHAR
STARTCHAR Agrave.salt_v
ENCODING 57838
SWIDTH 1000 0
DWIDTH 14 0
BBX 10 16 2 -2
BITMAP
3B00
2C80
6380
7F80
6040
4F40
D0C0
D6C0
D6C0
D0C0
DFC0
D0C0
D6C0
C640
FFC0
E700
ENDCHAR
STARTCHAR Aacute.salt_v
ENCODING 57839
SWIDTH 1000 0
DWIDTH 14 0
BBX 10 16 2 -2
BITMAP
1F80
2380
6C80
7F00
60C0
4F40
D0C0
D6C0
D6C0
D0C0
DFC0
D0C0
D6C0
C640
FF80
E700
ENDCHAR
STARTCHAR Acircumflex.salt_v
ENCODING 57840
SWIDTH 1000 0
DWIDTH 14 0
BBX 10 16 2 -2
BITMAP
1F00
2F80
6080
7F80
6040
4F40
D0C0
D6C0
D6C0
D0C0
DFC0
D0C0
D6C0
C640
FF80
E700
ENDCHAR
STARTCHAR Atilde.salt_v
ENCODING 57841
SWIDTH 1000 0
DWIDTH 14 0
BBX 10 15 2 -2
BITMAP
3F80
6780
7F00
60C0
4F40
D0C0
D6C0
D6C0
D0C0
DFC0
D0C0
D6C0
C640
FFC0
E700
ENDCHAR
STARTCHAR Adieresis.salt_v
ENCODING 57842
SWIDTH 1000 0
DWIDTH 14 0
BBX 10 16 2 -2
BITMAP
1B80
2440
6440
7F80
6040
4F40
D0C0
D6C0
D6C0
D0C0
DFC0
D0C0
D6C0
C640
FF80
E700
ENDCHAR
STARTCHAR Aring.salt_v
ENCODING 57843
SWIDTH 1000 0
DWIDTH 14 0
BBX 10 16 2 -2
BITMAP
1F00
2F80
7780
7780
6A40
4D40
D0C0
D6C0
D6C0
D0C0
DFC0
D0C0
D6C0
C640
FF80
E700
ENDCHAR
STARTCHAR Amacron.salt_v
ENCODING 57844
SWIDTH 1000 0
DWIDTH 14 0
BBX 10 15 2 -2
BITMAP
3F80
6F80
7F80
6040
4F40
D0C0
D6C0
D6C0
D0C0
DFC0
D0C0
D6C0
C640
FFC0
E700
ENDCHAR
STARTCHAR Abreve.salt_v
ENCODING 57845
SWIDTH 1000 0
DWIDTH 14 0
BBX 10 16 2 -2
BITMAP
3FC0
6940
6680
7F00
60C0
4F40
D0C0
D6C0
D6C0
D0C0
DFC0
D0C0
D6C0
C640
FF80
E700
ENDCHAR
STARTCHAR Aogonek.salt_v
ENCODING 57846
SWIDTH 1000 0
DWIDTH 14 0
BBX 10 15 2 -5
BITMAP
3FC0
4F40
D0C0
D6C0
D6C0
D0C0
DFC0
D0C0
D6C0
C6C0
FF40
E6C0
0640
0780
0300
ENDCHAR
STARTCHAR E.salt_v
ENCODING 57847
SWIDTH 1000 0
DWIDTH 14 0
BBX 10 13 2 -2
BITMAP
1FC0
6FC0
5040
D7C0
D080
DF80
D080
D700
D0C0
CFC0
E040
FF80
3F00
ENDCHAR
STARTCHAR Egrave.salt_v
ENCODING 57848
SWIDTH 1000 0
DWIDTH 14 0
BBX 10 16 2 -2
BITMAP
3B00
2C80
6380
7F80
6040
4FC0
D040
D780
DF80
D080
D700
D0C0
CFC0
E040
FF80
3F00
ENDCHAR
STARTCHAR Eacute.salt_v
ENCODING 57849
SWIDTH 1000 0
DWIDTH 14 0
BBX 10 16 2 -2
BITMAP
1F80
2380
6C80
7F80
6040
4FC0
D040
D780
DF80
D080
D700
D0C0
CFC0
E040
FF80
3F00
ENDCHAR
STARTCHAR Ecircumflex.salt_v
ENCODING 57850
SWIDTH 1000 0
DWIDTH 14 0
BBX 10 16 2 -2
BITMAP
1F00
2F80
6080
7F80
6040
4FC0
D040
D780
DF80
D080
D700
D0C0
CFC0
E040
FF80
3F00
ENDCHAR
STARTCHAR Edieresis.salt_v
ENCODING 57851
SWIDTH 1000 0
DWIDTH 14 0
BBX 10 16 2 -2
BITMAP
1B80
2440
6440
7F80
6040
4FC0
D040
D780
DF80
D080
D700
D0C0
CFC0
E040
FF80
3F00
ENDCHAR
STARTCHAR Emacron.salt_v
ENCODING 57852
SWIDTH 1000 0
DWIDTH 14 0
BBX 10 15 2 -2
BITMAP
3F80
6F80
7F80
6040
4FC0
D040
D780
DF80
D080
D700
D0C0
CFC0
E040
FF80
3F00
ENDCHAR
STARTCHAR Ebreve.salt_v
ENCODING 57853
SWIDTH 1000 0
DWIDTH 14 0
BBX 10 16 2 -2
BITMAP
3FC0
6940
6680
7F80
6040
4FC0
D040
D780
DF80
D080
D700
D0C0
CFC0
E040
FF80
3F00
ENDCHAR
STARTCHAR Edotaccent.salt_v
ENCODING 57854
SWIDTH 1000 0
DWIDTH 14 0
BBX 10 16 2 -2
BITMAP
0F00
1500
3100
3F80
2040
4FC0
D040
D780
DF80
D080
D700
D0C0
CFC0
E040
FF80
3F00
ENDCHAR
STARTCHAR Eogonek.salt_v
ENCODING 57855
SWIDTH 1000 0
DWIDTH 14 0
BBX 10 15 2 -4
BITMAP
1FC0
6FC0
5040
D780
D080
DF80
D080
D780
D840
C7C0
FF40
7F40
06C0
07C0
0700
ENDCHAR
STARTCHAR Ecaron.salt_v
ENCODING 57856
SWIDTH 1000 0
DWIDTH 14 0
BBX 10 16 2 -2
BITMAP
3F80
6980
6680
7F80
2040
4FC0
D040
D780
DF80
D080
D700
D0C0
CFC0
E040
FF80
3F00
ENDCHAR
STARTCHAR I.salt_v
ENCODING 57857
SWIDTH 1000 0
DWIDTH 14 0
BBX 6 13 4 -2
BITMAP
3C
44
D4
D4
D4
D4
D4
D4
D4
D4
C4
F8
F0
ENDCHAR
STARTCHAR I_I.salt_v
ENCODING 57858
SWIDTH 1000 0
DWIDTH 14 0
BBX 10 13 2 -2
BITMAP
7BC0
CA40
D6C0
D6C0
D6C0
D6C0
D6C0
D6C0
D6C0
D6C0
C640
FF80
E700
ENDCHAR
STARTCHAR Igrave.salt_v
ENCODING 57859
SWIDTH 1000 0
DWIDTH 14 0
BBX 8 16 3 -2
BITMAP
76
59
C7
FF
E2
2A
6A
6A
6A
6A
6A
6A
6A
62
7C
78
ENDCHAR
STARTCHAR Iacute.salt_v
ENCODING 57860
SWIDTH 1000 0
DWIDTH 14 0
BBX 8 16 3 -2
BITMAP
3F
47
D9
FE
E2
2A
6A
6A
6A
6A
6A
6A
6A
62
7C
78
ENDCHAR
STARTCHAR Icircumflex.salt_v
ENCODING 57861
SWIDTH 1000 0
DWIDTH 14 0
BBX 8 16 3 -2
BITMAP
3E
5F
C1
FF
E2
2A
6A
6A
6A
6A
6A
6A
6A
62
7C
78
ENDCHAR
STARTCHAR Idieresis.salt_v
ENCODING 57862
SWIDTH 1000 0
DWIDTH 14 0
BBX 8 16 3 -2
BITMAP
37
49
C9
FF
E2
2A
6A
6A
6A
6A
6A
6A
6A
62
7C
78
ENDCHAR
STARTCHAR Itilde.salt_v
ENCODING 57863
SWIDTH 1000 0
DWIDTH 14 0
BBX 8 15 3 -2
BITMAP
7F
CF
FE
E2
2A
6A
6A
6A
6A
6A
6A
6A
62
7C
78
ENDCHAR
STARTCHAR Imacron.salt_v
ENCODING 57864
SWIDTH 1000 0
DWIDTH 14 0
BBX 8 15 3 -2
BITMAP
7F
DF
FF
E2
2A
6A
6A
6A
6A
6A
6A
6A
62
7C
78
ENDCHAR
STARTCHAR Ibreve.salt_v
ENCODING 57865
SWIDTH 1000 0
DWIDTH 14 0
BBX 8 16 3 -2
BITMAP
7F
D3
CD
FE
E2
2A
6A
6A
6A
6A
6A
6A
6A
62
7C
78
ENDCHAR
STARTCHAR Iogonek.salt_v
ENCODING 57866
SWIDTH 1000 0
DWIDTH 14 0
BBX 6 15 4 -5
BITMAP
3C
4C
CC
CC
CC
CC
CC
CC
CC
D4
D8
D4
E4
F8
20
ENDCHAR
STARTCHAR Idotaccent.salt_v
ENCODING 57867
SWIDTH 1000 0
DWIDTH 14 0
BBX 6 16 4 -2
BITMAP
3C
54
C4
F8
C4
54
D4
D4
D4
D4
D4
D4
D4
C4
F8
F0
ENDCHAR
STARTCHAR L.salt_v
ENCODING 57868
SWIDTH 1000 0
DWIDTH 14 0
BBX 10 13 2 -2
BITMAP
7800
C800
D800
D800
D800
D800
D800
D800
D7C0
DFC0
C040
FF80
FF00
ENDCHAR
STARTCHAR Lacute.salt_v
ENCODING 57869
SWIDTH 1000 0
DWIDTH 14 0
BBX 10 16 2 -2
BITMAP
3700
4D00
D100
FE00
C400
D800
D800
D800
D800
D800
D800
D7C0
DFC0
C040
FF80
FF00
ENDCHAR
STARTCHAR Lcommaaccent.salt_v
ENCODING 57870
SWIDTH 1000 0
DWIDTH 14 0
BBX 10 17 2 -6
BITMAP
7800
C800
D800
D800
D800
D800
D800
D7C0
DFC0
C040
FFC0
F080
1700
3F00
3200
1E00
1800
ENDCHAR
STARTCHAR Lcaron.salt_v
ENCODING 57871
SWIDTH 1000 0
DWIDTH 14 0
BBX 11 13 2 -2
BITMAP
78E0
C920
DB60
DB20
DBC0
DB80
D800
D800
D7E0
DFA0
C020
FFC0
FF00
ENDCHAR
STARTCHAR Ldot.salt_v
ENCODING 57872
SWIDTH 1000 0
DWIDTH 14 0
BBX 10 16 2 -5
BITMAP
7800
C800
D800
D800
D800
D800
D800
D7C0
DFC0
C040
FFC0
F180
3600
3200
3E00
3800
ENDCHAR
STARTCHAR Lslash.salt_v
ENCODING 57873
SWIDTH 1000 0
DWIDTH 14 0
BBX 11 13 1 -2
BITMAP
3C00
6400
6C00
6A00
4D00
D900
CA00
EC00
EBE0
6FE0
6020
7FC0
7F80
ENDCHAR
STARTCHAR L.salt_s_v
ENCODING 57874
SWIDTH 1000 0
DWIDTH 14 0
BBX 10 12 2 -2
BITMAP
7800
D800
D800
D800
D800
D800
D800
D7C0
DFC0
C040
FF80
FF00
ENDCHAR
STARTCHAR M.salt_v
ENCODING 57875
SWIDTH 1000 0
DWIDTH 14 0
BBX 12 13 1 -2
BITMAP
1FE0
2DD0
5230
D6B0
D6B0
D6B0
D6B0
D6B0
D6B0
D6B0
C490
FFE0
EDC0
ENDCHAR
STARTCHAR N.salt_v
ENCODING 57876
SWIDTH 1000 0
DWIDTH 14 0
BBX 10 13 2 -2
BITMAP
3F80
4F40
50C0
D6C0
D6C0
D6C0
D6C0
D6C0
D6C0
D6C0
C640
FF80
E700
ENDCHAR
STARTCHAR Ntilde.salt_v
ENCODING 57877
SWIDTH 1000 0
DWIDTH 14 0
BBX 10 15 2 -2
BITMAP
3F80
6780
7F00
60C0
4F40
D0C0
D6C0
D6C0
D6C0
D6C0
D6C0
D6C0
C640
FF80
E700
ENDCHAR
STARTCHAR Nacute.salt_v
ENCODING 57878
SWIDTH 1000 0
DWIDTH 14 0
BBX 10 16 2 -2
BITMAP
1F80
2380
6C80
7F00
60C0
4F40
D0C0
D6C0
D6C0
D6C0
D6C0
D6C0
D6C0
C640
FF80
E700
ENDCHAR
STARTCHAR Ncommaaccent.salt_v
ENCODING 57879
SWIDTH 1000 0
DWIDTH 14 0
BBX 10 16 2 -5
BITMAP
1F80
2F40
50C0
D6C0
D6C0
D6C0
D6C0
D6C0
C640
FFC0
F480
3300
3D00
3200
1C00
1800
ENDCHAR
STARTCHAR Ncaron.salt_v
ENCODING 57880
SWIDTH 1000 0
DWIDTH 14 0
BBX 10 16 2 -2
BITMAP
3F80
6980
6680
7F00
20C0
4F40
D0C0
D6C0
D6C0
D6C0
D6C0
D6C0
D6C0
C640
FF80
E700
ENDCHAR
STARTCHAR W.salt_v
ENCODING 57881
SWIDTH 1000 0
DWIDTH 14 0
BBX 12 13 1 -2
BITMAP
3FF0
4490
D6B0
D6B0
D6B0
D6B0
D6B0
D6B0
D230
DFD0
E210
FFE0
7F80
ENDCHAR
STARTCHAR Wcircumflex.salt_v
ENCODING 57882
SWIDTH 1000 0
DWIDTH 14 0
BBX 12 16 1 -2
BITMAP
0F80
17C0
3040
3FE0
4490
D6B0
D6B0
D6B0
D6B0
D6B0
D6B0
D230
DFD0
E210
FFE0
7F80
ENDCHAR
STARTCHAR Wgrave.salt_v
ENCODING 57883
SWIDTH 1000 0
DWIDTH 14 0
BBX 12 16 1 -2
BITMAP
1D80
1640
31C0
3FE0
4490
D6B0
D6B0
D6B0
D6B0
D6B0
D6B0
D230
DFD0
E210
FFE0
7F80
ENDCHAR
STARTCHAR Wacute.salt_v
ENCODING 57884
SWIDTH 1000 0
DWIDTH 14 0
BBX 12 16 1 -2
BITMAP
0FC0
11C0
3640
3FE0
4490
D6B0
D6B0
D6B0
D6B0
D6B0
D6B0
D230
DFD0
E210
FFE0
7F80
ENDCHAR
STARTCHAR Wdieresis.salt_v
ENCODING 57885
SWIDTH 1000 0
DWIDTH 14 0
BBX 12 16 1 -2
BITMAP
0DC0
1220
3220
3FE0
4490
D6B0
D6B0
D6B0
D6B0
D6B0
D6B0
D230
DFD0
E210
FFE0
7F80
ENDCHAR
STARTCHAR X.salt_v
ENCODING 57886
SWIDTH 1100 0
DWIDTH 15 0
BBX 11 13 2 -2
BITMAP
3DE0
6220
6AA0
6AA0
74A0
4FA0
5060
D760
D760
D760
C720
FBC0
F380
ENDCHAR
STARTCHAR Y.salt_v
ENCODING 57887
SWIDTH 1000 0
DWIDTH 14 0
BBX 10 13 2 -2
BITMAP
7BC0
CA40
D6C0
D6C0
D6C0
D0C0
CB40
E4C0
F500
3500
3100
3E00
3C00
ENDCHAR
STARTCHAR Yacute.salt_v
ENCODING 57888
SWIDTH 1000 0
DWIDTH 14 0
BBX 10 16 2 -2
BITMAP
1F80
2380
6C80
7F80
4640
D6C0
D6C0
D6C0
D0C0
DB40
C440
F580
7500
3100
3E00
3C00
ENDCHAR
STARTCHAR Ycircumflex.salt_v
ENCODING 57889
SWIDTH 1000 0
DWIDTH 14 0
BBX 10 16 2 -2
BITMAP
1F00
2F80
6080
7F80
4640
D6C0
D6C0
D6C0
D0C0
DB40
C440
F580
7500
3100
3E00
3C00
ENDCHAR
STARTCHAR Ydieresis.salt_v
ENCODING 57890
SWIDTH 1000 0
DWIDTH 14 0
BBX 10 16 2 -2
BITMAP
1B80
2440
6440
7F80
4640
D6C0
D6C0
D6C0
D0C0
DB40
C440
F580
7500
3100
3E00
3C00
ENDCHAR
STARTCHAR Ygrave.salt_v
ENCODING 57891
SWIDTH 1000 0
DWIDTH 14 0
BBX 10 16 2 -2
BITMAP
3B00
2C80
6380
7F80
4640
D6C0
D6C0
D6C0
D0C0
DB40
C440
F580
7500
3100
3E00
3C00
ENDCHAR
STARTCHAR AE.salt_v
ENCODING 57892
SWIDTH 1000 0
DWIDTH 14 0
BBX 12 13 1 -2
BITMAP
1FF0
2750
4890
56E0
D690
D6D0
DF90
D0E0
D690
D6D0
C610
FFE0
77C0
ENDCHAR
STARTCHAR IJ.salt_v
ENCODING 57893
SWIDTH 1000 0
DWIDTH 14 0
BBX 10 23 2 -7
BITMAP
0F00
1500
3500
3500
3500
3500
3500
3500
3500
3100
3F80
3E40
06C0
06C0
06C0
7EC0
C6C0
D6C0
D0C0
CF40
E040
FF80
3E00
ENDCHAR
STARTCHAR IJ.stack_v
ENCODING 57894
SWIDTH 1000 0
DWIDTH 14 0
BBX 10 23 2 -7
BITMAP
7FC0
DFC0
C440
F480
3500
3500
3500
44C0
DFC0
C040
FF80
FE40
0240
06C0
06C0
3EC0
46C0
D6C0
D6C0
D1C0
CE40
F080
7F00
ENDCHAR
STARTCHAR commaaccent.v
ENCODING 57895
SWIDTH 1000 0
DWIDTH 14 0
BBX 6 6 4 -7
BITMAP
7C
CC
FC
CC
70
60
ENDCHAR
STARTCHAR hyphen.v
ENCODING 57896
SWIDTH 1000 0
DWIDTH 14 0
BBX 5 7 5 1
BITMAP
78
88
A8
A8
88
F0
E0
ENDCHAR
STARTCHAR endash.v
ENCODING 57897
SWIDTH 1000 0
DWIDTH 14 0
BBX 4 11 5 -1
BITMAP
70
90
B0
B0
B0
B0
B0
B0
90
F0
E0
ENDCHAR
STARTCHAR emdash.v
ENCODING 57898
SWIDTH 1000 0
DWIDTH 14 0
BBX 4 17 5 -4
BITMAP
70
90
B0
B0
B0
B0
B0
B0
B0
B0
B0
B0
B0
B0
90
F0
E0
ENDCHAR
STARTCHAR parenleft.v
ENCODING 57899
SWIDTH 1000 0
DWIDTH 14 0
BBX 14 7 0 1
BITMAP
3FF8
4FF4
500C
D00C
CFE4
F07C
E078
ENDCHAR
STARTCHAR parenright.v
ENCODING 57900
SWIDTH 1000 0
DWIDTH 14 0
BBX 14 7 0 1
BITMAP
781C
CFE4
D00C
CFF4
E004
FFF8
7FE0
ENDCHAR
STARTCHAR bracketleft.v
ENCODING 57901
SWIDTH 1000 0
DWIDTH 14 0
BBX 14 7 0 1
BITMAP
7FFC
CFF4
D00C
D00C
CFE4
F07C
E078
ENDCHAR
STARTCHAR bracketright.v
ENCODING 57902
SWIDTH 1000 0
DWIDTH 14 0
BBX 14 7 0 1
BITMAP
781C
CFE4
D00C
DFFC
C004
FFFC
FFF8
ENDCHAR
STARTCHAR braceleft.v
ENCODING 57903
SWIDTH 1000 0
DWIDTH 14 0
BBX 14 7 0 1
BITMAP
1FF8
2184
4E74
D10C
CFE4
DFF4
E078
ENDCHAR
STARTCHAR braceright.v
ENCODING 57904
SWIDTH 1000 0
DWIDTH 14 0
BBX 14 7 0 1
BITMAP
783C
D7CC
DD7C
C384
F008
7EF0
0700
ENDCHAR
STARTCHAR quoteleft.v
ENCODING 57905
SWIDTH 1000 0
DWIDTH 14 0
BBX 6 8 4 1
BITMAP
3C
4C
D8
D4
DC
C4
F8
F0
ENDCHAR
STARTCHAR quoteright.v
ENCODING 57906
SWIDTH 1000 0
DWIDTH 14 0
BBX 6 8 4 0
BITMAP
7C
DC
CC
FC
D4
C8
F0
E0
ENDCHAR
STARTCHAR quotedblleft.v
ENCODING 57907
SWIDTH 1000 0
DWIDTH 14 0
BBX 10 8 2 1
BITMAP
3FC0
5CC0
ED80
E540
DDC0
C440
FF80
FF00
ENDCHAR
STARTCHAR quotedblright.v
ENCODING 57908
SWIDTH 1000 0
DWIDTH 14 0
BBX 10 8 2 0
BITMAP
7FC0
DDC0
CC40
FBC0
D540
CEC0
FF00
E600
ENDCHAR
STARTCHAR quotesinglbase.v
ENCODING 57909
SWIDTH 1000 0
DWIDTH 14 0
BBX 6 8 4 1
BITMAP
3C
44
DC
CC
FC
D4
F8
E0
ENDCHAR
STARTCHAR quotedblbase.v
ENCODING 57910
SWIDTH 1000 0
DWIDTH 14 0
BBX 10 8 2 0
BITMAP
7FC0
DDC0
CC40
FBC0
D540
CEC0
FF00
E600
ENDCHAR
STARTCHAR guilsinglleft.v
ENCODING 57911
SWIDTH 1000 0
DWIDTH 14 0
BBX 9 8 3 1
BITMAP
1E00
2D00
5300
DB00
DA80
CC80
CC80
FF00
ENDCHAR
STARTCHAR guilsinglright.v
ENCODING 57912
SWIDTH 1000 0
DWIDTH 14 0
BBX 9 8 3 0
BITMAP
7F80
DA80
DA80
D300
CD00
E300
7C00
7800
ENDCHAR
STARTCHAR guillemotleft.v
ENCODING 57913
SWIDTH 1000 0
DWIDTH 14 0
BBX 9 13 3 -2
BITMAP
1E00
2D00
5300
DA80
CC80
FF00
E100
5F00
5300
DA80
CC80
FF00
CC00
ENDCHAR
STARTCHAR guillemotright.v
ENCODING 57914
SWIDTH 1000 0
DWIDTH 14 0
BBX 9 13 3 -2
BITMAP
3300
CC80
DB00
D300
ED00
FF00
4C80
DA80
D300
CD00
E200
7C00
7800
ENDCHAR
STARTCHAR period.v
ENCODING 57915
SWIDTH 1000 0
DWIDTH 14 0
BBX 6 6 4 1
BITMAP
3C
44
D4
C4
FC
F0
ENDCHAR
STARTCHAR comma.v
ENCODING 57916
SWIDTH 1000 0
DWIDTH 14 0
BBX 6 8 4 1
BITMAP
3C
44
DC
CC
FC
D4
F8
E0
ENDCHAR
STARTCHAR ellipsis.v
ENCODING 57917
SWIDTH 1000 0
DWIDTH 14 0
BBX 16 6 -1 1
BITMAP
3DEF
4211
D295
C211
FFFF
F7BC
ENDCHAR
STARTCHAR exclamdown.v
ENCODING 57918
SWIDTH 1000 0
DWIDTH 14 0
BBX 6 13 4 -2
BITMAP
3C
44
D4
C4
F8
44
D4
D4
D4
D4
C4
F8
F0
ENDCHAR
STARTCHAR questiondown.v
ENCODING 57919
SWIDTH 1000 0
DWIDTH 14 0
BBX 10 13 2 -2
BITMAP
0780
0880
1A80
1880
1F00
2080
5E80
D100
D7C0
CFC0
E040
FFC0
7F00
ENDCHAR
STARTCHAR dagger.v
ENCODING 57920
SWIDTH 1000 0
DWIDTH 14 0
BBX 10 13 2 -2
BITMAP
0F00
1100
3500
44C0
DFC0
C440
FDC0
FD80
1500
1500
1100
3E00
3C00
ENDCHAR
STARTCHAR daggerdbl.v
ENCODING 57921
SWIDTH 1000 0
DWIDTH 14 0
BBX 10 13 2 -2
BITMAP
0F00
3180
4440
DFC0
C440
FDC0
FD80
4440
DFC0
C440
F180
1E00
3C00
ENDCHAR
STARTCHAR perthousand.v
ENCODING 57922
SWIDTH 1000 0
DWIDTH 14 0
BBX 14 13 0 -2
BITMAP
1EE0
3D20
5BC0
DA80
DD80
E3F8
7AB4
35DC
1ADC
2D4C
26B4
7FF8
E7E0
ENDCHAR
STARTCHAR ampersand.salt_v
ENCODING 57923
SWIDTH 1000 0
DWIDTH 14 0
BBX 10 15 2 -3
BITMAP
0F80
1240
27C0
6840
6BC0
6880
4F40
5040
D780
D0C0
CDC0
C240
F8C0
7F00
1E00
ENDCHAR
STARTCHAR quoteleft.salt_v
ENCODING 57924
SWIDTH 1000 0
DWIDTH 14 0
BBX 5 6 2 2
BITMAP
10
68
F8
F8
C8
F0
ENDCHAR
STARTCHAR quoteright.salt_v
ENCODING 57925
SWIDTH 1000 0
DWIDTH 14 0
BBX 5 6 2 1
BITMAP
78
C8
E8
D8
E0
C0
ENDCHAR
STARTCHAR A.s_v
ENCODING 57926
SWIDTH 1000 0
DWIDTH 14 0
BBX 10 12 2 -2
BITMAP
1F80
2E80
6940
5540
56C0
D0C0
DFC0
D0C0
D6C0
C640
FFC0
E700
ENDCHAR
STARTCHAR C.s_v
ENCODING 57927
SWIDTH 1000 0
DWIDTH 14 0
BBX 10 12 2 -2
BITMAP
3FC0
4FC0
D040
D780
D700
D800
D800
D7C0
CFC0
E040
FF80
3F00
ENDCHAR
STARTCHAR D.s_v
ENCODING 57928
SWIDTH 1000 0
DWIDTH 14 0
BBX 10 12 2 -2
BITMAP
7FC0
DF40
D0C0
D6C0
D6C0
D6C0
D6C0
D0C0
DF40
C0C0
FF00
FE00
ENDCHAR
STARTCHAR E.s_v
ENCODING 57929
SWIDTH 1000 0
DWIDTH 14 0
BBX 10 12 2 -2
BITMAP
7FC0
DFC0
D040
D780
DF80
D080
D700
D0C0
DFC0
C040
FF80
FF00
ENDCHAR
STARTCHAR G.s_v
ENCODING 57930
SWIDTH 1000 0
DWIDTH 14 0
BBX 10 12 2 -2
BITMAP
3FC0
4F40
D040
D780
D780
DA40
D6C0
D0C0
CFC0
E040
FF80
3F00
ENDCHAR
STARTCHAR H.s_v
ENCODING 57931
SWIDTH 1000 0
DWIDTH 14 0
BBX 10 12 2 -2
BITMAP
7BC0
D6C0
D6C0
D0C0
DFC0
D0C0
D6C0
D6C0
D6C0
C640
FF80
E700
ENDCHAR
STARTCHAR I.s_v
ENCODING 57932
SWIDTH 1000 0
DWIDTH 14 0
BBX 10 12 2 -2
BITMAP
7FC0
DFC0
C440
F480
F500
3500
3500
44C0
DFC0
C040
FF80
FF00
ENDCHAR
STARTCHAR J.s_v
ENCODING 57933
SWIDTH 1000 0
DWIDTH 14 0
BBX 10 12 2 -2
BITMAP
03C0
06C0
06C0
06C0
7EC0
C6C0
D6C0
D0C0
CF40
E040
FF80
7E00
ENDCHAR
STARTCHAR K.s_v
ENCODING 57934
SWIDTH 1000 0
DWIDTH 14 0
BBX 10 12 2 -2
BITMAP
7BC0
D540
D580
D680
DE40
D1C0
D6C0
D6C0
D6C0
C640
FF80
E700
ENDCHAR
STARTCHAR L.s_v
ENCODING 57935
SWIDTH 1000 0
DWIDTH 14 0
BBX 10 12 2 -2
BITMAP
7800
D800
D800
D800
D9C0
DA40
D6C0
D0C0
DFC0
C040
FF80
FF00
ENDCHAR
STARTCHAR N.s_v
ENCODING 57936
SWIDTH 1000 0
DWIDTH 14 0
BBX 10 12 2 -2
BITMAP
7BC0
D6C0
DAC0
D4C0
D2C0
DAC0
D5C0
D6C0
D6C0
C640
FFC0
E700
ENDCHAR
STARTCHAR O.s_v
ENCODING 57937
SWIDTH 1000 0
DWIDTH 14 0
BBX 10 12 2 -2
BITMAP
3FC0
4F40
D0C0
D6C0
D6C0
D6C0
D6C0
D0C0
CF40
E040
FF80
7E00
ENDCHAR
STARTCHAR R.s_v
ENCODING 57938
SWIDTH 1000 0
DWIDTH 14 0
BBX 10 12 2 -2
BITMAP
7F80
DF40
D140
D540
D140
DF40
D0C0
D6C0
D6C0
C640
FFC0
E700
ENDCHAR
STARTCHAR S.s_v
ENCODING 57939
SWIDTH 1000 0
DWIDTH 14 0
BBX 10 12 2 -2
BITMAP
3FC0
5FC0
D040
D780
DC40
C3C0
FEC0
40C0
DF40
C040
FF80
FE00
ENDCHAR
STARTCHAR T.s_v
ENCODING 57940
SWIDTH 1000 0
DWIDTH 14 0
BBX 10 12 2 -2
BITMAP
7FC0
DFC0
C440
F480
F500
3500
3500
3500
3500
3100
3E00
3C00
ENDCHAR
STARTCHAR U.s_v
ENCODING 57941
SWIDTH 1000 0
DWIDTH 14 0
BBX 10 12 2 -2
BITMAP
7BC0
D6C0
D6C0
D6C0
D6C0
D6C0
D6C0
D0C0
CF40
E040
FF80
3E00
ENDCHAR
STARTCHAR W.s_v
ENCODING 57942
SWIDTH 1000 0
DWIDTH 14 0
BBX 12 12 1 -2
BITMAP
3CF0
55D0
D7D0
D4D0
D4D0
D350
6D50
6ED0
6B60
6320
7FC0
7380
ENDCHAR
STARTCHAR Y.s_v
ENCODING 57943
SWIDTH 1000 0
DWIDTH 14 0
BBX 10 12 2 -2
BITMAP
7BC0
D6C0
D6C0
D6C0
C940
E940
E680
7500
3500
3100
3E00
3C00
ENDCHAR
STARTCHAR Z.s_v
ENCODING 57944
SWIDTH 1000 0
DWIDTH 14 0
BBX 10 12 2 -2
BITMAP
7FC0
DFC0
C0C0
FD40
F280
1500
6A00
51C0
DFC0
C040
FF80
FF00
ENDCHAR
STARTCHAR A.salt_s_v
ENCODING 57945
SWIDTH 1000 0
DWIDTH 14 0
BBX 10 12 2 -2
BITMAP
3FC0
4F40
D0C0
D6C0
D6C0
D0C0
DFC0
D0C0
D6C0
C640
FF80
E700
ENDCHAR
STARTCHAR E.salt_s_v
ENCODING 57946
SWIDTH 1000 0
DWIDTH 14 0
BBX 10 12 2 -2
BITMAP
3FC0
4FC0
D040
D780
DF80
D080
D700
D0C0
CFC0
E040
FF80
3F00
ENDCHAR
STARTCHAR I.salt_s_v
ENCODING 57947
SWIDTH 1000 0
DWIDTH 14 0
BBX 6 12 4 -2
BITMAP
7C
54
D4
D4
D4
D4
D4
D4
D4
C4
F8
F0
ENDCHAR
STARTCHAR N.salt_s_v
ENCODING 57948
SWIDTH 1000 0
DWIDTH 14 0
BBX 10 12 2 -2
BITMAP
3FC0
4F40
D0C0
D6C0
D6C0
D6C0
D6C0
D6C0
D6C0
C640
FF80
E700
ENDCHAR
STARTCHAR W.salt_s_v
ENCODING 57949
SWIDTH 1000 0
DWIDTH 14 0
BBX 12 12 1 -2
BITMAP
7FF0
D6B0
D6B0
D6B0
D6B0
D6B0
D6B0
D230
DFD0
E210
FFE0
7F80
ENDCHAR
STARTCHAR Y.salt_s_v
ENCODING 57950
SWIDTH 1000 0
DWIDTH 14 0
BBX 10 12 2 -2
BITMAP
7BC0
D6C0
D6C0
D6C0
D0C0
DB40
C440
F580
7500
3100
3E00
3C00
ENDCHAR
STARTCHAR uniF6C3
ENCODING 63171
SWIDTH 600 0
DWIDTH 8 0
BBX 5 7 2 -7
BITMAP
78
A8
98
F8
E8
F0
E0
ENDCHAR
STARTCHAR fi
ENCODING 64257
SWIDTH 1423 0
DWIDTH 20 0
BBX 19 13 1 -2
BITMAP
7F9FE0
C0A020
DF67A0
D7F260
D77A80
D11A80
DD1A80
D11A80
D61A40
D427A0
C86020
F07FC0
E07F80
ENDCHAR
STARTCHAR fl
ENCODING 64258
SWIDTH 1513 0
DWIDTH 21 0
BBX 20 13 1 -2
BITMAP
7F9E00
C0B200
DFB600
D7B600
D73600
D13670
DD3690
D135B0
D63430
D437D0
C83010
F03FE0
E03FC0
ENDCHAR
STARTCHAR exclam.v
ENCODING 65281
SWIDTH 1000 0
DWIDTH 14 0
BBX 6 13 4 -2
BITMAP
7C
44
D4
D4
D4
D4
C4
C4
FC
54
C4
FC
F0
ENDCHAR
STARTCHAR quotedbl.v
ENCODING 65282
SWIDTH 1000 0
DWIDTH 14 0
BBX 10 8 2 1
BITMAP
7FC0
54C0
D4C0
D4C0
C440
C640
FF80
F700
ENDCHAR
STARTCHAR percent.v
ENCODING 65285
SWIDTH 1000 0
DWIDTH 14 0
BBX 12 13 1 -2
BITMAP
1E70
3DE0
5BA0
DAC0
DD80
E1E0
7ED0
3D50
1750
2B30
26D0
7FE0
6380
ENDCHAR
STARTCHAR ampersand.v
ENCODING 65286
SWIDTH 1000 0
DWIDTH 14 0
BBX 11 13 2 -2
BITMAP
1F80
2680
4880
4F00
EA00
4FE0
51E0
96A0
90A0
DFC0
C040
FF80
7E00
ENDCHAR
STARTCHAR quotesingle.v
ENCODING 65287
SWIDTH 1000 0
DWIDTH 14 0
BBX 6 8 4 1
BITMAP
3C
54
D4
D4
C4
C4
F8
F0
ENDCHAR
STARTCHAR asterisk.v
ENCODING 65290
SWIDTH 1000 0
DWIDTH 14 0
BBX 10 11 2 -1
BITMAP
0F00
1900
2DC0
54C0
CF40
F680
ED80
2640
7F80
7600
2400
ENDCHAR
STARTCHAR zero.v
ENCODING 65296
SWIDTH 1000 0
DWIDTH 14 0
BBX 10 13 2 -2
BITMAP
3F80
4F40
50C0
D6C0
D6C0
D6C0
D6C0
D6C0
D0C0
CF40
E040
FF80
3E00
ENDCHAR
STARTCHAR one.v
ENCODING 65297
SWIDTH 1000 0
DWIDTH 14 0
BBX 10 13 2 -2
BITMAP
7F00
4D00
C300
F300
F300
3300
3300
3300
42C0
CF40
C040
FF80
FF00
ENDCHAR
STARTCHAR two.v
ENCODING 65298
SWIDTH 1000 0
DWIDTH 14 0
BBX 10 13 2 -2
BITMAP
7F80
5F40
C0C0
FEC0
F0C0
2740
5880
D700
D0C0
DFC0
C040
FF80
FF00
ENDCHAR
STARTCHAR three.v
ENCODING 65299
SWIDTH 1000 0
DWIDTH 14 0
BBX 10 13 2 -2
BITMAP
7F80
DE40
C140
FD40
E180
2F40
60C0
7EC0
40C0
DF40
C040
FF80
FE00
ENDCHAR
STARTCHAR four.v
ENCODING 65300
SWIDTH 1000 0
DWIDTH 14 0
BBX 10 13 2 -2
BITMAP
7BC0
CA40
D6C0
D6C0
D6C0
D0C0
DFC0
C0C0
F0C0
FEC0
0640
0780
0700
ENDCHAR
STARTCHAR five.v
ENCODING 65301
SWIDTH 1000 0
DWIDTH 14 0
BBX 10 13 2 -2
BITMAP
7FC0
4F40
D040
D780
D040
DF40
C0C0
FEC0
C0C0
DF40
C040
FF80
FE00
ENDCHAR
STARTCHAR six.v
ENCODING 65302
SWIDTH 1000 0
DWIDTH 14 0
BBX 10 13 2 -2
BITMAP
3FC0
4F40
5040
D780
D040
DF40
D0C0
D6C0
D4C0
DF40
E040
FF80
7E00
ENDCHAR
STARTCHAR seven.v
ENCODING 65303
SWIDTH 1000 0
DWIDTH 14 0
BBX 10 13 2 -2
BITMAP
7FC0
DF40
C0C0
FEC0
FEC0
11C0
2640
2880
6B00
6A00
6200
7C00
7800
ENDCHAR
STARTCHAR eight.v
ENCODING 65304
SWIDTH 1000 0
DWIDTH 14 0
BBX 10 13 2 -2
BITMAP
1F80
2F40
50C0
D6C0
F080
CF40
50C0
D6C0
D6C0
DFC0
E040
FF80
7E00
ENDCHAR
STARTCHAR nine.v
ENCODING 65305
SWIDTH 1000 0
DWIDTH 14 0
BBX 10 13 2 -2
BITMAP
3F80
4F40
50C0
D6C0
D6C0
DFC0
C0C0
FEC0
60C0
6F40
60C0
7F00
7E00
ENDCHAR
STARTCHAR colon.v
ENCODING 65306
SWIDTH 1000 0
DWIDTH 14 0
BBX 6 12 4 -1
BITMAP
3C
44
D4
C4
C4
FC
FC
44
D4
C4
FC
F0
ENDCHAR
STARTCHAR semicolon.v
ENCODING 65307
SWIDTH 1000 0
DWIDTH 14 0
BBX 6 13 4 -2
BITMAP
3C
44
D4
C4
C4
FC
44
DC
CC
FC
D4
F8
E0
ENDCHAR
STARTCHAR question.v
ENCODING 65311
SWIDTH 1000 0
DWIDTH 14 0
BBX 10 13 2 -2
BITMAP
7F80
4040
DF40
FEC0
E0C0
2F40
6080
7F00
6200
6A00
6200
7C00
7800
ENDCHAR
STARTCHAR A.v
ENCODING 65313
SWIDTH 1000 0
DWIDTH 14 0
BBX 10 13 2 -2
BITMAP
1F80
2680
6940
4D40
54C0
D6C0
D0C0
DFC0
D6C0
D6C0
C640
FFC0
E700
ENDCHAR
STARTCHAR B.v
ENCODING 65314
SWIDTH 1000 0
DWIDTH 14 0
BBX 10 13 2 -2
BITMAP
7F80
CE40
D140
D540
D1C0
DF40
D0C0
D6C0
D0C0
DF40
C040
FF80
FE00
ENDCHAR
STARTCHAR C.v
ENCODING 65315
SWIDTH 1000 0
DWIDTH 14 0
BBX 10 13 2 -2
BITMAP
1FC0
6FC0
5040
D7C0
D700
D800
D800
D800
D7C0
CFC0
E040
FF80
3F00
ENDCHAR
STARTCHAR D.v
ENCODING 65316
SWIDTH 1000 0
DWIDTH 14 0
BBX 10 13 2 -2
BITMAP
7F80
CF40
D0C0
D6C0
D6C0
D6C0
D6C0
D6C0
D0C0
DF40
C0C0
FF00
FE00
ENDCHAR
STARTCHAR E.v
ENCODING 65317
SWIDTH 1000 0
DWIDTH 14 0
BBX 10 13 2 -2
BITMAP
7FC0
CFC0
D040
D7C0
D080
DF80
D080
D700
D0C0
DFC0
C040
FF80
FF00
ENDCHAR
STARTCHAR F.v
ENCODING 65318
SWIDTH 1000 0
DWIDTH 14 0
BBX 10 13 2 -2
BITMAP
7FC0
CFC0
D040
D7C0
D700
D080
DF80
D080
D700
D800
C800
F000
E000
ENDCHAR
STARTCHAR G.v
ENCODING 65319
SWIDTH 1000 0
DWIDTH 14 0
BBX 10 13 2 -2
BITMAP
3FC0
4F40
5040
D780
D700
DAC0
DA40
D6C0
D0C0
CFC0
E040
FF80
3F00
ENDCHAR
STARTCHAR H.v
ENCODING 65320
SWIDTH 1000 0
DWIDTH 14 0
BBX 10 13 2 -2
BITMAP
7BC0
CA40
D6C0
D6C0
D0C0
DFC0
D0C0
D6C0
D6C0
D6C0
C640
FF80
E700
ENDCHAR
STARTCHAR I.v
ENCODING 65321
SWIDTH 1000 0
DWIDTH 14 0
BBX 10 13 2 -2
BITMAP
7FC0
5BC0
C440
F4C0
F480
3500
3500
3500
44C0
DFC0
C040
FF80
FF00
ENDCHAR
STARTCHAR J.v
ENCODING 65322
SWIDTH 1000 0
DWIDTH 14 0
BBX 10 13 2 -2
BITMAP
03C0
0240
06C0
06C0
06C0
7EC0
C6C0
D6C0
D0C0
CF40
E040
FF80
7E00
ENDCHAR
STARTCHAR K.v
ENCODING 65323
SWIDTH 1000 0
DWIDTH 14 0
BBX 10 13 2 -2
BITMAP
7BC0
CC40
D540
D580
D240
DF40
D0C0
D6C0
D6C0
D6C0
C640
FFC0
E700
ENDCHAR
STARTCHAR L.v
ENCODING 65324
SWIDTH 1000 0
DWIDTH 14 0
BBX 10 13 2 -2
BITMAP
7800
C800
D800
D800
D800
D9C0
DA40
D6C0
D0C0
DFC0
C040
FFC0
FF00
ENDCHAR
STARTCHAR M.v
ENCODING 65325
SWIDTH 1000 0
DWIDTH 14 0
BBX 12 13 1 -2
BITMAP
3CF0
4B10
56D0
54D0
5550
5250
54D0
D550
D750
D750
C710
FBE0
73C0
ENDCHAR
STARTCHAR N.v
ENCODING 65326
SWIDTH 1000 0
DWIDTH 14 0
BBX 10 13 2 -2
BITMAP
79C0
C640
D2C0
DAC0
D4C0
D2C0
D5C0
D4C0
D6C0
D6C0
C640
FFC0
E700
ENDCHAR
STARTCHAR O.v
ENCODING 65327
SWIDTH 1000 0
DWIDTH 14 0
BBX 10 13 2 -2
BITMAP
3F80
4F40
50C0
D6C0
D6C0
D6C0
D6C0
D6C0
D0C0
CF40
E040
FF80
7E00
ENDCHAR
STARTCHAR P.v
ENCODING 65328
SWIDTH 1000 0
DWIDTH 14 0
BBX 10 13 2 -2
BITMAP
7F80
CF40
D0C0
D6C0
D6C0
D0C0
DF40
D040
D780
D600
C800
F000
E000
ENDCHAR
STARTCHAR Q.v
ENCODING 65329
SWIDTH 1000 0
DWIDTH 14 0
BBX 10 14 2 -3
BITMAP
3F80
4F40
50C0
D6C0
D6C0
D6C0
D6C0
D6C0
D0C0
CB40
E4C0
F100
3E00
3C00
ENDCHAR
STARTCHAR R.v
ENCODING 65330
SWIDTH 1000 0
DWIDTH 14 0
BBX 10 13 2 -2
BITMAP
7F80
CE40
D140
D540
D540
D140
DEC0
D0C0
D6C0
D6C0
C640
FFC0
E700
ENDCHAR
STARTCHAR S.v
ENCODING 65331
SWIDTH 1000 0
DWIDTH 14 0
BBX 10 13 2 -2
BITMAP
3FC0
4FC0
5040
D780
D080
CF40
E0C0
FEC0
40C0
DF40
C040
FF80
FE00
ENDCHAR
STARTCHAR T.v
ENCODING 65332
SWIDTH 1000 0
DWIDTH 14 0
BBX 10 13 2 -2
BITMAP
7FC0
DBC0
C440
F4C0
F480
3500
3500
3500
3500
3500
3100
3E00
3C00
ENDCHAR
STARTCHAR U.v
ENCODING 65333
SWIDTH 1000 0
DWIDTH 14 0
BBX 10 13 2 -2
BITMAP
7BC0
CA40
D6C0
D6C0
D6C0
D6C0
D6C0
D6C0
D0C0
CF40
E040
FF80
3E00
ENDCHAR
STARTCHAR V.v
ENCODING 65334
SWIDTH 1000 0
DWIDTH 14 0
BBX 10 13 2 -2
BITMAP
79C0
CA40
D6C0
D6C0
D6C0
D6C0
D6C0
D540
E940
6E80
6080
7F00
3E00
ENDCHAR
STARTCHAR W.v
ENCODING 65335
SWIDTH 1000 0
DWIDTH 14 0
BBX 12 13 1 -2
BITMAP
3CF0
4590
D5D0
D7D0
D4D0
D4D0
D350
6D50
6ED0
6B60
6320
7FC0
7380
ENDCHAR
STARTCHAR X.v
ENCODING 65336
SWIDTH 1100 0
DWIDTH 15 0
BBX 11 13 2 -2
BITMAP
3DE0
4320
CB60
EAA0
64C0
7340
24A0
2AA0
5360
5360
C720
FBC0
7380
ENDCHAR
STARTCHAR Y.v
ENCODING 65337
SWIDTH 1000 0
DWIDTH 14 0
BBX 10 13 2 -2
BITMAP
79C0
CA40
D6C0
D6C0
D6C0
C940
EB40
F480
7500
3500
3100
3E00
3C00
ENDCHAR
STARTCHAR Z.v
ENCODING 65338
SWIDTH 1000 0
DWIDTH 14 0
BBX 10 13 2 -2
BITMAP
7FC0
5F40
C0C0
FD40
FA40
1280
2500
4A00
51C0
DFC0
C040
FF80
FF00
ENDCHAR
STARTCHAR uni2B24.salt_v
ENCODING 65339
SWIDTH 1280 0
DWIDTH 18 0
BBX 16 16 1 -3
BITMAP
1FF8
3FFC
7FFE
7FFE
FFFF
FFFF
FFFF
FFFF
FFFF
FFFF
FFFF
7FFE
7FFE
3FFC
3FFC
1FF8
ENDCHAR
STARTCHAR uni25DD.curve_v
ENCODING 65340
SWIDTH 1280 0
DWIDTH 18 0
BBX 16 16 1 -3
BITMAP
1FFF
3FFF
7FFF
7FFF
7FFF
FFFF
FFFF
FFFF
FFFF
FFFF
FFFF
FFFF
FFFF
FFFF
FFFF
7FFE
ENDCHAR
STARTCHAR uni2B1B.trapezoid_e_v
ENCODING 65341
SWIDTH 1280 0
DWIDTH 18 0
BBX 16 18 1 -3
BITMAP
C000
FE00
FFF0
FFFF
FFFF
FFFF
FFFF
FFFF
FFFF
FFFF
FFFF
FFFF
FFFF
FFFF
FFFF
FFFF
FFFF
7FFE
ENDCHAR
STARTCHAR uni2B1B.trapezoid_w_v
ENCODING 65342
SWIDTH 1280 0
DWIDTH 18 0
BBX 16 17 1 -4
BITMAP
FFFF
FFFF
FFFF
FFFF
FFFF
FFFF
FFFF
FFFF
FFFF
FFFF
FFFF
FFFF
FFFF
FFFF
FFF8
FF80
F000
ENDCHAR
STARTCHAR .notdef
ENCODING -1
SWIDTH 1100 0
DWIDTH 15 0
BBX 13 13 1 -2
BITMAP
7FF8
DFF8
E018
E018
E018
E018
E018
E018
E018
E018
E018
DFE8
FFF0
ENDCHAR
STARTCHAR one.sups
ENCODING -1
SWIDTH 557 0
DWIDTH 8 0
BBX 8 10 0 1
BITMAP
3E
5A
7A
7A
3A
3A
5F
C1
FE
FC
ENDCHAR
STARTCHAR two.sups
ENCODING -1
SWIDTH 585 0
DWIDTH 8 0
BBX 8 10 0 1
BITMAP
3F
7D
7B
77
3A
5F
DF
C1
FE
FC
ENDCHAR
STARTCHAR three.sups
ENCODING -1
SWIDTH 584 0
DWIDTH 8 0
BBX 8 10 0 1
BITMAP
3E
5D
FA
2D
63
7F
5D
C1
FE
F8
ENDCHAR
STARTCHAR four.sups
ENCODING -1
SWIDTH 620 0
DWIDTH 9 0
BBX 8 10 0 1
BITMAP
7F
5F
DF
D3
CF
C3
FF
7D
0E
0C
ENDCHAR
ENDFONT
